<svg width="174" height="54" viewBox="0 0 174 54" fill="none" xmlns="http://www.w3.org/2000/svg">
<rect width="174" height="54" rx="27" fill="url(#paint0_linear_1999_4112)"/>
<path d="M36.2377 21.46L34.6417 18.744C36.6017 16.896 39.3457 15.944 42.0897 15.944C46.7937 15.944 49.6217 18.716 49.6217 22.58C49.6217 26.724 46.1497 28.628 42.9297 30.056C40.8857 30.952 38.8697 31.876 37.9457 33.892L50.0697 33.696V37H33.3537C33.8857 30.532 37.8617 28.6 41.4457 26.892C44.9457 25.24 46.0377 24.456 46.0377 22.412C46.0377 20.508 44.5537 19.248 41.8657 19.248C39.9337 19.248 38.1977 19.948 36.2377 21.46ZM61.8209 37.336C56.1089 37.336 52.7489 32.996 52.7489 26.64C52.7489 20.284 56.1089 15.944 61.8209 15.944C67.5329 15.944 70.8929 20.284 70.8929 26.64C70.8929 32.996 67.5329 37.336 61.8209 37.336ZM61.8209 34.032C65.3489 34.032 67.3089 30.924 67.3089 26.64C67.3089 22.356 65.3489 19.248 61.8209 19.248C58.2929 19.248 56.3329 22.356 56.3329 26.64C56.3329 30.924 58.2929 34.032 61.8209 34.032ZM82.5748 37.336C76.8628 37.336 73.5028 32.996 73.5028 26.64C73.5028 20.284 76.8628 15.944 82.5748 15.944C88.2868 15.944 91.6468 20.284 91.6468 26.64C91.6468 32.996 88.2868 37.336 82.5748 37.336ZM82.5748 34.032C86.1028 34.032 88.0628 30.924 88.0628 26.64C88.0628 22.356 86.1028 19.248 82.5748 19.248C79.0468 19.248 77.0868 22.356 77.0868 26.64C77.0868 30.924 79.0468 34.032 82.5748 34.032ZM110.766 37.336C104.214 37.336 100.238 32.912 100.238 26.64C100.238 20.34 104.214 15.944 110.766 15.944C117.346 15.944 121.322 20.34 121.322 26.64C121.322 32.912 117.346 37.336 110.766 37.336ZM110.766 33.92C115.218 33.92 117.626 31.008 117.626 26.64C117.626 22.272 115.218 19.36 110.766 19.36C106.314 19.36 103.934 22.272 103.934 26.64C103.934 31.008 106.314 33.92 110.766 33.92ZM141.096 16.28L133.2 25.548L137.372 31.288C138.464 32.8 139.64 33.556 141.656 33.92V37.196C138.156 37 136.588 35.852 134.544 33.136L130.876 28.236L128.16 31.428V37H124.632V16.28H128.16V26.92L136.56 16.28H141.096Z" fill="white"/>
<defs>
<linearGradient id="paint0_linear_1999_4112" x1="0" y1="27" x2="174" y2="27" gradientUnits="userSpaceOnUse">
<stop stop-color="#40C377"/>
<stop offset="1" stop-color="#5CC39A"/>
</linearGradient>
</defs>
</svg>
