<svg width="15" height="10" viewBox="0 0 15 10" fill="none" xmlns="http://www.w3.org/2000/svg">
<path d="M4.6875 9.375C3.3875 9.375 2.28125 8.91875 1.36875 8.00625C0.45625 7.09375 0 5.9875 0 4.6875C0 3.3875 0.45625 2.28125 1.36875 1.36875C2.28125 0.45625 3.3875 0 4.6875 0H11.625C12.5625 0 13.3594 0.328125 14.0156 0.984375C14.6719 1.64062 15 2.4375 15 3.375C15 4.3125 14.6719 5.10938 14.0156 5.76562C13.3594 6.42188 12.5625 6.75 11.625 6.75H5.0625C4.4875 6.75 4 6.55 3.6 6.15C3.2 5.75 3 5.2625 3 4.6875C3 4.1125 3.2 3.625 3.6 3.225C4 2.825 4.4875 2.625 5.0625 2.625H12V4.125H5.0625C4.9 4.125 4.76563 4.17813 4.65938 4.28438C4.55313 4.39063 4.5 4.525 4.5 4.6875C4.5 4.85 4.55313 4.98437 4.65938 5.09062C4.76563 5.19687 4.9 5.25 5.0625 5.25H11.625C12.15 5.2375 12.5937 5.05313 12.9562 4.69688C13.3187 4.34063 13.5 3.9 13.5 3.375C13.5 2.85 13.3187 2.40625 12.9562 2.04375C12.5937 1.68125 12.15 1.5 11.625 1.5H4.6875C3.8 1.4875 3.04687 1.79375 2.42812 2.41875C1.80937 3.04375 1.5 3.8 1.5 4.6875C1.5 5.5625 1.80937 6.30625 2.42812 6.91875C3.04687 7.53125 3.8 7.85 4.6875 7.875H12V9.375H4.6875Z" fill="#95C674"/>
</svg>
