<svg width="204" height="180" viewBox="0 0 204 180" fill="none" xmlns="http://www.w3.org/2000/svg">
<rect x="36.5" y="90.4878" width="135.583" height="59.4348" rx="9.5" fill="url(#paint0_linear_2174_9192)" stroke="#88E8CD"/>
<path d="M58.9648 46.9747H92.8086C98.5402 46.9747 103.186 51.6211 103.187 57.3527H104.187C104.187 51.6211 108.834 46.9747 114.565 46.9747H148.408C154.14 46.9747 158.787 51.6211 158.787 57.3527V125.292C158.787 128.882 155.877 131.792 152.287 131.792H118.423C116.804 131.792 115.38 132.367 114.078 133.192C112.784 134.012 111.582 135.1 110.418 136.151C109.241 137.215 108.102 138.243 106.893 139.009C105.691 139.77 104.452 140.253 103.083 140.253C101.714 140.253 100.474 139.77 99.2725 139.009C98.0636 138.243 96.9254 137.215 95.748 136.151C94.5843 135.1 93.3817 134.012 92.0879 133.192C90.7863 132.367 89.3609 131.792 87.7422 131.792H55.0869C51.4971 131.792 48.5869 128.882 48.5869 125.292V57.3527C48.5871 51.6212 53.2334 46.9749 58.9648 46.9747Z" fill="url(#paint1_radial_2174_9192)" fill-opacity="0.92" stroke="white"/>
<path d="M185.146 24.5144C189.296 28.6645 189.296 35.393 185.146 39.5432L146.753 77.9369C144.847 79.8425 142.398 80.8708 139.904 81.0263L129.529 83.8064C127.299 84.4038 125.257 82.3626 125.855 80.1321L128.634 69.7596C128.789 67.2649 129.817 64.8144 131.724 62.9081L170.117 24.5144C174.268 20.3644 180.996 20.3644 185.146 24.5144Z" fill="url(#paint2_linear_2174_9192)"/>
<path d="M132.463 81.2069C130.59 81.726 129.653 81.9856 129.015 81.72C128.528 81.5171 128.141 81.13 127.938 80.643C127.673 80.0054 127.932 79.0685 128.451 77.1947L129.582 73.1132C129.709 72.6566 129.772 72.4283 129.908 72.3261C130.013 72.2479 130.143 72.2135 130.272 72.2302C130.441 72.252 130.609 72.4195 130.944 72.7546L136.904 78.7142C137.239 79.0493 137.406 79.2168 137.428 79.3858C137.445 79.515 137.41 79.6456 137.332 79.7498C137.23 79.8862 137.002 79.9494 136.545 80.076L132.463 81.2069Z" fill="white"/>
<circle cx="77.5" cy="90.5" r="5.5" fill="white"/>
<circle cx="102.5" cy="90.5" r="5.5" fill="white"/>
<circle cx="127.5" cy="90.5" r="5.5" fill="white"/>
<defs>
<linearGradient id="paint0_linear_2174_9192" x1="36" y1="120.205" x2="172.583" y2="120.205" gradientUnits="userSpaceOnUse">
<stop stop-color="#93DBC3"/>
<stop offset="0.165927" stop-color="#66CDA0"/>
<stop offset="0.491235" stop-color="#43C385"/>
<stop offset="0.814537" stop-color="#65CD9F"/>
<stop offset="1" stop-color="#93DBC3"/>
</linearGradient>
<radialGradient id="paint1_radial_2174_9192" cx="0" cy="0" r="1" gradientUnits="userSpaceOnUse" gradientTransform="translate(107.313 93.6139) rotate(45.3147) scale(66.3016 78.2019)">
<stop stop-color="white"/>
<stop offset="0.503869" stop-color="#F7FEFD"/>
<stop offset="1" stop-color="#DEFCF9"/>
</radialGradient>
<linearGradient id="paint2_linear_2174_9192" x1="137.875" y1="83.5995" x2="175.883" y2="93.9748" gradientUnits="userSpaceOnUse">
<stop stop-color="#22C2B0"/>
<stop offset="1" stop-color="#39D7DF"/>
</linearGradient>
</defs>
</svg>
