<svg width="204" height="180" viewBox="0 0 204 180" fill="none" xmlns="http://www.w3.org/2000/svg">
<mask id="path-1-outside-1_2174_9190" maskUnits="userSpaceOnUse" x="4.77623" y="24.58" width="129.652" height="145.916" fill="black">
<rect fill="white" x="4.77623" y="24.58" width="129.652" height="145.916"/>
<path d="M73.1402 33.441L107.52 53.2895L88.5459 58.3736C88.9522 58.2666 89.3866 58.1503 89.8528 58.0254L107.522 53.2911L129.408 134.973C130.695 139.774 127.845 144.709 123.044 145.996L46.1767 166.592C41.3757 167.879 36.4404 165.029 35.154 160.228L8.33035 60.1212C7.04419 55.3203 9.89353 50.3851 14.6943 49.0985L73.1394 33.4382L73.1402 33.441Z"/>
</mask>
<path d="M73.1402 33.441L72.1743 33.6998L72.2815 34.0999L72.6402 34.307L73.1402 33.441ZM107.52 53.2895L107.779 54.2554L110.111 53.6305L108.02 52.4234L107.52 53.2895ZM88.5459 58.3736L88.2871 57.4077L88.8005 59.3406L88.5459 58.3736ZM89.8528 58.0254L89.594 57.0595V57.0595L89.8528 58.0254ZM107.522 53.2911L108.487 53.0323L108.229 52.0663L107.263 52.3252L107.522 53.2911ZM123.044 145.996L123.303 146.962L123.303 146.962L123.044 145.996ZM46.1767 166.592L46.4355 167.558L46.4355 167.558L46.1767 166.592ZM35.154 160.228L34.1881 160.487L35.154 160.228ZM8.33035 60.1212L7.36441 60.38L7.36442 60.38L8.33035 60.1212ZM14.6943 49.0985L14.4355 48.1326L14.4354 48.1326L14.6943 49.0985ZM73.1394 33.4382L74.1053 33.1793L73.8465 32.2134L72.8806 32.4722L73.1394 33.4382ZM73.1402 33.441L72.6402 34.307L107.02 54.1555L107.52 53.2895L108.02 52.4234L73.6402 32.575L73.1402 33.441ZM107.52 53.2895L107.261 52.3235L88.2871 57.4077L88.5459 58.3736L88.8047 59.3395L107.779 54.2554L107.52 53.2895ZM88.5459 58.3736L88.8005 59.3406C89.2092 59.233 89.6457 59.1162 90.1117 58.9913L89.8528 58.0254L89.594 57.0595C89.1275 57.1845 88.6951 57.3002 88.2913 57.4065L88.5459 58.3736ZM89.8528 58.0254L90.1117 58.9913L107.78 54.257L107.522 53.2911L107.263 52.3252L89.594 57.0595L89.8528 58.0254ZM107.522 53.2911L106.556 53.5499L128.442 135.232L129.408 134.973L130.374 134.714L108.487 53.0323L107.522 53.2911ZM129.408 134.973L128.442 135.232C129.586 139.5 127.053 143.886 122.785 145.03L123.044 145.996L123.303 146.962C128.637 145.532 131.804 140.049 130.374 134.714L129.408 134.973ZM123.044 145.996L122.785 145.03L45.9179 165.626L46.1767 166.592L46.4355 167.558L123.303 146.962L123.044 145.996ZM46.1767 166.592L45.9179 165.626C41.6503 166.77 37.2634 164.237 36.1199 159.97L35.154 160.228L34.1881 160.487C35.6175 165.822 41.1011 168.987 46.4355 167.558L46.1767 166.592ZM35.154 160.228L36.1199 159.97L9.29627 59.8624L8.33035 60.1212L7.36442 60.38L34.1881 160.487L35.154 160.228ZM8.33035 60.1212L9.29629 59.8624C8.15303 55.5949 10.6858 51.2081 14.9532 50.0644L14.6943 49.0985L14.4354 48.1326C9.10125 49.5622 5.93534 55.0456 7.36441 60.38L8.33035 60.1212ZM14.6943 49.0985L14.9531 50.0644L73.3982 34.4041L73.1394 33.4382L72.8806 32.4722L14.4355 48.1326L14.6943 49.0985ZM73.1394 33.4382L72.1735 33.697L72.1743 33.6998L73.1402 33.441L74.1061 33.1822L74.1053 33.1793L73.1394 33.4382Z" fill="white" mask="url(#path-1-outside-1_2174_9190)"/>
<path d="M107.371 52.1141L72.3459 32.4382L77.3284 58.78L80.9022 59.2063L107.371 52.1141Z" fill="white"/>
<path d="M77.0805 46.1088C77.9941 49.5186 78.4511 51.2236 79.4914 52.3256C80.2949 53.1768 81.3303 53.7738 82.4693 54.0441C83.9437 54.3939 85.6487 53.9373 89.0586 53.0236L106.26 48.4144L129.465 135.015C130.751 139.816 127.902 144.751 123.101 146.037L46.2334 166.634C41.4322 167.92 36.4971 165.071 35.2107 160.27L8.32937 59.9477C7.04295 55.1466 9.89228 50.2116 14.6933 48.925L73.6054 33.1396L77.0805 46.1088Z" fill="url(#paint0_radial_2174_9190)" fill-opacity="0.89"/>
<rect x="35.1475" y="87.9061" width="36.0907" height="5.34677" rx="2.67338" transform="rotate(-15 35.1475 87.9061)" fill="white"/>
<rect x="39.9912" y="105.98" width="60.1511" height="5.34677" rx="2.67338" transform="rotate(-15 39.9912 105.98)" fill="white"/>
<rect x="44.834" y="124.056" width="60.1511" height="5.34677" rx="2.67338" transform="rotate(-15 44.834 124.056)" fill="white"/>
<path d="M145.867 37.314C175.085 41.0516 196.075 65.1546 192.75 91.1498C191.266 102.75 185.188 112.763 176.319 119.968L177.034 131.334C177.185 133.745 174.571 135.337 172.499 134.095L162.391 128.041C153.775 131.418 143.972 132.75 133.825 131.452C104.607 127.715 83.616 103.611 86.9412 77.6154C90.2666 51.6201 116.649 33.5766 145.867 37.314Z" fill="url(#paint1_linear_2174_9190)" fill-opacity="0.97"/>
<path d="M145.867 37.314L145.93 36.8181L145.93 36.8181L145.867 37.314ZM192.75 91.1498L193.246 91.2133L193.246 91.2133L192.75 91.1498ZM176.319 119.968L176.004 119.58L175.804 119.742L175.82 119.999L176.319 119.968ZM177.034 131.334L177.533 131.303L177.533 131.303L177.034 131.334ZM172.499 134.095L172.242 134.524L172.242 134.524L172.499 134.095ZM162.391 128.041L162.648 127.612L162.437 127.486L162.209 127.576L162.391 128.041ZM133.825 131.452L133.762 131.948L133.762 131.948L133.825 131.452ZM86.9412 77.6154L86.4452 77.5519L86.4452 77.552L86.9412 77.6154ZM145.867 37.314L145.803 37.81C174.803 41.5197 195.537 65.418 192.254 91.0864L192.75 91.1498L193.246 91.2133C196.613 64.8912 175.366 40.5835 145.93 36.8181L145.867 37.314ZM192.75 91.1498L192.254 91.0864C190.788 102.547 184.783 112.448 176.004 119.58L176.319 119.968L176.634 120.356C185.593 113.079 191.744 102.953 193.246 91.2133L192.75 91.1498ZM176.319 119.968L175.82 119.999L176.535 131.365L177.034 131.334L177.533 131.303L176.818 119.937L176.319 119.968ZM177.034 131.334L176.535 131.365C176.661 133.374 174.483 134.701 172.756 133.666L172.499 134.095L172.242 134.524C174.659 135.972 177.71 134.115 177.533 131.303L177.034 131.334ZM172.499 134.095L172.756 133.666L162.648 127.612L162.391 128.041L162.134 128.47L172.242 134.524L172.499 134.095ZM162.391 128.041L162.209 127.576C153.671 130.922 143.952 132.244 133.889 130.956L133.825 131.452L133.762 131.948C143.992 133.257 153.88 131.914 162.574 128.507L162.391 128.041ZM133.825 131.452L133.889 130.956C104.888 127.247 84.1537 103.348 87.4371 77.6788L86.9412 77.6154L86.4452 77.552C83.0782 103.874 104.326 128.183 133.762 131.948L133.825 131.452ZM86.9412 77.6154L87.4371 77.6788C90.7207 52.0103 116.803 34.1005 145.803 37.81L145.867 37.314L145.93 36.8181C116.494 33.0528 89.8124 51.2298 86.4452 77.5519L86.9412 77.6154Z" fill="#5ADD9E"/>
<path d="M159.001 63.9995C170.599 63.9995 180.001 73.4015 180.001 84.9995C180.001 96.5975 170.599 106 159.001 106H122.001V105.975C110.867 105.453 102.001 96.2622 102.001 84.9995C102.001 73.4015 111.403 63.9995 123.001 63.9995C130.64 63.9995 137.326 68.0786 141.001 74.1772C144.676 68.0786 151.362 63.9995 159.001 63.9995Z" fill="white"/>
<path d="M131.558 95.7683L139.932 87.8347L148.306 95.7683L139.932 106.098L131.558 95.7683Z" fill="#FBED68"/>
<ellipse cx="122.607" cy="84.7745" rx="7.63526" ry="7.68566" fill="#242731"/>
<ellipse cx="119.577" cy="82.5439" rx="2.6228" ry="2.64011" fill="white"/>
<ellipse cx="157.321" cy="84.7745" rx="7.63526" ry="7.68566" fill="#242731"/>
<ellipse cx="154.29" cy="82.5439" rx="2.6228" ry="2.64011" fill="white"/>
<path d="M180.604 34.392C180.109 40.2223 179.137 52.3241 179.207 54.0887L141.394 63.504L141.394 63.505L105.286 48.8488C105.605 47.1118 106.35 34.9938 106.683 29.1521C113.793 30.5523 130.809 37.6812 141.997 54.994C155.514 39.432 173.367 34.7752 180.604 34.392Z" fill="url(#paint2_radial_2174_9190)" fill-opacity="0.93"/>
<path d="M180.604 34.392L181.102 34.4343L181.15 33.8624L180.577 33.8927L180.604 34.392ZM179.207 54.0887L179.328 54.5739L179.723 54.4755L179.707 54.0688L179.207 54.0887ZM141.394 63.504L141.273 63.0188L140.921 63.1065L140.896 63.4686L141.394 63.504ZM141.394 63.505L141.206 63.9683L141.844 64.2273L141.893 63.5403L141.394 63.505ZM105.286 48.8488L104.795 48.7586L104.721 49.159L105.098 49.3121L105.286 48.8488ZM106.683 29.1521L106.779 28.6615L106.216 28.5506L106.183 29.1237L106.683 29.1521ZM141.997 54.994L141.577 55.2654L141.938 55.8242L142.374 55.3219L141.997 54.994ZM180.604 34.392L180.105 34.3498C179.858 37.266 179.491 41.7508 179.195 45.7279C178.9 49.6822 178.671 53.1894 178.708 54.1086L179.207 54.0887L179.707 54.0688C179.673 53.2234 179.895 49.7974 180.192 45.8021C180.488 41.8295 180.855 37.3483 181.102 34.4343L180.604 34.392ZM179.207 54.0887L179.087 53.6035L141.273 63.0188L141.394 63.504L141.515 63.9892L179.328 54.5739L179.207 54.0887ZM141.394 63.504L140.896 63.4686L140.895 63.4696L141.394 63.505L141.893 63.5403L141.893 63.5394L141.394 63.504ZM141.394 63.505L141.582 63.0417L105.474 48.3855L105.286 48.8488L105.098 49.3121L141.206 63.9683L141.394 63.505ZM105.286 48.8488L105.778 48.939C105.944 48.0341 106.212 44.5296 106.478 40.5733C106.746 36.5942 107.015 32.1025 107.182 29.1805L106.683 29.1521L106.183 29.1237C106.017 32.0434 105.748 36.5315 105.48 40.5061C105.211 44.5034 104.947 47.9264 104.795 48.7586L105.286 48.8488ZM106.683 29.1521L106.586 29.6427C113.588 31.0216 130.475 38.086 141.577 55.2654L141.997 54.994L142.416 54.7227C131.143 37.2763 113.998 30.083 106.779 28.6615L106.683 29.1521ZM141.997 54.994L142.374 55.3219C155.788 39.8799 173.504 35.2687 180.63 34.8913L180.604 34.392L180.577 33.8927C173.23 34.2817 155.241 38.9841 141.619 54.6661L141.997 54.994Z" fill="#278655"/>
<defs>
<radialGradient id="paint0_radial_2174_9190" cx="0" cy="0" r="1" gradientTransform="matrix(55.2604 48.1583 -28.7632 81.1624 71.1489 96.5487)" gradientUnits="userSpaceOnUse">
<stop stop-color="white"/>
<stop offset="0.503869" stop-color="#F7FEFD"/>
<stop offset="1" stop-color="#DEFCF9"/>
</radialGradient>
<linearGradient id="paint1_linear_2174_9190" x1="122.111" y1="34.2753" x2="173.748" y2="178.522" gradientUnits="userSpaceOnUse">
<stop stop-color="#48C281"/>
<stop offset="1" stop-color="#58D4C5"/>
</linearGradient>
<radialGradient id="paint2_radial_2174_9190" cx="0" cy="0" r="1" gradientUnits="userSpaceOnUse" gradientTransform="translate(141.001 54.9998) rotate(62.5603) scale(29.2959 68.2441)">
<stop stop-color="#155848"/>
<stop offset="1" stop-color="#278655"/>
</radialGradient>
</defs>
</svg>
