<svg width="204" height="180" viewBox="0 0 204 180" fill="none" xmlns="http://www.w3.org/2000/svg">
<path d="M145.001 96.3486L139.134 140L93.0536 169L45.6338 142L40.001 95.7982L40.2579 95.9444L40.0107 95.5241L92.3704 65L145.001 96.3486Z" fill="#48E0A2"/>
<rect x="120.391" y="16.0586" width="61.3369" height="57.0055" transform="rotate(30.1057 120.391 16.0586)" fill="url(#paint0_linear_2174_9191)"/>
<path d="M118.498 9.49979C118.231 8.63113 119.168 7.88585 119.954 8.34065L167.278 35.7004C169.813 37.166 171.659 39.5819 172.407 42.413L173.571 46.8155L120.508 16.0491L118.498 9.49979Z" fill="url(#paint1_linear_2174_9191)"/>
<rect x="62.4375" y="142.094" width="26.7615" height="6.42275" rx="3.21137" transform="rotate(-21.3049 62.4375 142.094)" fill="url(#paint2_linear_2174_9191)"/>
<path d="M72.1416 146.354L83.1119 142.076V142.076C84.1859 144.83 82.8241 147.933 80.0701 149.007L79.0728 149.396C76.3188 150.47 73.2156 149.108 72.1416 146.354V146.354Z" fill="url(#paint3_linear_2174_9191)"/>
<path d="M59.8124 99.6753C70.6807 95.437 82.928 100.812 87.1665 111.68C89.8852 118.652 88.6473 126.19 84.5423 131.818L63.3725 140.074C56.5411 138.711 50.5273 134.001 47.8084 127.029C43.5701 116.161 48.9442 103.914 59.8124 99.6753ZM66.7621 113.862C66.1092 112.927 64.6419 113.5 64.7941 114.629L65.2131 117.739C65.2673 118.142 65.0911 118.542 64.7577 118.775L62.1858 120.571C61.2511 121.224 61.8238 122.692 62.9536 122.54L66.0627 122.121C66.4659 122.067 66.8667 122.242 67.0997 122.576L68.8962 125.148C69.5491 126.082 71.0157 125.51 70.8641 124.38L70.4451 121.271C70.3907 120.868 70.5665 120.467 70.9002 120.234L73.4721 118.438C74.4064 117.785 73.8338 116.317 72.7043 116.469L69.5952 116.888C69.1921 116.942 68.7917 116.767 68.5586 116.434L66.7621 113.862Z" fill="url(#paint4_linear_2174_9191)"/>
<path d="M146.065 86.5283C147.576 87.4087 148.017 89.3907 147.021 90.8287L130.743 114.345L130.743 114.345L121.137 140.075C120.27 142.399 117.519 143.381 115.377 142.133L68.8976 115.056C66.7658 113.814 66.2557 110.956 67.8264 109.053L85.3097 87.8754L85.3106 87.8759L97.7386 62.1178C98.4986 60.5427 100.44 59.9493 101.951 60.8297L146.065 86.5283Z" fill="#F8FDFB" fill-opacity="0.92"/>
<path d="M66.1328 111.148L120.139 142.611C119.587 143.557 118.372 143.878 117.425 143.326L66.8485 113.861C65.9016 113.31 65.5812 112.095 66.1328 111.148Z" fill="url(#paint5_linear_2174_9191)"/>
<path d="M98.8406 63.2426C99.3445 62.1878 100.642 61.7883 101.652 62.3767L145.248 87.7745C146.263 88.3662 146.552 89.702 145.872 90.6605L130.608 112.158C130.008 113.002 128.864 113.249 127.97 112.728L88.2799 89.6059C87.3802 89.0817 87.0332 87.955 87.4821 87.0155L98.8406 63.2426Z" fill="url(#paint6_linear_2174_9191)"/>
<path d="M88.4912 111.834L108.269 123.355C109.02 123.793 109.337 124.718 109.01 125.524L106.761 131.074C106.362 132.059 105.182 132.464 104.262 131.931L82.1464 119.118C81.1284 118.528 80.9706 117.122 81.8329 116.321L86.4201 112.064C86.9847 111.539 87.8255 111.446 88.4912 111.834Z" fill="#C7DADC" stroke="#C7DADC" stroke-width="0.5"/>
<path d="M85.5764 91.0195C86.2103 90.3164 87.2505 90.1541 88.0685 90.6307L127.514 113.61C128.369 114.109 128.731 115.157 128.366 116.077L123.561 128.168C123.109 129.304 121.752 129.773 120.696 129.157L77.2534 103.849C76.1566 103.21 75.9248 101.724 76.7747 100.782L85.5764 91.0195Z" fill="#616B6C"/>
<path d="M93.001 126.233C93.001 126.09 93.0773 125.958 93.2011 125.886L144.393 96.3507C144.662 96.1959 144.996 96.3919 144.993 96.7018L144.45 144.114C144.449 144.251 144.377 144.378 144.26 144.45L93.6106 175.625C93.3441 175.789 93.001 175.597 93.001 175.284V126.233Z" fill="white" fill-opacity="0.71" stroke="white"/>
<path d="M40.001 95.6942C40.001 95.386 40.3349 95.1936 40.6016 95.3482L92.8016 125.609C92.925 125.68 93.001 125.812 93.001 125.955V175.299C93.001 175.609 92.6643 175.801 92.3977 175.644L40.1977 144.833C40.0758 144.761 40.001 144.63 40.001 144.489V95.6942Z" fill="white" fill-opacity="0.71" stroke="white"/>
<mask id="mask0_2174_9191" style="mask-type:alpha" maskUnits="userSpaceOnUse" x="55" y="16" width="56" height="56">
<rect x="75.5903" y="16.8971" width="39.9251" height="39.9251" transform="rotate(29.5543 75.5903 16.8971)" fill="white" stroke="white" stroke-width="0.2"/>
</mask>
<g mask="url(#mask0_2174_9191)">
<path d="M92.1066 33.7671C92.6469 33.7872 93.1073 34.0006 93.4825 34.4035C93.8581 34.8069 94.0374 35.282 94.0171 35.8226C93.9995 36.2953 93.8344 36.7069 93.5234 37.0537L93.3807 37.1984L75.5337 53.9074L75.5333 53.9082C75.1301 54.2836 74.6558 54.4627 74.1155 54.4425C73.5751 54.4225 73.115 54.209 72.7397 53.8061C72.3641 53.4027 72.1843 52.9283 72.2046 52.3879C72.2246 51.8474 72.438 51.3873 72.841 51.012L90.6876 34.3017L90.6884 34.3022C91.0917 33.9267 91.5662 33.7468 92.1066 33.7671ZM78.3934 32.3005C78.8562 32.563 79.1626 32.9669 79.3115 33.5048C79.4601 34.0436 79.3998 34.5516 79.1295 35.0215C78.8595 35.4905 78.4555 35.8027 77.9231 35.9552L77.9218 35.9556L71.7469 37.661L73.4532 43.8364L73.4548 43.8395C73.5783 44.3641 73.5111 44.8662 73.2548 45.3405C72.9967 45.818 72.5947 46.1323 72.0555 46.2815C71.5176 46.43 71.0152 46.3753 70.555 46.1144C70.0948 45.8535 69.7901 45.4504 69.6412 44.9126L67.3915 36.799C67.243 36.2606 67.2999 35.7549 67.5639 35.2892C67.828 34.8237 68.2324 34.5158 68.7706 34.3669L76.8887 32.131C77.4267 31.9827 77.9306 32.0381 78.3934 32.3005ZM95.6672 42.0952C96.1273 42.3561 96.4321 42.7593 96.581 43.297L98.8302 51.4114L98.8761 51.6115C98.9613 52.0752 98.8892 52.5129 98.6582 52.9204C98.3942 53.3861 97.9894 53.6946 97.4511 53.8435L89.3335 56.0786C88.7953 56.2271 88.2917 56.1715 87.8288 55.909C87.3658 55.6465 87.0596 55.2429 86.9107 54.7048C86.762 54.1658 86.8222 53.6581 87.0927 53.188C87.3627 52.719 87.7665 52.4068 88.2991 52.2544L88.2999 52.2548L94.4744 50.5481L92.7681 44.3727C92.6256 43.8373 92.6873 43.3314 92.9543 42.8605C93.2216 42.389 93.628 42.0771 94.1667 41.928C94.7045 41.7797 95.207 41.8343 95.6672 42.0952Z" fill="white" stroke="white" stroke-width="0.2"/>
</g>
<path d="M64.4713 48.8329C74.353 43.8069 82.7675 57.6662 73.7494 64.1148C70.1439 66.6931 68.964 71.5196 70.9735 75.4705C75.9995 85.3522 62.1403 93.7667 55.6916 84.7487C53.1133 81.1431 48.2869 79.9632 44.336 81.9727C34.4542 86.9988 26.0398 73.1395 35.0578 66.6908C38.6634 64.1125 39.8432 59.2861 37.8337 55.3352C32.8077 45.4534 46.667 37.039 53.1156 46.057C55.6939 49.6626 60.5204 50.8424 64.4713 48.8329Z" fill="url(#paint7_linear_2174_9191)" fill-opacity="0.96"/>
<defs>
<linearGradient id="paint0_linear_2174_9191" x1="120.391" y1="16.3896" x2="177.936" y2="76.3703" gradientUnits="userSpaceOnUse">
<stop stop-color="#64E8CB"/>
<stop offset="1" stop-color="#48E0A2"/>
</linearGradient>
<linearGradient id="paint1_linear_2174_9191" x1="142.134" y1="13" x2="116.134" y2="81" gradientUnits="userSpaceOnUse">
<stop stop-color="#3FBAA8"/>
<stop offset="0.503696" stop-color="#1C544C"/>
</linearGradient>
<linearGradient id="paint2_linear_2174_9191" x1="75.8182" y1="142.094" x2="75.8182" y2="148.517" gradientUnits="userSpaceOnUse">
<stop stop-color="#22C2B0"/>
<stop offset="1" stop-color="#11AFDB"/>
</linearGradient>
<linearGradient id="paint3_linear_2174_9191" x1="77.6268" y1="144.215" x2="79.5714" y2="149.201" gradientUnits="userSpaceOnUse">
<stop stop-color="#22C2B0"/>
<stop offset="1" stop-color="#11AFDB"/>
</linearGradient>
<linearGradient id="paint4_linear_2174_9191" x1="59.8128" y1="99.6751" x2="73.9579" y2="135.946" gradientUnits="userSpaceOnUse">
<stop stop-color="#22C2B0"/>
<stop offset="1" stop-color="#11AFDB"/>
</linearGradient>
<linearGradient id="paint5_linear_2174_9191" x1="93.1357" y1="126.879" x2="92.1369" y2="128.594" gradientUnits="userSpaceOnUse">
<stop stop-color="#88F3C3"/>
<stop offset="1" stop-color="#216750"/>
</linearGradient>
<linearGradient id="paint6_linear_2174_9191" x1="87.5449" y1="89.1777" x2="147.39" y2="91.8931" gradientUnits="userSpaceOnUse">
<stop/>
<stop offset="0.7"/>
<stop offset="1" stop-color="#666666"/>
</linearGradient>
<linearGradient id="paint7_linear_2174_9191" x1="76.1978" y1="52.1709" x2="32.6095" y2="78.6348" gradientUnits="userSpaceOnUse">
<stop stop-color="white"/>
<stop offset="1" stop-color="#92F5FF"/>
</linearGradient>
</defs>
</svg>
