<svg width="135" height="121" viewBox="0 0 135 121" fill="none" xmlns="http://www.w3.org/2000/svg">
<path d="M95.4596 22.6597C95.952 22.8048 96.4113 23.0453 96.8107 23.3678C97.21 23.6903 97.5422 24.0883 97.7877 24.539C98.0332 24.9897 98.187 25.4847 98.2414 25.9951C98.2958 26.5054 98.2485 27.0218 98.1034 27.5141C97.9583 28.0063 97.718 28.4651 97.3957 28.8642L42.8214 96.374C42.3171 96.9984 41.6328 97.4528 40.8615 97.6747C40.0902 97.8966 39.2693 97.8751 38.5103 97.6142C38.0811 97.4669 37.6799 97.2479 37.3249 96.9652L37.3243 96.9639C36.9245 96.6414 36.5921 96.2434 36.3463 95.7924C36.1005 95.3412 35.9453 94.8457 35.8911 94.3348C35.8369 93.824 35.8848 93.3077 36.0303 92.8151C36.1759 92.3224 36.4173 91.8631 36.7405 91.4638L91.3139 23.9537C91.6363 23.5544 92.0344 23.2222 92.4851 22.9767C92.9358 22.7312 93.4308 22.5774 93.9412 22.523C94.4514 22.4687 94.9674 22.5147 95.4596 22.6597ZM43.6503 29.332C44.6195 28.9637 45.6957 28.9955 46.6415 29.4204C47.587 29.8453 48.3254 30.6283 48.6937 31.5973C49.0621 32.5665 49.0302 33.6427 48.6054 34.5884C48.1805 35.534 47.3969 36.2711 46.4279 36.6395L23.7452 45.2735L36.3279 66.0275L36.327 66.0272C36.6041 66.4655 36.7913 66.9546 36.8775 67.4659C36.9639 67.9782 36.9472 68.5026 36.8285 69.0084C36.7098 69.5142 36.4914 69.9915 36.1861 70.4119C35.8807 70.8324 35.4944 71.1884 35.05 71.4578C34.6057 71.7272 34.1117 71.9056 33.5977 71.982C33.0838 72.0583 32.5598 72.0311 32.0564 71.9025C31.5529 71.7738 31.08 71.5459 30.6655 71.2323C30.2512 70.9188 29.9036 70.5259 29.6429 70.0764L29.6433 70.0755L14.63 45.3127C14.3331 44.8229 14.1474 44.2735 14.0863 43.7039C14.0252 43.1344 14.0898 42.5584 14.2759 42.0167C14.4621 41.475 14.7656 40.9802 15.164 40.5685C15.5623 40.1571 16.0464 39.8387 16.5815 39.6349L43.6503 29.332ZM102.079 48.475C102.578 48.597 103.048 48.816 103.461 49.1194C103.876 49.423 104.226 49.8053 104.493 50.2442L119.507 75.0116C119.804 75.5013 119.99 76.0501 120.051 76.6195C120.113 77.1891 120.047 77.7656 119.861 78.3073C119.674 78.8489 119.372 79.3433 118.974 79.7549C118.575 80.1665 118.091 80.4856 117.556 80.6895L90.4903 90.9893C90.0083 91.1836 89.4924 91.2806 88.9728 91.2732C88.4534 91.2656 87.9407 91.1549 87.4647 90.9469C86.9885 90.7388 86.5578 90.438 86.1994 90.0617C85.841 89.6856 85.5619 89.2413 85.3771 88.7558C85.1922 88.27 85.1055 87.7515 85.1232 87.2321C85.1409 86.7129 85.262 86.2021 85.4794 85.7302C85.6967 85.2584 86.006 84.8345 86.389 84.4836C86.7713 84.1334 87.2199 83.8626 87.7077 83.6873L110.39 75.0543L97.8083 54.3005C97.2704 53.4142 97.1068 52.3506 97.3531 51.3436C97.5995 50.3364 98.236 49.4681 99.1223 48.9302C99.5611 48.6639 100.048 48.4867 100.555 48.4086C101.063 48.3305 101.581 48.353 102.079 48.475Z" fill="url(#paint0_linear_1999_4103)" stroke="white" stroke-width="0.4"/>
<defs>
<linearGradient id="paint0_linear_1999_4103" x1="6.88758" y1="64.1283" x2="126.065" y2="72.6836" gradientUnits="userSpaceOnUse">
<stop stop-color="#D7FFC3"/>
<stop offset="1" stop-color="#5FD27D"/>
</linearGradient>
</defs>
</svg>
