<svg width="94" height="98" viewBox="0 0 94 98" fill="none" xmlns="http://www.w3.org/2000/svg">
<path d="M88.372 55.0071C95.7678 46.705 95.0485 33.9637 86.7636 26.5482L63.3772 5.62413C55.0904 -1.79189 42.377 -1.07338 34.9785 7.2291L17.0107 27.387L17.0379 27.4162C13.2499 32.0213 10.9572 36.6561 10.4493 41.4054C9.87687 46.7626 11.6464 51.571 14.7542 55.8185C15.1206 56.3206 15.281 56.9694 15.2109 57.5697C15.1429 58.1481 14.889 58.5255 14.5821 58.7421C9.94364 62.016 4.51452 66.6914 1.97127 72.4161C0.643738 75.4044 0.0449984 78.808 0.895216 82.4015C1.73936 85.9677 3.9006 89.2494 7.2249 92.2244C10.4968 95.1518 13.9389 96.9208 17.527 97.2856C21.1666 97.655 24.38 96.5187 27.0397 94.7098C32.0917 91.2735 35.6684 85.0565 38.0454 79.8513C38.2121 79.4863 38.559 79.1684 39.1024 79.0234C39.661 78.875 40.2557 78.9664 40.7153 79.26C45.7487 82.4756 51.0484 84.2097 56.625 83.2668C61.6193 82.4222 66.1277 79.5441 70.3724 75.1463L70.4044 75.1701L88.372 55.0071ZM63.7413 69.212C60.4091 72.5975 57.5847 74.0732 55.1425 74.4861C52.459 74.9394 49.3951 74.2503 45.4882 71.7543C40.2768 68.4245 32.7441 70.0756 29.9713 76.1442C27.6952 81.1284 24.9546 85.3725 22.055 87.3458C20.7391 88.2408 19.5661 88.5491 18.4166 88.4323C17.2152 88.3095 15.4587 87.6657 13.1353 85.5864C10.7945 83.4915 9.86088 81.7137 9.53824 80.3512C9.22235 79.0167 9.38562 77.6172 10.0866 76.039C11.6012 72.6296 15.3178 69.1147 19.7 66.0217C24.9509 62.3157 25.2615 55.1314 21.9124 50.5541C19.7728 47.6292 19.0009 44.99 19.2824 42.3554C19.5419 39.9284 20.7548 36.9637 23.669 33.3505L63.7413 69.212Z" fill="url(#paint0_linear_1999_4093)" stroke="white" stroke-opacity="0.22"/>
<defs>
<linearGradient id="paint0_linear_1999_4093" x1="48.9936" y1="95.6754" x2="43.6332" y2="0.826703" gradientUnits="userSpaceOnUse">
<stop stop-color="#3993DF"/>
<stop offset="1" stop-color="#C0FFB4"/>
</linearGradient>
</defs>
</svg>
