<svg width="183" height="54" viewBox="0 0 183 54" fill="none" xmlns="http://www.w3.org/2000/svg">
<rect width="183" height="54" rx="27" fill="url(#paint0_linear_1999_4106)"/>
<path d="M20.5362 37V16.28H27.9842C34.5642 16.28 38.5682 20.508 38.5682 26.64C38.5682 32.772 34.5642 37 27.9842 37H20.5362ZM24.0642 33.64H27.9842C32.4082 33.64 34.8722 30.84 34.8722 26.64C34.8722 22.412 32.4082 19.64 27.9842 19.64H24.0642V33.64ZM48.8084 37.336C43.5444 37.336 40.6324 34.032 40.6324 29.188C40.6324 24.456 43.4884 21.04 48.4164 21.04C53.2884 21.04 55.8364 24.344 55.8364 29.188C55.8364 29.748 55.7804 30.168 55.6964 30.7H44.3284C44.5804 33.052 46.6524 34.256 49.0604 34.256C51.0764 34.256 52.3084 33.864 53.9324 32.996L55.2204 35.712C53.5124 36.776 51.5804 37.336 48.8084 37.336ZM44.4124 27.956H52.3364C52.2524 25.52 51.0204 24.12 48.4164 24.12C45.9524 24.12 44.4124 25.576 44.4124 27.956ZM63.8614 37L56.7214 21.376H60.4734L63.6094 28.824C64.1414 30.084 64.6174 31.26 65.0374 32.324C65.4574 31.26 65.9894 30.028 66.4934 28.88L69.6854 21.376H73.4094L66.2694 37H63.8614ZM82.4685 37.336C77.2045 37.336 74.2925 34.032 74.2925 29.188C74.2925 24.456 77.1485 21.04 82.0765 21.04C86.9485 21.04 89.4965 24.344 89.4965 29.188C89.4965 29.748 89.4405 30.168 89.3565 30.7H77.9885C78.2405 33.052 80.3125 34.256 82.7205 34.256C84.7365 34.256 85.9685 33.864 87.5925 32.996L88.8805 35.712C87.1725 36.776 85.2405 37.336 82.4685 37.336ZM78.0725 27.956H85.9965C85.9125 25.52 84.6805 24.12 82.0765 24.12C79.6125 24.12 78.0725 25.576 78.0725 27.956ZM96.2485 37.336C94.7645 37.336 92.5245 36.524 92.5245 33.304V16.84L95.9405 15.944V32.408C95.9405 33.668 96.3885 34.032 97.3685 34.032C97.8165 34.032 98.2925 33.864 98.9365 33.304V36.356C98.5445 36.832 97.5085 37.336 96.2485 37.336ZM108.42 37.336C102.82 37.336 100.132 34.032 100.132 29.188C100.132 24.344 102.82 21.04 108.42 21.04C114.02 21.04 116.708 24.344 116.708 29.188C116.708 34.032 114.02 37.336 108.42 37.336ZM108.42 34.032C111.836 34.032 113.124 32.128 113.124 29.188C113.124 26.248 111.836 24.344 108.42 24.344C105.004 24.344 103.716 26.248 103.716 29.188C103.716 32.128 105.004 34.032 108.42 34.032ZM128.243 21.04C132.275 21.04 135.215 23.784 135.215 28.852C135.215 34.116 131.799 37.336 126.675 37.336C125.527 37.336 124.295 37.112 123.147 36.748V42.6H119.731V21.376H122.699L122.979 23.98C124.155 21.824 126.367 21.04 128.243 21.04ZM126.787 34.368C130.175 34.368 131.631 32.072 131.631 28.852C131.631 25.856 130.231 24.064 127.571 24.064C124.715 24.064 123.147 26.36 123.147 29.216V33.668C124.043 34.144 125.079 34.368 126.787 34.368ZM145.523 37.336C140.259 37.336 137.347 34.032 137.347 29.188C137.347 24.456 140.203 21.04 145.131 21.04C150.003 21.04 152.551 24.344 152.551 29.188C152.551 29.748 152.495 30.168 152.411 30.7H141.043C141.295 33.052 143.367 34.256 145.775 34.256C147.791 34.256 149.023 33.864 150.647 32.996L151.935 35.712C150.227 36.776 148.295 37.336 145.523 37.336ZM141.127 27.956H149.051C148.967 25.52 147.735 24.12 145.131 24.12C142.667 24.12 141.127 25.576 141.127 27.956ZM155.579 37V21.376H158.491L158.771 24.092C159.947 21.768 161.627 21.012 163.559 21.012C163.839 21.012 164.483 21.068 164.987 21.236V24.82C163.979 24.54 163.111 24.54 162.803 24.54C160.395 24.54 158.995 26.416 158.995 29.216V37H155.579Z" fill="white"/>
<defs>
<linearGradient id="paint0_linear_1999_4106" x1="0" y1="27" x2="183" y2="27" gradientUnits="userSpaceOnUse">
<stop stop-color="#22C2B0"/>
<stop offset="1" stop-color="#3993DF"/>
</linearGradient>
</defs>
</svg>
