<svg width="48" height="48" viewBox="0 0 48 48" fill="none" xmlns="http://www.w3.org/2000/svg">
<path fill-rule="evenodd" clip-rule="evenodd" d="M23.9917 1.19995C18.3296 1.20289 12.8532 3.20828 8.54174 6.85752C4.23025 10.5068 1.36481 15.5619 0.457782 21.1191C-0.449248 26.6762 0.661271 32.3729 3.59079 37.1906C6.52031 42.0084 11.0778 45.6329 16.4483 47.4161C17.6331 47.636 18.0794 46.9017 18.0794 46.2773C18.0794 45.6529 18.0557 43.8426 18.0478 41.8634C11.4128 43.2968 10.0108 39.0635 10.0108 39.0635C8.92863 36.3147 7.36466 35.5921 7.36466 35.5921C5.20039 34.1234 7.5266 34.1509 7.5266 34.1509C9.92389 34.3198 11.1838 36.5974 11.1838 36.5974C13.3085 40.222 16.7642 39.1735 18.1228 38.5609C18.3361 37.0254 18.9562 35.9809 19.6394 35.3879C14.3393 34.791 8.77065 32.7569 8.77065 23.6699C8.7378 21.3133 9.61731 19.0342 11.2272 17.3043C10.9823 16.7074 10.1648 14.2963 11.4602 11.0212C11.4602 11.0212 13.4626 10.3851 18.0202 13.452C21.9294 12.389 26.0539 12.389 29.9632 13.452C34.5168 10.3851 36.5152 11.0212 36.5152 11.0212C37.8146 14.2884 36.9971 16.6996 36.7522 17.3043C38.3672 19.0345 39.2485 21.3175 39.2127 23.6778C39.2127 32.7843 33.6322 34.791 28.3242 35.3761C29.1772 36.1144 29.9395 37.5556 29.9395 39.7704C29.9395 42.9433 29.9118 45.4959 29.9118 46.2773C29.9118 46.9095 30.3423 47.6478 31.5508 47.4161C36.922 45.6327 41.4799 42.0075 44.4093 37.189C47.3388 32.3704 48.4488 26.6728 47.5407 21.1152C46.6326 15.5575 43.7658 10.5023 39.4529 6.85371C35.1399 3.20509 29.6623 1.20103 23.9996 1.19995H23.9917Z" fill="#959AA3"/>
<path d="M9.17286 35.2505C9.12152 35.3683 8.93195 35.4036 8.77792 35.3212C8.62389 35.2387 8.50937 35.0856 8.56466 34.9638C8.61995 34.8421 8.80558 34.8107 8.9596 34.8931C9.11363 34.9756 9.2321 35.1327 9.17286 35.2505Z" fill="white"/>
<path d="M10.1405 36.3225C10.0588 36.3635 9.96518 36.3749 9.87585 36.3549C9.78651 36.3348 9.70697 36.2845 9.65082 36.2126C9.4968 36.0476 9.46518 35.8199 9.58367 35.7178C9.70215 35.6157 9.91543 35.6628 10.0695 35.8277C10.2235 35.9927 10.259 36.2204 10.1405 36.3225Z" fill="white"/>
<path d="M11.0806 37.6851C10.9344 37.7872 10.6856 37.6851 10.5474 37.4809C10.5092 37.4442 10.4788 37.4003 10.458 37.3517C10.4372 37.3032 10.4265 37.2509 10.4265 37.1981C10.4265 37.1453 10.4372 37.0931 10.458 37.0445C10.4788 36.9959 10.5092 36.952 10.5474 36.9154C10.6935 36.8172 10.9423 36.9154 11.0806 37.1157C11.2188 37.3159 11.2227 37.583 11.0806 37.6851V37.6851Z" fill="white"/>
<path d="M12.3562 39.0046C12.2258 39.1499 11.9612 39.1106 11.744 38.9143C11.5268 38.718 11.4754 38.4509 11.6058 38.3096C11.7361 38.1682 12.0007 38.2075 12.2258 38.3999C12.451 38.5923 12.4944 38.8633 12.3562 39.0046V39.0046Z" fill="white"/>
<path d="M14.1452 39.7742C14.0859 39.9588 13.8174 40.0412 13.5488 39.9627C13.2802 39.8842 13.1025 39.6642 13.1539 39.4758C13.2052 39.2873 13.4777 39.2009 13.7502 39.2873C14.0227 39.3737 14.1965 39.5818 14.1452 39.7742Z" fill="white"/>
<path d="M16.0964 39.9079C16.0964 40.1003 15.8752 40.2653 15.5909 40.2692C15.3065 40.2731 15.0735 40.116 15.0735 39.9236C15.0735 39.7312 15.2946 39.5663 15.579 39.5623C15.8634 39.5584 16.0964 39.7116 16.0964 39.9079Z" fill="white"/>
<path d="M17.913 39.6053C17.9486 39.7977 17.7511 39.998 17.4668 40.0451C17.1824 40.0923 16.9336 39.9784 16.898 39.7899C16.8625 39.6014 17.0679 39.3972 17.3443 39.3462C17.6208 39.2951 17.8775 39.4129 17.913 39.6053Z" fill="white"/>
</svg>
