<svg width="48" height="48" viewBox="0 0 48 48" fill="none" xmlns="http://www.w3.org/2000/svg">
<path fill-rule="evenodd" clip-rule="evenodd" d="M14 6C9.58172 6 6 9.58172 6 14V34C6 38.4183 9.58172 42 14 42H34C38.4183 42 42 38.4183 42 34V14C42 9.58172 38.4183 6 34 6H14ZM2 14C2 7.37258 7.37258 2 14 2H34C40.6274 2 46 7.37258 46 14V34C46 40.6274 40.6274 46 34 46H14C7.37258 46 2 40.6274 2 34V14ZM24.9666 17.9784C23.7183 17.7933 22.4433 18.0065 21.3231 18.5877C20.2029 19.169 19.2945 20.0886 18.7271 21.2159C18.1597 22.3432 17.9622 23.6207 18.1627 24.8667C18.3632 26.1127 18.9515 27.2637 19.8439 28.1561C20.7363 29.0485 21.8873 29.6368 23.1333 29.8373C24.3793 30.0378 25.6568 29.8403 26.7841 29.2729C27.9114 28.7055 28.831 27.7971 29.4123 26.6769C29.9935 25.5567 30.2067 24.2817 30.0216 23.0334C29.8328 21.76 29.2394 20.5811 28.3292 19.6708C27.4189 18.7606 26.24 18.1672 24.9666 17.9784ZM19.4808 15.0372C21.3478 14.0685 23.4727 13.7131 25.5534 14.0216C27.6757 14.3363 29.6405 15.3253 31.1576 16.8424C32.6747 18.3595 33.6637 20.3243 33.9784 22.4466C34.2869 24.5272 33.9315 26.6522 32.9628 28.5192C31.994 30.3862 30.4612 31.9002 28.5824 32.8458C26.7036 33.7915 24.5745 34.1206 22.4978 33.7865C20.4212 33.4523 18.5028 32.4718 17.0155 30.9845C15.5282 29.4972 14.5477 27.5788 14.2135 25.5022C13.8794 23.4255 14.2085 21.2964 15.1542 19.4176C16.0998 17.5388 17.6138 16.006 19.4808 15.0372ZM35 11C33.8954 11 33 11.8954 33 13C33 14.1046 33.8954 15 35 15H35.02C36.1246 15 37.02 14.1046 37.02 13C37.02 11.8954 36.1246 11 35.02 11H35Z" fill="white"/>
</svg>
