<svg width="183" height="54" viewBox="0 0 183 54" fill="none" xmlns="http://www.w3.org/2000/svg">
<rect width="183" height="54" rx="27" fill="url(#paint0_linear_1999_4108)"/>
<path d="M26.5382 37V16.28H30.0662V33.584H39.9502V37H26.5382ZM49.7517 37.336C44.4877 37.336 41.5757 34.032 41.5757 29.188C41.5757 24.456 44.4317 21.04 49.3597 21.04C54.2317 21.04 56.7797 24.344 56.7797 29.188C56.7797 29.748 56.7237 30.168 56.6397 30.7H45.2717C45.5237 33.052 47.5957 34.256 50.0037 34.256C52.0197 34.256 53.2517 33.864 54.8757 32.996L56.1637 35.712C54.4557 36.776 52.5237 37.336 49.7517 37.336ZM45.3557 27.956H53.2797C53.1957 25.52 51.9637 24.12 49.3597 24.12C46.8957 24.12 45.3557 25.576 45.3557 27.956ZM65.5197 37.336C62.7477 37.336 60.4237 35.908 60.4237 31.624V24.568H58.1557V22.188L60.4237 21.376L61.2637 18.072H63.8397V21.376H68.9357V24.568H63.8397V31.568C63.8397 33.472 64.5957 34.088 66.3317 34.088C67.1997 34.088 67.8997 33.948 68.6557 33.612V36.664C67.9837 37.084 66.5277 37.336 65.5197 37.336ZM71.8415 20.396V16.28H75.7335V19.976L74.0535 24.54H72.3455L73.5775 20.396H71.8415ZM83.4173 37.336C81.4013 37.336 79.1333 37.112 77.2853 35.684L78.8813 32.8C80.3933 33.864 82.0173 34.032 83.4173 34.032C85.2653 34.032 86.2733 33.388 86.2733 32.52C86.2733 31.4 84.5933 30.98 83.1933 30.672C80.2533 30 77.7613 28.908 77.7613 25.66C77.7613 22.86 79.8333 21.04 83.5013 21.04C85.0413 21.04 87.0853 21.264 89.0733 22.384L87.8413 25.156C86.4133 24.568 84.5933 24.344 83.5013 24.344C81.9613 24.344 81.2333 24.848 81.2333 25.604C81.2333 26.612 82.4653 26.948 83.9773 27.312C87.1693 28.096 89.7453 29.188 89.7453 32.436C89.7453 35.376 87.4213 37.336 83.4173 37.336ZM108.731 37.336C102.067 37.336 98.2033 32.996 98.2033 26.64C98.2033 20.256 102.067 15.944 108.731 15.944C111.391 15.944 114.079 16.784 115.759 18.1L114.051 21.096C112.259 19.808 110.299 19.36 108.731 19.36C104.363 19.36 101.899 22.356 101.899 26.64C101.899 30.924 104.363 33.92 108.731 33.92C110.691 33.92 112.875 33.024 114.415 31.428L116.543 34.284C114.779 36.104 111.923 37.336 108.731 37.336ZM130.088 37H119.644V16.28H129.332C133 16.28 135.632 18.548 135.632 21.908C135.632 23.728 135.1 24.988 133.42 26.136C135.268 26.948 136.64 28.712 136.64 31.12C136.64 34.928 133.896 37 130.088 37ZM123.172 19.64V24.792H129.332C130.788 24.792 131.964 23.952 131.964 22.188C131.964 20.48 130.788 19.64 129.332 19.64H123.172ZM123.172 28.04V33.64H130.088C131.74 33.64 132.972 32.632 132.972 30.84C132.972 29.048 131.74 28.04 130.088 28.04H123.172ZM148.804 37.336C143.232 37.336 139.956 33.78 139.956 27.9V16.28H143.484V27.9C143.484 31.68 145.444 33.92 148.804 33.92C152.164 33.92 154.096 31.68 154.096 27.9V16.28H157.624V27.9C157.624 33.78 154.348 37.336 148.804 37.336Z" fill="white"/>
<defs>
<linearGradient id="paint0_linear_1999_4108" x1="0" y1="27" x2="183" y2="27" gradientUnits="userSpaceOnUse">
<stop stop-color="#40C377"/>
<stop offset="1" stop-color="#5CC39A"/>
</linearGradient>
</defs>
</svg>
