<svg width="164" height="183" viewBox="0 0 164 183" fill="none" xmlns="http://www.w3.org/2000/svg">
<path fill-rule="evenodd" clip-rule="evenodd" d="M20.3906 32.2293C16.8865 8.3956 22.5239 -3.83959 25.1367 1.0721C26.7996 4.19795 36.8243 9.94769 44.9678 14.1493C55.7404 9.43304 68.4111 6.71373 81.9707 6.7137C95.2677 6.7137 107.71 9.32904 118.346 13.8778C126.385 9.70435 136.003 4.13902 137.629 1.08285C140.197 -3.74367 145.685 7.99034 142.548 31.0184C149.113 38.701 152.896 47.73 152.896 57.3905C152.896 67.3485 148.875 76.6345 141.932 84.4676C148.876 93.4559 152.896 104.112 152.896 115.539C152.896 147.653 121.142 173.687 81.9707 173.687C42.7994 173.687 11.0449 147.653 11.0449 115.539C11.045 104.113 15.0652 93.4566 22.0088 84.4686C15.0652 76.6355 11.045 67.3486 11.0449 57.3905C11.045 48.2331 14.4443 39.643 20.3906 32.2293Z" fill="#90B97C"/>
<path d="M42.7227 155.172H76.1824V167.416C76.1824 175.963 69.2533 182.892 60.7059 182.892C53.2363 182.892 46.8325 177.557 45.4837 170.21L42.7227 155.172Z" fill="#90B97C"/>
<path d="M122.686 155.28H89.2258V167.524C89.2258 176.071 96.1549 183 104.702 183C112.172 183 118.576 177.665 119.925 170.318L122.686 155.28Z" fill="#90B97C"/>
<path d="M109.582 16.7404C109.521 21.1173 109.436 30.1998 109.582 31.5128L81.8613 40.5402L54.1406 31.5128C54.2865 30.1998 54.2014 21.1173 54.1406 16.7404C59.5206 17.4091 72.5968 21.829 81.8613 34.1574C91.1258 21.8291 104.202 17.4092 109.582 16.7404Z" fill="#75AD50"/>
<ellipse cx="81.8624" cy="133.19" rx="63.671" ry="40.4982" fill="#CEE0C5"/>
<path d="M47.4205 120.996C43.6831 140.988 30.7224 156.54 20.0094 156.842C9.69068 151.807 3.66165 133.506 7.39898 113.514C11.1363 93.5221 23.1251 78.9901 34.1768 81.0561C45.2284 83.1221 51.1578 101.004 47.4205 120.996Z" fill="#90B97C"/>
<path d="M116.349 120.996C120.086 140.988 133.047 156.54 143.76 156.842C154.079 151.807 160.108 133.506 156.371 113.514C152.633 93.5221 140.644 78.9901 129.593 81.0561C118.541 83.1221 112.612 101.004 116.349 120.996Z" fill="#90B97C"/>
<path d="M109.258 27.0702C124.388 27.0702 136.654 38.8028 136.654 53.2752C136.654 67.2259 125.256 78.6277 110.882 79.4315V79.4803H50.6758V79.2284C37.3396 77.4626 27.0704 66.5164 27.0703 53.2743C27.0706 38.8021 39.3359 27.0704 54.4658 27.0702C69.596 27.0702 81.8621 38.802 81.8623 53.2743V53.2752C81.8623 38.8028 94.1276 27.0703 109.258 27.0702Z" fill="white"/>
<path d="M70.8164 67.3529L81.8614 56.9577L92.9064 67.3529L81.8614 80.8884L70.8164 67.3529Z" fill="#FBED68"/>
<circle cx="59.0138" cy="52.9508" r="10.0704" fill="#856D41"/>
<circle cx="55.0159" cy="50.029" r="3.4593" fill="white" fill-opacity="0.83"/>
<circle cx="107.742" cy="52.9509" r="10.0704" fill="#856D41"/>
<circle cx="103.744" cy="50.0291" r="3.4593" fill="white" fill-opacity="0.83"/>
<path d="M81.8616 40.6066L74.7148 36.2753C75.1119 40.3179 75.906 48.5547 75.906 49.1611C75.906 49.7675 79.8764 52.951 81.8616 54.467L91.174 48.4031V34.8676L81.8616 40.6066Z" fill="white"/>
</svg>
