<svg width="50" height="50" viewBox="0 0 50 50" fill="none" xmlns="http://www.w3.org/2000/svg">
<path d="M19.8545 3.05315C23.9264 -1.01752 30.5279 -1.01791 34.5996 3.05315L46.0888 14.545C50.1608 18.6171 50.1608 25.2181 46.0888 29.2901L36.2023 39.1792L36.1865 39.166C33.9186 41.2612 31.5918 42.5834 29.1538 42.9852C26.4037 43.4382 23.8687 42.663 21.5842 41.1788C21.3142 41.0038 20.9745 40.9397 20.6665 40.9936C20.3697 41.0457 20.1822 41.1881 20.0793 41.3533C18.5238 43.8498 16.2676 46.7965 13.3852 48.2802C11.8806 49.0547 10.1402 49.4641 8.25943 49.1292C6.39297 48.7966 4.63498 47.774 3.00146 46.1405C1.39404 44.5327 0.379945 42.803 0.0868227 40.9566C-0.210213 39.0836 0.282883 37.3873 1.13948 35.9578C2.76675 33.2426 5.87327 31.2096 8.49218 29.827C8.67585 29.7301 8.82989 29.5413 8.88891 29.2557C8.94926 28.9623 8.88469 28.6572 8.71964 28.4279C6.91198 25.9169 5.86168 23.2246 6.18586 20.3108C6.47629 17.7012 7.83117 15.2837 9.97859 12.9581L9.96536 12.9423L19.8545 3.05315ZM13.2371 16.2166C11.5858 18.0402 10.9061 19.5452 10.7641 20.8213C10.6083 22.2234 11.0537 23.789 12.4568 25.7381C14.3286 28.3379 13.6957 32.2849 10.6424 33.8975C8.13473 35.2213 6.02278 36.7639 5.08825 38.3223C4.66441 39.0295 4.53942 39.6457 4.63333 40.2372C4.73179 40.8554 5.11557 41.7456 6.25727 42.8873C7.40758 44.0376 8.35299 44.4688 9.06611 44.5959C9.76456 44.7204 10.4826 44.5949 11.2772 44.186C12.9938 43.3023 14.7007 41.276 16.1702 38.9174C17.931 36.0913 21.6324 35.7204 24.0942 37.3199C25.6673 38.3418 27.0528 38.6641 28.4053 38.4413C29.6512 38.236 31.147 37.5215 32.928 35.9076L13.2371 16.2166Z" fill="url(#paint0_linear_2165_8389)"/>
<defs>
<linearGradient id="paint0_linear_2165_8389" x1="24.5714" y1="0" x2="24.5714" y2="49.247" gradientUnits="userSpaceOnUse">
<stop stop-color="white"/>
<stop offset="1" stop-color="#829D9F"/>
</linearGradient>
</defs>
</svg>
