<svg width="65" height="65" viewBox="0 0 65 65" fill="none" xmlns="http://www.w3.org/2000/svg">
<g opacity="0.78">
<path d="M20 47C20 45.3431 21.3431 44 23 44H42C43.6569 44 45 45.3431 45 47C45 48.6569 43.6569 50 42 50H23C21.3431 50 20 48.6569 20 47Z" fill="url(#paint0_linear_2165_8361)"/>
<path d="M27 51H38C38 53.7614 35.7614 56 33 56H32C29.2386 56 27 53.7614 27 51Z" fill="url(#paint1_linear_2165_8361)"/>
<path d="M32.1133 6.19043C43.0109 6.19053 51.8457 15.0252 51.8457 25.9229C51.8456 32.9133 48.2097 39.0544 42.7266 42.5596H21.499C16.0162 39.0543 12.3809 32.9131 12.3809 25.9229C12.3809 15.0251 21.2156 6.19048 32.1133 6.19043ZM33.3467 20.8955C33.0957 19.8604 31.6231 19.8604 31.3721 20.8955L30.6816 23.7432C30.592 24.1127 30.3031 24.4016 29.9336 24.4912L27.0859 25.1816C26.0509 25.4326 26.0509 26.9053 27.0859 27.1562L29.9336 27.8467C30.303 27.9363 30.5919 28.2244 30.6816 28.5938L31.3721 31.4424C31.6232 32.4772 33.0956 32.4772 33.3467 31.4424L34.0371 28.5938C34.1268 28.2245 34.415 27.9364 34.7842 27.8467L37.6328 27.1562C38.6678 26.9053 38.6678 25.4327 37.6328 25.1816L34.7842 24.4912C34.4149 24.4015 34.1267 24.1125 34.0371 23.7432L33.3467 20.8955Z" fill="url(#paint2_linear_2165_8361)"/>
</g>
<defs>
<linearGradient id="paint0_linear_2165_8361" x1="32.5" y1="44" x2="32.5" y2="50" gradientUnits="userSpaceOnUse">
<stop stop-color="white"/>
<stop offset="1" stop-color="#829D9F"/>
</linearGradient>
<linearGradient id="paint1_linear_2165_8361" x1="32.5" y1="51" x2="32.5" y2="56" gradientUnits="userSpaceOnUse">
<stop stop-color="white"/>
<stop offset="1" stop-color="#829D9F"/>
</linearGradient>
<linearGradient id="paint2_linear_2165_8361" x1="32.1133" y1="6.19043" x2="32.1133" y2="42.5596" gradientUnits="userSpaceOnUse">
<stop stop-color="white"/>
<stop offset="1" stop-color="#829D9F"/>
</linearGradient>
</defs>
</svg>
