<svg width="226" height="245" viewBox="0 0 226 245" fill="none" xmlns="http://www.w3.org/2000/svg">
<path fill-rule="evenodd" clip-rule="evenodd" d="M30.2344 42.4823C25.7742 11.0122 33.1928 -5.09474 36.6436 1.43546C38.8381 5.58768 51.9804 13.1976 62.7646 18.8105C77.141 12.5832 94.0878 8.9882 112.233 8.9882C130.026 8.98822 146.665 12.4441 160.859 18.4491C171.5 12.8766 184.114 5.50933 186.26 1.44913C189.651 -4.96799 196.872 10.4747 192.889 40.8749C201.473 50.8202 206.413 62.481 206.413 74.9501C206.413 87.1148 201.71 98.5093 193.51 108.293C201.71 120.533 206.413 134.79 206.413 150.01C206.413 195.586 164.248 232.533 112.233 232.533C60.2192 232.533 18.0529 195.586 18.0527 150.01C18.0527 134.79 22.7556 120.533 30.9561 108.293C22.7558 98.5093 18.0529 87.1147 18.0527 74.9501C18.0527 63.1467 22.4805 52.0676 30.2344 42.4823Z" fill="url(#paint0_linear_1999_4114)"/>
<path d="M60.1387 211.877H104.392V224.352C104.392 235.756 95.1475 245 83.7439 245C73.9253 245 65.4647 238.086 63.5094 228.464L60.1387 211.877Z" fill="url(#paint1_linear_1999_4114)"/>
<path d="M166.385 207.889H121.883V224.428C121.883 235.79 131.094 245.001 142.456 245.001C152.394 245.001 160.912 237.896 162.695 228.119L166.385 207.889Z" fill="url(#paint2_linear_1999_4114)"/>
<path d="M148.956 22.412C148.875 28.2719 148.762 40.4314 148.956 42.1894L112.088 54.2753L75.2188 42.1894C75.4128 40.4314 75.2996 28.2719 75.2188 22.412C82.3744 23.3073 99.766 29.2243 112.088 45.7294L112.669 44.9638C124.95 29.041 141.912 23.2935 148.956 22.412Z" fill="#278655"/>
<ellipse cx="112.05" cy="175.611" rx="68.9331" ry="56.824" fill="url(#paint3_linear_1999_4114)"/>
<path d="M63.0708 154.995C58.1001 181.76 40.862 202.582 26.6136 202.985C12.8895 196.245 4.87081 171.744 9.84152 144.978C14.8122 118.213 30.7576 98.7578 45.4564 101.524C60.1553 104.29 68.0415 128.23 63.0708 154.995Z" fill="url(#paint4_linear_1999_4114)"/>
<path d="M162.183 154.423C167.154 181.188 184.392 202.009 198.64 202.413C212.364 195.673 220.383 171.172 215.412 144.406C210.442 117.641 194.496 98.1855 179.797 100.951C165.099 103.717 157.212 127.657 162.183 154.423Z" fill="url(#paint5_linear_1999_4114)"/>
<path d="M148.526 36.2421C168.65 36.2423 184.963 51.9496 184.963 71.3251C184.963 89.9893 169.825 105.246 150.727 106.342V106.361H150.417C149.791 106.392 149.16 106.408 148.526 106.408C147.892 106.408 147.262 106.392 146.636 106.361H77.543C76.9169 106.392 76.2863 106.408 75.6523 106.408C55.529 106.408 39.215 90.7006 39.2148 71.3251C39.2149 51.9496 55.529 36.2423 75.6523 36.2421C95.3156 36.2423 111.338 51.2395 112.061 70.0019H112.117C112.84 51.2395 128.863 36.2423 148.526 36.2421Z" fill="white"/>
<path d="M97.3984 90.171L112.088 76.2538L126.778 90.171L112.088 108.292L97.3984 90.171Z" fill="#FBED68"/>
<ellipse cx="81.7005" cy="70.8904" rx="13.3938" ry="13.4822" fill="#242731"/>
<ellipse cx="76.3841" cy="66.9789" rx="4.60093" ry="4.6313" fill="white"/>
<ellipse cx="142.597" cy="70.8904" rx="13.3938" ry="13.4822" fill="#242731"/>
<ellipse cx="137.281" cy="66.9789" rx="4.60093" ry="4.6313" fill="white"/>
<path d="M124.429 64.4003L112.009 73.0204C109.361 70.8653 104.064 66.3395 104.064 65.4774C104.064 64.6148 99.1879 49.9442 98.6582 44.1972L112.009 53.3163L127.293 42.7558L124.429 64.4003Z" fill="white"/>
<defs>
<linearGradient id="paint0_linear_1999_4114" x1="112.233" y1="0" x2="112.233" y2="232.532" gradientUnits="userSpaceOnUse">
<stop stop-color="#48C281"/>
<stop offset="1" stop-color="#225C52"/>
</linearGradient>
<linearGradient id="paint1_linear_1999_4114" x1="82.2653" y1="211.877" x2="82.2653" y2="245" gradientUnits="userSpaceOnUse">
<stop stop-color="#48C281"/>
<stop offset="1" stop-color="#225C52"/>
</linearGradient>
<linearGradient id="paint2_linear_1999_4114" x1="144.134" y1="207.889" x2="144.134" y2="245.001" gradientUnits="userSpaceOnUse">
<stop stop-color="#48C281"/>
<stop offset="1" stop-color="#225C52"/>
</linearGradient>
<linearGradient id="paint3_linear_1999_4114" x1="112.05" y1="118.787" x2="112.05" y2="232.435" gradientUnits="userSpaceOnUse">
<stop stop-color="#CEE0C5"/>
<stop offset="1" stop-color="#95CFA7"/>
</linearGradient>
<linearGradient id="paint4_linear_1999_4114" x1="45.4564" y1="101.524" x2="26.3726" y2="202.94" gradientUnits="userSpaceOnUse">
<stop stop-color="#48C281"/>
<stop offset="1" stop-color="#225C52"/>
</linearGradient>
<linearGradient id="paint5_linear_1999_4114" x1="179.797" y1="100.951" x2="198.881" y2="202.367" gradientUnits="userSpaceOnUse">
<stop stop-color="#48C281"/>
<stop offset="1" stop-color="#225C52"/>
</linearGradient>
</defs>
</svg>
