<svg width="55" height="82" viewBox="0 0 55 82" fill="none" xmlns="http://www.w3.org/2000/svg">
<path fill-rule="evenodd" clip-rule="evenodd" d="M44.5828 74.4239C44.225 74.8536 43.8911 75.1927 43.3671 75.3434C42.6452 75.5514 41.9953 75.3742 41.3809 75.0677C41.1527 74.9541 40.9879 74.6278 40.8886 74.3629C40.7665 74.0389 40.7109 73.6795 40.6831 73.3312C40.6293 72.6615 41.194 71.8544 41.9194 71.5748C42.294 71.4302 42.6972 71.3589 43.0942 71.2525C42.752 70.103 42.4254 69.0061 42.0977 67.9088C42.0817 67.8562 42.0669 67.7928 42.0294 67.7594C41.3352 67.1424 40.9742 66.2953 40.5066 65.5091C40.4197 65.5181 40.3434 65.5111 40.2796 65.5355C39.3265 65.8992 38.3775 66.2705 37.4238 66.6318C37.0947 66.7564 36.7618 66.8744 36.4222 66.9668C34.4338 67.5052 32.4438 68.036 30.4542 68.5691C30.258 68.6217 30.062 68.6742 29.8006 68.7443C29.8172 69.0861 29.83 69.4114 29.8501 69.736C29.8662 69.9954 29.8971 70.2536 29.9089 70.5122C29.9246 70.8475 29.8612 71.1474 29.4558 71.2617C29.7161 72.2331 29.9685 73.175 30.2269 74.1394C30.709 73.946 31.1674 73.7566 31.6295 73.5781C31.8367 73.498 32.0485 73.4251 32.2645 73.3737C32.9452 73.211 33.6436 73.4574 34.0043 74.0611C34.2484 74.4697 34.4289 74.927 34.5716 75.383C34.7827 76.0561 34.5363 76.6693 33.9658 77.0913C33.1377 77.7033 32.1904 77.821 31.2134 77.6972C30.8212 77.6475 30.5197 77.6444 30.2059 77.9305C29.4897 78.5824 28.6521 78.857 27.6786 78.5653C27.579 78.6656 27.4848 78.7515 27.4006 78.8472C26.7783 79.5557 25.9985 79.6896 25.1249 79.4677C23.9828 79.1773 23.8966 78.726 23.753 77.4745C23.6613 76.6785 24.2057 76.1599 24.8309 75.794C25.2051 75.5753 25.6575 75.4897 26.1232 75.3274C25.7902 74.3232 25.4382 73.2623 25.0722 72.158C24.5876 72.208 24.4071 71.8284 24.1851 71.4557C23.6486 70.5556 23.2825 69.5866 22.9744 68.5938C22.8971 68.3446 22.7571 68.1933 22.5528 68.042C22.1373 67.7362 21.7184 67.4208 21.3637 67.0499C20.6214 66.2734 19.9179 65.4602 19.202 64.6583C18.7502 64.1527 18.4129 63.5813 18.2697 62.9108C18.2089 62.6237 18.079 62.4004 17.8153 62.2484C17.5426 62.0914 17.2908 61.8992 17.0215 61.7354C15.2846 60.6778 14.024 59.2126 13.281 57.3184C12.6446 55.6949 12.058 54.0521 11.6965 52.3426C11.4741 51.2912 11.3341 50.2225 11.1104 49.172C10.6636 47.0738 10.8132 44.9585 10.9339 42.8517C10.9856 41.9555 11.2731 41.0714 11.4581 40.1837C11.4877 40.0415 11.5399 39.9043 11.5963 39.7161C11.4677 39.7254 11.3834 39.7299 11.2998 39.7378C10.7959 39.7825 10.5785 39.6263 10.4945 39.1214C10.2263 37.5066 10.3618 35.9394 11.0849 34.4513C11.1969 34.2201 11.3593 34.014 11.4882 33.812C10.9769 33.1576 10.4366 32.5279 9.96771 31.8489C9.52677 31.2107 9.15139 30.5263 8.76519 29.8518C8.37839 29.1761 7.93043 28.5187 7.65775 27.7979C7.14009 26.4306 6.72629 25.0241 6.27525 23.6317C6.20102 23.4029 6.17623 23.1575 6.09716 22.9308C5.56364 21.4087 5.82067 19.9254 6.33187 18.4639C6.67236 17.4914 7.15619 16.5971 7.95838 15.9116C8.04153 15.8405 8.10748 15.7495 8.19159 15.6568C8.15614 15.3182 7.90716 15.1015 7.73618 14.8458C7.0049 13.752 6.23411 12.6828 5.54566 11.5627C5.14102 10.9039 4.841 10.1767 4.53719 9.46152C4.28987 8.87765 4.4959 8.56168 5.11968 8.51966C5.43088 8.49857 5.75917 8.49905 6.05865 8.57412C7.47897 8.93052 8.91189 9.25442 10.1864 10.0328C10.4684 10.2045 10.8003 10.293 11.1032 10.4322C11.5241 10.6252 11.9582 10.7982 12.352 11.0373C12.9804 11.419 13.6601 11.657 14.3631 11.8281C14.5582 11.8759 14.8152 11.8326 14.999 11.7408C17.4697 10.4993 20.1187 9.90002 22.8338 9.53168C23.3672 9.45914 23.8989 9.34203 24.4332 9.32749C25.2092 9.3059 25.988 9.34638 26.764 9.38735C26.9971 9.39985 27.1378 9.35433 27.2667 9.15125C28.213 7.66509 29.1821 6.19359 30.1205 4.70225C30.6828 3.80762 31.2022 2.88616 31.7414 1.97694C31.7791 1.91344 31.8153 1.84794 31.8585 1.78782C32.203 1.30639 32.6328 1.31016 32.8821 1.84333C33.1488 2.41202 33.3754 3.00496 33.5557 3.60651C33.8645 4.63693 34.1217 5.68332 34.405 6.72162C34.7157 7.86017 34.7024 9.03621 34.801 10.1982C34.858 10.8697 35.1184 11.4058 35.6042 11.8482C36.5142 12.677 37.2712 13.6324 37.9501 14.6545C38.5385 15.5404 38.8066 16.5437 38.9925 17.5687C39.201 18.7193 39.3381 19.8811 39.2675 21.0537C39.2202 21.8473 39.1384 22.639 39.0635 23.4311C39.0112 23.9847 38.9093 24.5352 38.8906 25.0895C38.8525 26.2263 38.5575 27.2839 37.9993 28.2552C38.4189 28.6508 38.8032 29.0251 39.2001 29.3863C39.974 30.0909 40.5192 30.9358 40.784 31.9516C40.9103 32.4358 41.01 32.9268 41.1398 33.41C41.1806 33.5622 41.2576 33.7169 41.3572 33.8382C41.5331 34.0518 41.7295 34.2522 41.9334 34.4405C42.7186 35.1642 43.3617 35.9982 43.8632 36.9381C44.4297 38.0014 45.0065 39.0614 45.5189 40.1513C45.8655 40.8874 46.1538 41.6584 46.3889 42.4381C46.9992 44.4621 47.6051 46.489 48.1327 48.5357C48.3908 49.536 48.5409 50.5773 48.6102 51.6088C48.6873 52.7479 48.3533 53.8168 47.6206 54.7207C47.4107 54.9798 47.2922 55.2159 47.3362 55.5673C47.4163 56.2095 47.3919 56.867 47.4949 57.5049C47.6418 58.4207 47.5256 59.3204 47.4103 60.2174C47.2987 61.0822 46.9426 61.8644 46.2971 62.4715C45.9539 62.794 45.8963 63.1214 46.0276 63.5619C46.202 64.1476 46.3235 64.75 46.4366 65.3513C46.5206 65.7974 46.6735 66.2664 46.2545 66.6561C46.2076 66.6994 46.216 66.8355 46.2391 66.9167C46.5297 67.9466 46.8278 68.9747 47.1219 69.998C47.8053 69.7475 48.4196 69.4923 49.0532 69.2985C49.934 69.0293 50.6304 69.3197 51.0653 70.1257C51.248 70.4653 51.3841 70.836 51.4977 71.2068C51.7143 71.9125 51.4823 72.5331 50.891 72.9671C50.0606 73.5766 49.1135 73.692 48.1378 73.5627C47.7385 73.5096 47.4406 73.5303 47.13 73.809C46.4091 74.4536 45.5697 74.7195 44.5828 74.4239ZM5.35199 9.34539C5.64983 9.9578 5.84724 10.4812 6.14047 10.9435C6.86628 12.0844 7.63698 13.1965 8.38649 14.3221C8.65322 14.7228 8.91172 15.13 9.17484 15.5333C9.32645 15.765 9.27713 15.9352 9.04811 16.0939C8.09868 16.7512 7.48632 17.66 7.11226 18.7407C6.64759 20.083 6.44676 21.4328 6.9101 22.8279C7.25425 23.8647 7.55041 24.9176 7.87163 25.9625C7.98599 26.3339 8.06255 26.7273 8.23856 27.0682C9.14879 28.8279 9.97713 30.6402 11.2352 32.1926C12.0405 33.1862 12.9865 34.0116 14.3 34.2683C14.6812 34.3433 15.0736 34.3665 15.4532 34.449C17.4603 34.8857 19.4765 34.7548 21.4858 34.5147C22.4401 34.4011 23.3779 34.1511 24.3238 33.9689C24.7608 33.8849 25.2078 33.8453 25.6378 33.7362C28.2316 33.0768 30.7633 32.2464 33.1627 31.0367C34.2612 30.4829 35.295 29.8475 36.2272 29.0414C37.3573 28.064 37.9259 26.8249 38.0393 25.351C38.126 24.2254 38.1871 23.0948 38.3408 21.978C38.5498 20.4664 38.3846 18.9882 38.1322 17.5029C37.8573 15.8852 37.0125 14.5762 35.9518 13.3851C35.4354 12.8054 34.8754 12.2632 34.3158 11.7236C34.1119 11.5272 34.0413 11.3261 34.0207 11.0458C33.9218 9.69758 33.9425 8.33188 33.6069 7.01285C33.2552 5.62966 32.8406 4.26249 32.4485 2.88983C32.432 2.83249 32.3704 2.7886 32.2833 2.67981C31.8724 3.36561 31.4921 3.99928 31.1134 4.63362C30.8182 5.12716 30.5394 5.63036 30.2295 6.11411C29.46 7.31613 28.6687 8.50431 27.9022 9.70849C27.5264 10.2994 27.5199 10.3195 26.8426 10.2322C25.7712 10.0942 24.7012 10.0568 23.6306 10.256C23.2297 10.3308 22.8206 10.3569 22.4181 10.4237C19.9968 10.8258 17.615 11.3586 15.3968 12.4696C15.0822 12.6269 14.6519 12.7471 14.3334 12.6631C13.5686 12.4617 12.8317 12.1451 12.097 11.8437C11.602 11.6406 11.1309 11.3799 10.6453 11.1516C10.3768 11.0251 10.0847 10.9415 9.83429 10.7878C8.62655 10.0463 7.26647 9.74061 5.92094 9.3906C5.78387 9.35506 5.63552 9.36596 5.35199 9.34539ZM37.4659 29.0269C36.4251 30.0034 35.336 30.841 34.0886 31.4972C31.8426 32.6777 29.4839 33.5551 27.0489 34.2251C25.9077 34.5392 24.7279 34.7122 23.5659 34.9483C22.839 35.0956 22.1179 35.2918 21.3839 35.3793C18.9753 35.6652 16.5701 35.6385 14.1953 35.0902C13.6604 34.9666 13.153 34.7226 12.6357 34.5258C12.5012 34.4747 12.378 34.3925 12.1873 34.2926C11.2396 35.6891 11.0483 37.1909 11.3154 38.834C12.5323 38.7633 13.5665 38.1828 14.6501 37.814C14.7341 37.8848 14.8018 37.9231 14.8438 37.9792C15.198 38.456 15.5311 38.9481 15.9017 39.4105C16.3538 39.9737 16.8102 40.5377 17.3136 41.053C17.6963 41.4455 17.8603 41.4205 18.2851 41.127C18.5289 40.9592 18.7587 40.7631 19.0211 40.6305C19.6512 40.3128 20.1749 39.8953 20.4938 39.25C20.5344 39.168 20.5934 39.0934 20.6519 39.0219C20.8621 38.7666 21.0493 38.6997 21.332 38.8537C21.9988 39.2181 22.6639 39.5878 23.3063 39.9925C24.009 40.4352 24.7759 40.4009 25.5473 40.3687C25.6497 40.3644 25.7638 40.298 25.8463 40.2285C26.113 40.0019 26.3998 39.7873 26.6202 39.5201C27.1852 38.8339 27.7141 38.1176 28.2674 37.4211C28.5942 37.0094 28.5978 37.0341 29.1049 37.1813C29.9047 37.4141 30.7146 37.6116 31.516 37.841C31.9828 37.9739 32.2763 37.7823 32.5531 37.4226C33.2193 36.5564 33.7326 35.6331 33.9014 34.5333C33.9858 33.9835 34.1594 33.9081 34.7101 33.9857C35.0752 34.037 35.4528 34.0968 35.8141 34.0564C37.0291 33.9209 38.2403 33.7506 39.4504 33.575C39.7153 33.5363 39.9692 33.42 40.2122 33.3447C40.0744 31.6148 38.8948 29.7728 37.4659 29.0269ZM42.5556 58.1893C42.6697 58.615 42.7694 58.951 42.8482 59.2915C42.9629 59.786 42.8875 59.9804 42.415 60.1674C41.4507 60.5499 40.4945 60.9786 39.4973 61.2461C35.7524 62.252 31.9967 63.2163 28.2356 64.1604C26.9599 64.4809 25.6598 64.7047 24.3676 64.9563C23.8527 65.0565 23.6085 64.886 23.4563 64.3861C23.3844 64.15 23.3157 63.912 23.2414 63.6619C21.889 64.2773 20.6595 63.8832 19.4105 63.4599C19.5237 63.7033 19.65 63.904 19.8058 64.0796C20.5179 64.8836 21.223 65.6956 21.9637 66.4733C22.2921 66.8184 22.6747 67.1271 23.0772 67.3803C23.4339 67.6048 23.6382 67.8809 23.7612 68.2746C23.9541 68.8938 24.1827 69.5026 24.4216 70.1052C24.5318 70.3826 24.7023 70.6356 24.8795 70.9619C25.0521 70.6802 25.1611 70.4879 25.284 70.3056C25.6321 69.7873 25.9109 69.7239 26.4495 70.0381C26.7116 70.1911 26.9684 70.3534 27.2535 70.5269C27.3153 70.3338 27.3577 70.1932 27.405 70.0546C27.598 69.489 27.9238 69.3774 28.4178 69.7134C28.5968 69.8348 28.7667 69.971 29.0284 70.1655C28.9971 69.631 28.962 69.2114 28.9504 68.7906C28.9371 68.3061 29.0714 68.1231 29.5266 67.9661C29.6841 67.9118 29.8477 67.8744 30.009 67.8312C32.0881 67.2741 34.1669 66.7174 36.2461 66.1597C36.4246 66.1113 36.6074 66.0696 36.7793 66.002C37.9355 65.5487 39.0896 65.0887 40.2444 64.6324C40.7723 64.4235 40.9019 64.4694 41.1827 64.965C41.2464 65.0779 41.294 65.2003 41.3576 65.3129C41.546 65.6456 41.7387 65.9761 41.9753 66.3862C42.1437 66.0013 42.2517 65.7068 42.397 65.4311C42.6352 64.9795 43.0116 64.9261 43.3898 65.2676C43.5573 65.419 43.7324 65.563 43.9453 65.7459C44.0048 65.5 44.034 65.336 44.0851 65.1805C44.1617 64.9472 44.2601 64.7148 44.5329 64.659C44.8077 64.6018 44.9812 64.7832 45.1444 64.9678C45.2559 65.0941 45.3691 65.2193 45.4815 65.3451C45.437 64.6899 45.3043 64.0982 45.1579 63.5105C45.0185 62.9479 45.0845 62.4699 45.5535 62.0554C46.0791 61.5907 46.4295 60.9893 46.5487 60.2929C46.6486 59.7104 46.7441 59.1148 46.729 58.5283C46.7081 57.7155 46.5822 56.9055 46.4973 56.0944C46.4948 56.0711 46.4473 56.0528 46.395 56.0116C45.391 57.1556 44.1649 57.9388 42.5556 58.1893ZM38.6915 45.8104C38.404 46.2892 38.4756 46.692 38.6279 47.0945C38.7395 47.3882 38.907 47.6683 38.9718 47.9715C39.4288 50.1015 40.2796 52.1063 40.9133 54.1798C41.2113 55.1529 41.6142 56.0939 41.9721 57.0483C42.0105 57.1502 42.0655 57.2458 42.1215 57.3632C43.3587 57.311 44.3835 56.7973 45.2631 55.981C45.792 55.4893 46.282 54.9551 46.7799 54.4301C47.5239 53.644 47.8665 52.6664 47.7788 51.6256C47.6794 50.4485 47.461 49.2711 47.1774 48.1221C46.7954 46.5758 46.3127 45.0529 45.8518 43.5264C45.4774 42.2841 45.0729 41.0509 44.4632 39.8968C44.0817 39.1755 43.7307 38.4381 43.3286 37.7294C42.9819 37.119 42.6042 36.5234 42.2001 35.9492C41.8376 35.4345 40.8226 35.4929 40.4847 36.0332C40.0954 36.6566 39.9508 37.3315 40.1472 38.0576C40.399 38.9892 40.6671 39.9165 40.8955 40.8533C41.0661 41.5545 41.2127 42.2635 41.3184 42.9759C41.3991 43.5246 41.4173 44.0839 41.4317 44.6396C41.4612 45.765 41.447 46.8898 41.2937 48.0294C41.6372 48.5916 41.9435 49.2176 42.3669 49.75C42.7841 50.2735 43.3201 50.7021 43.8303 51.1983C43.349 51.4289 42.9197 51.469 42.48 51.1254C42.0314 50.7743 41.7144 50.325 41.417 49.8522C40.8454 48.9418 40.2754 48.0302 39.6876 47.1307C39.3992 46.6891 39.085 46.2615 38.6915 45.8104ZM11.8616 42.07C11.8199 42.4215 11.7585 42.7671 11.7409 43.1151C11.7038 43.8561 11.6989 44.5985 11.6635 45.339C11.6145 46.3809 11.6622 47.4135 11.8439 48.4427C12.1085 49.9395 12.3019 51.445 12.6932 52.9227C13.0933 54.4351 13.6229 55.8971 14.2015 57.3411C14.7818 58.7901 15.8186 59.904 17.0796 60.8033C17.8332 61.341 18.6124 61.8439 19.3814 62.3602C20.1567 62.8805 21.0078 63.1614 21.9459 63.1441C22.2835 63.1382 22.6205 63.0965 22.8334 62.7792C23.1303 62.3354 23.3598 61.8362 23.2358 61.314C22.9272 60.0165 22.6064 58.7165 22.1879 57.4515C21.8338 56.3809 21.3006 55.3702 20.9145 54.3084C20.5487 53.3006 20.1762 52.2838 20.2019 51.1802C20.2052 51.0194 20.1566 50.8579 20.1342 50.7078C19.6321 50.6506 19.4974 50.7005 19.3405 51.061C19.2535 51.2615 19.1845 51.486 19.1777 51.7022C19.1513 52.5527 19.1533 53.4043 19.1431 54.2559C19.1364 54.7924 19.158 55.3322 19.1109 55.8658C19.0567 56.4725 18.7294 56.9962 18.2779 57.2714C18.272 56.9637 18.2547 56.6908 18.2643 56.4186C18.2786 56.0111 18.3105 55.604 18.3379 55.197C18.3709 54.7063 18.378 54.2285 17.8983 53.9096C17.8258 53.8614 17.7817 53.7662 17.7347 53.6865C16.9796 52.409 16.2106 51.1392 15.9196 49.6488C15.7815 48.9402 15.5154 48.2498 15.4397 47.5366C15.327 46.4712 15.0591 45.459 14.6387 44.487C14.3526 43.8257 14.046 43.1614 13.656 42.5583C13.1761 41.817 12.8031 41.7463 11.8616 42.07ZM34.4023 61.7217C34.3857 61.5843 34.386 61.4729 34.3582 61.369C33.4276 57.8528 32.5017 54.336 31.5592 50.8236C31.0973 49.1037 30.6018 47.3934 30.1245 45.6782C29.9944 45.2131 29.879 44.7449 29.7488 44.2801C29.7108 44.1444 29.6455 44.0165 29.5899 43.8785C28.6824 44.1217 27.8124 44.3548 26.917 44.5947C26.9636 44.9166 26.9811 45.2145 27.0518 45.4994C27.3247 46.5974 27.6028 47.6946 27.9003 48.7857C28.3248 50.343 28.77 51.8948 29.2008 53.4502C29.2601 53.6643 29.2866 53.8869 29.3268 54.1056C29.4273 54.6517 29.4946 55.2059 29.6328 55.7427C30.0628 57.414 30.5067 59.0815 30.9735 60.7432C31.1361 61.3228 31.3817 61.8791 31.5987 62.4727C32.5714 62.2123 33.4787 61.9692 34.4023 61.7217ZM41.9166 59.4507C41.1399 57.2422 40.3909 55.1144 39.6213 52.9255C37.624 53.7476 35.5831 54.3188 33.4318 54.7094C33.4916 54.9326 33.5386 55.1079 33.5854 55.2828C34.0802 57.1292 34.5749 58.9754 35.0699 60.8218C35.0987 60.9292 35.13 61.036 35.1586 61.1437C35.2281 61.4093 35.3851 61.5002 35.6564 61.4226C37.5819 60.8719 39.5566 60.4884 41.4127 59.7066C41.5793 59.6369 41.7352 59.5436 41.9166 59.4507ZM19.4765 49.8526C19.46 49.6942 19.4684 49.5595 19.4291 49.442C19.0932 48.4291 19.0035 47.3807 18.9323 46.3252C18.8864 45.6436 18.9641 45.5249 19.6256 45.3701C20.12 45.2546 20.6074 45.1105 21.1418 44.9673C21.0601 44.8897 21.0026 44.821 20.932 44.77C20.5964 44.5288 20.432 44.194 20.3485 43.796C20.2227 43.1966 20.3794 42.6573 20.6534 42.1382C21.0395 41.4094 21.6077 40.8459 22.3713 40.3786C21.9341 40.149 21.5636 39.9546 21.1502 39.7372C20.7557 40.6169 20.0001 41.0496 19.2313 41.4713C19.038 41.577 18.8756 41.7376 18.6909 41.8607C18.0023 42.3227 17.6397 42.3212 16.9712 41.8461C16.8063 41.7288 16.6412 41.5996 16.5118 41.4458C16.0124 40.8502 15.5251 40.2443 15.0384 39.6383C14.7966 39.3377 14.5657 39.0288 14.3202 38.7111C13.7832 38.9332 13.2717 39.1425 12.763 39.3587C12.701 39.385 12.6369 39.4453 12.6085 39.5066C12.384 39.9882 12.1922 40.481 12.1111 41.0437C12.2189 41.0464 12.2911 41.0594 12.359 41.0479C13.0056 40.9372 13.5417 41.1768 13.9593 41.6344C14.2674 41.9719 14.515 42.3699 14.7533 42.7629C14.9351 43.062 15.0608 43.3953 15.2095 43.7139C15.8167 45.0157 16.3039 46.3488 16.3257 47.8113C16.3288 48.0127 16.3726 48.2177 16.4257 48.4128C16.6014 49.0563 16.784 49.6977 16.975 50.3368C17.2343 51.2039 17.6753 51.9772 18.2382 52.813C18.2922 52.2509 18.3106 51.791 18.3856 51.3414C18.4926 50.693 18.7625 50.1386 19.4765 49.8526ZM35.961 41.3552C36.1393 41.3201 36.336 41.2703 36.5351 41.2434C37.2191 41.1515 37.3902 41.2618 37.5822 41.919C37.6916 42.2929 37.7861 42.6709 37.8871 43.0467C38.0594 43.6887 38.2311 44.3306 38.3989 44.9568C39.0539 44.989 39.2258 45.0802 39.5987 45.5781C39.7768 45.8151 39.9466 46.0584 40.1237 46.2955C40.2381 46.4487 40.3604 46.5963 40.554 46.8408C40.6588 45.3369 40.6606 43.9679 40.39 42.6239C40.116 41.2622 39.7465 39.9204 39.4193 38.5692C39.3755 38.389 39.3334 38.2085 39.2945 38.0272C39.1412 37.3092 39.2737 36.6301 39.5695 35.9699C39.8243 35.4014 40.174 34.9494 40.8402 34.848C40.8867 34.8404 40.9273 34.7947 40.9698 34.7672C40.6257 34.1895 40.5348 34.147 39.9584 34.2936C38.7336 34.6046 37.4922 34.811 36.2282 34.8649C35.7157 34.8866 35.2024 34.8931 34.647 34.9076C34.4882 36.3073 33.6568 37.356 32.785 38.448C33.0046 38.4592 33.1649 38.4519 33.3206 38.4773C33.7211 38.5431 34.1277 38.593 34.5167 38.7034C35.1745 38.8901 35.6044 39.3501 35.7773 39.9992C35.8881 40.418 35.8982 40.8642 35.961 41.3552ZM21.2084 52.5834C21.4574 52.5477 21.639 52.5298 21.817 52.494C22.544 52.3458 23.2713 52.1992 23.9954 52.0384C24.8822 51.8407 25.7692 51.6418 26.6491 51.4174C26.999 51.3285 27.3312 51.1704 27.714 51.0271C27.097 48.9349 26.3845 46.9467 26.0848 44.8371C23.9402 45.3109 21.8691 45.7683 19.824 46.22C19.7275 47.431 20.0408 48.5208 20.3139 49.6155C20.3413 49.7258 20.4353 49.8532 20.5343 49.9057C20.8552 50.0767 20.957 50.3609 20.9888 50.6862C21.0197 50.9996 21.0211 51.3158 21.0564 51.6289C21.0912 51.9345 21.1521 52.2375 21.2084 52.5834ZM28.822 56.1091C26.9189 56.619 25.0649 57.1158 23.1536 57.6279C23.1935 57.7769 23.2409 57.9516 23.2873 58.1271C23.5237 59.0235 23.7513 59.9219 24.0002 60.8147C24.1236 61.2573 24.165 61.7076 24.0036 62.1275C23.7239 62.855 24.1291 63.4373 24.2731 64.1004C26.4758 63.6835 28.6229 63.3186 30.6662 62.6689C30.0511 60.4818 29.4514 58.3474 28.822 56.1091ZM38.1866 48.2242C38.0712 47.9373 37.9689 47.7398 37.9129 47.5296C37.8134 47.1583 37.6441 46.7692 37.6826 46.4065C37.7427 45.8297 37.6248 45.3053 37.4773 44.7691C37.2705 44.0182 37.0746 43.2642 36.8692 42.5127C36.8317 42.3744 36.7726 42.2427 36.7084 42.0653C34.6319 42.6284 32.524 42.9392 30.484 43.6438C30.5238 43.8354 30.5497 43.9967 30.5912 44.1536C30.9964 45.6969 31.4046 47.2395 31.8117 48.7818C31.8448 48.9075 31.8747 49.034 31.914 49.1575C32.0302 49.5298 32.0845 49.5646 32.4732 49.5197C32.565 49.5089 32.6556 49.487 32.7462 49.4676C34.0163 49.199 35.2878 48.9376 36.5557 48.6569C37.0761 48.542 37.5881 48.3846 38.1866 48.2242ZM27.9389 51.9781C25.7722 52.4681 23.6656 52.9449 21.5264 53.4291C21.5758 53.6133 21.6014 53.7752 21.6617 53.923C21.9886 54.7304 22.3181 55.5365 22.658 56.338C22.848 56.7862 22.8931 56.8106 23.3728 56.6861C25.0235 56.2567 26.6718 55.8186 28.3197 55.38C28.4194 55.3533 28.51 55.2931 28.5849 55.2577C28.5663 54.0953 28.265 53.0303 27.9389 51.9781ZM38.3751 49.0917C36.3554 49.5376 34.3576 49.9778 32.3225 50.4265C32.6273 51.564 32.9228 52.6667 33.2454 53.8708C35.3401 53.5328 37.3449 52.9598 39.3013 52.1376C38.9848 51.0963 38.6841 50.1072 38.3751 49.0917ZM44.8227 65.8705C44.7677 66.1158 44.7474 66.2043 44.7283 66.293C44.5716 67.0375 44.2339 67.1638 43.6761 66.6774C43.4647 66.4933 43.2549 66.3241 42.9565 66.3207C42.7322 66.6669 42.6905 67.0025 42.8148 67.3879C43.1607 68.4623 43.4777 69.5458 43.8151 70.6228C43.8434 70.7144 43.9376 70.7852 43.9597 70.8124C44.7454 70.511 45.4795 70.2286 46.2561 69.9299C45.9035 68.7456 45.5629 67.5741 45.201 66.4096C45.1522 66.2488 45.0016 66.1192 44.8227 65.8705ZM30.0257 42.8169C29.6871 42.0887 29.3935 41.4317 29.0784 40.7849C28.8944 40.4092 28.5582 40.317 28.1816 40.4289C27.5255 40.6242 26.8788 40.8495 26.2252 41.054C25.9684 41.1341 25.8824 41.3063 25.8888 41.5583C25.9089 42.3239 26.1277 43.0448 26.3365 43.8051C27.5543 43.4791 28.727 43.1649 30.0257 42.8169ZM29.2818 74.0752C29.0255 73.047 28.7779 72.0225 28.5073 71.0043C28.4684 70.8583 28.3143 70.7432 28.1747 70.5643C28.0673 70.8124 28.011 70.9687 27.9346 71.1133C27.7387 71.4853 27.495 71.5862 27.1085 71.4347C26.9389 71.3685 26.7889 71.2514 26.6325 71.1529C26.432 71.0264 26.2335 70.8955 26.0435 70.773C25.7629 70.987 25.7631 71.2402 25.8328 71.5025C26.0326 72.2552 26.2058 73.0173 26.4546 73.7536C26.5978 74.1774 26.7042 74.6429 27.0054 74.9497C27.7721 74.6551 28.4935 74.3776 29.2818 74.0752ZM25.0287 41.2592C24.5649 41.2039 24.1301 41.1249 23.6923 41.1041C22.5031 41.0469 21.4185 41.9119 21.174 43.0897C21.1076 43.4087 21.096 43.7556 21.3314 43.987C22.0225 44.6653 22.5398 45.0622 23.5724 44.4708C23.2831 43.9376 23.0521 43.3935 23.4284 42.803C23.8239 42.182 24.4733 42.2949 25.0859 42.2705C25.0668 41.9304 25.0491 41.621 25.0287 41.2592ZM30.314 41.3043C30.8453 41.0994 31.2842 40.9057 31.7386 40.761C32.27 40.5914 32.7377 40.7853 33.1061 41.1599C33.2915 41.3486 33.386 41.6266 33.554 41.9216C33.904 41.8562 34.2859 41.7991 34.6593 41.7072C34.7654 41.6806 34.8878 41.5688 34.9323 41.466C35.2558 40.7128 35.0541 39.613 34.0063 39.4051C33.3882 39.2832 32.8015 39.3024 32.1997 39.4779C31.3891 39.7151 30.658 40.0774 30.0127 40.6739C30.1227 40.9044 30.2237 41.1152 30.314 41.3043ZM30.9295 75.908C30.9714 76.0332 31.0218 76.2967 31.1462 76.5187C31.2355 76.6776 31.4215 76.8877 31.5679 76.8908C32.2342 76.9056 32.9032 76.8644 33.4654 76.4236C33.7008 76.2392 33.8692 76.0064 33.7835 75.7085C33.6722 75.3204 33.5399 74.9295 33.3506 74.5752C33.1493 74.199 32.8221 74.0963 32.4013 74.2085C32.0984 74.2897 31.7918 74.3772 31.5065 74.5057C30.5506 74.9369 30.6088 74.7657 30.9295 75.908ZM47.656 70.7593C47.8178 71.3634 47.9565 71.9343 48.1324 72.4942C48.1685 72.6088 48.3417 72.7587 48.4536 72.76C49.181 72.7684 49.9069 72.726 50.4924 72.2102C50.6986 72.0288 50.8062 71.7853 50.7149 71.5096C50.5986 71.1592 50.4815 70.8047 50.3152 70.4772C50.1413 70.133 49.8152 69.9454 49.4371 70.0429C48.8136 70.2027 48.2034 70.4161 47.656 70.7593ZM44.6265 72.695C44.6585 72.8143 44.7066 72.9931 44.7543 73.1718C44.8814 73.6503 45.0148 73.7548 45.4952 73.7008C46.1452 73.6277 46.608 73.2246 47.0229 72.7675C47.1073 72.6737 47.1444 72.4812 47.1164 72.3533C47.0323 71.9751 46.9296 71.596 46.7862 71.2367C46.6583 70.9155 46.4511 70.8276 46.1176 70.9113C45.777 70.9967 45.4291 71.0791 45.1112 71.2231C44.2964 71.5918 44.2914 71.6304 44.5552 72.4773C44.5719 72.5303 44.5895 72.583 44.6265 72.695ZM30.0112 75.958C29.9587 75.7621 29.9237 75.5589 29.8493 75.371C29.7524 75.1289 29.5643 74.9474 29.2906 75.0329C28.7651 75.1979 28.2492 75.3952 27.7358 75.5954C27.462 75.7027 27.4246 75.9174 27.5088 76.1874C27.6408 76.6107 27.7603 77.0385 27.865 77.4694C27.9291 77.7337 28.0947 77.8277 28.3422 77.8366C28.7891 77.853 29.1701 77.6876 29.5205 77.4246C30.2664 76.8639 30.2813 76.8271 30.0112 75.958ZM43.9261 73.224C43.8155 72.9932 43.7333 72.7418 43.5878 72.5349C43.3076 72.1372 43.0442 72.0681 42.5757 72.2058C41.7792 72.4392 41.5112 72.9206 41.5716 73.773C41.6144 74.3663 41.9336 74.5704 42.4733 74.5922C42.7268 74.603 42.9934 74.5634 43.236 74.4879C43.8104 74.3086 44.0539 73.8205 43.9261 73.224ZM26.9538 77.3686C26.8944 77.1944 26.8524 77.0115 26.7728 76.8473C26.5931 76.4735 26.2253 76.246 25.905 76.2865C24.958 76.4084 24.49 77.04 24.6613 77.9659C24.763 78.5155 24.9481 78.6983 25.4933 78.724C25.7285 78.7343 25.9744 78.711 26.2024 78.6524C26.8567 78.4838 27.1208 78.0112 26.9538 77.3686ZM29.4797 39.9045C30.1974 39.4965 30.8602 39.1193 31.5284 38.7388C30.616 38.4944 29.701 38.2496 28.8184 38.0132C28.4286 38.5633 28.0648 39.0764 27.6457 39.6678C28.3574 39.5254 28.9635 39.4736 29.4797 39.9045ZM25.5116 44.0607C25.4429 43.8041 25.4047 43.6444 25.3571 43.4881C25.2543 43.1494 24.954 43.1196 24.6841 43.1208C24.4988 43.1216 24.2394 43.1803 24.1456 43.3101C23.9772 43.541 24.1357 43.8086 24.2747 44.0254C24.3903 44.2061 24.5733 44.3035 24.8 44.25C25.0114 44.1996 25.2203 44.1387 25.5116 44.0607ZM32.6477 42.1238C32.453 41.5935 32.3013 41.4934 31.8649 41.5987C31.4134 41.7081 30.9933 41.8821 30.6698 42.2719C30.7164 42.3824 30.7624 42.4919 30.8149 42.6151C31.4352 42.4486 32.0187 42.2923 32.6477 42.1238Z" fill="black"/>
<path fill-rule="evenodd" clip-rule="evenodd" d="M5.35189 9.34498C5.63542 9.36555 5.78377 9.35465 5.92034 9.39033C7.26562 9.74041 8.6257 10.0461 9.83369 10.7875C10.0841 10.9413 10.3762 11.0248 10.6447 11.1513C11.13 11.3797 11.6014 11.6403 12.0964 11.8434C12.8312 12.1451 13.568 12.4614 14.3328 12.6628C14.6513 12.7466 15.0816 12.6267 15.3962 12.4693C17.6145 11.3585 19.9962 10.8258 22.4175 10.4234C22.8199 10.3563 23.2294 10.3305 23.63 10.2558C24.7006 10.0566 25.7705 10.0937 26.842 10.2319C27.5193 10.3192 27.5258 10.2994 27.9016 9.70822C28.6681 8.50403 29.4594 7.31586 30.2289 6.11384C30.5388 5.63008 30.8176 5.12689 31.1128 4.63334C31.4916 3.99925 31.8719 3.36559 32.2827 2.67954C32.3698 2.78832 32.4315 2.83221 32.4479 2.88956C32.84 4.26222 33.2548 5.62931 33.6063 7.01258C33.942 8.3316 33.9212 9.69731 34.0201 11.0455C34.0407 11.3256 34.1111 11.527 34.3152 11.7234C34.8747 12.2627 35.4348 12.8051 35.9512 13.3848C37.0119 14.5756 37.8567 15.885 38.1316 17.5026C38.384 18.9879 38.5492 20.4661 38.3402 21.9777C38.1865 23.0946 38.1256 24.2251 38.0387 25.3508C37.9253 26.8246 37.3567 28.0637 36.2266 29.0412C35.2944 29.8472 34.2607 30.4829 33.1621 31.0364C30.7628 32.2464 28.231 33.0766 25.6372 33.736C25.2072 33.845 24.7602 33.8847 24.3232 33.9686C23.3773 34.1509 22.4395 34.4008 21.4852 34.5144C19.4761 34.7542 17.4597 34.8855 15.4526 34.4487C15.0729 34.366 14.6806 34.343 14.2994 34.268C12.9859 34.0113 12.0399 33.1859 11.2346 32.1923C9.97653 30.6399 9.14819 28.8276 8.23796 27.0679C8.06195 26.7271 7.98539 26.3337 7.87103 25.9622C7.55006 24.9173 7.25365 23.8644 6.9095 22.8276C6.44616 21.4325 6.64699 20.0827 7.11166 18.7405C7.48572 17.6598 8.09814 16.7511 9.04751 16.0936C9.27678 15.9348 9.32585 15.7647 9.17423 15.533C8.91112 15.1297 8.65269 14.7228 8.38589 14.3218C7.63638 13.1962 6.86562 12.0838 6.13987 10.9432C5.84689 10.4808 5.64974 9.95739 5.35189 9.34498ZM9.51016 26.946C9.60516 27.846 10.1899 28.6393 10.7758 29.4342C11.6046 30.5588 12.6988 31.2701 14.0656 31.5508C15.246 31.7935 16.3421 31.5238 17.2579 30.7844C18.408 29.8574 19.2342 28.6768 19.5534 27.1963C19.891 25.6311 19.5701 24.1739 18.7583 22.825C18.5339 22.4515 18.1876 22.1444 17.8689 21.8355C17.4581 21.4365 17.0595 21.0037 16.5834 20.6971C15.5887 20.0552 14.4645 19.7273 13.2931 19.572C13.1114 19.5481 12.919 19.5325 12.7402 19.5637C11.043 19.8597 9.90507 20.8368 9.44806 22.4885C9.05204 23.92 9.02326 25.3825 9.51016 26.946ZM37.3159 19.6605C37.2872 19.5533 37.2689 19.4417 37.2282 19.3391C36.6165 17.7867 35.672 16.4739 34.3484 15.4551C33.3496 14.6873 32.223 14.329 30.9562 14.5879C30.1555 14.7514 29.4586 15.0973 28.9315 15.7568C27.8453 17.1154 27.176 18.6158 27.1891 20.3925C27.1942 21.0799 27.1159 21.7737 27.3675 22.4279C27.9885 24.0433 28.9651 25.354 30.6194 26.0444C31.6837 26.4889 32.8113 26.7091 33.9382 26.5279C35.6717 26.2495 36.7482 25.1489 37.3107 23.5024C37.7495 22.2164 37.5698 20.94 37.3159 19.6605ZM22.3183 19.7707C22.3236 19.8065 22.3294 19.8422 22.3347 19.8782C22.066 19.9502 21.7963 20.0193 21.5287 20.0945C20.6772 20.3334 20.0771 20.8855 19.6236 21.6223C19.4779 21.8582 19.439 22.1057 19.5096 22.3691C19.664 22.9485 19.8875 23.4958 20.3003 23.9445C20.6887 24.3676 21.0925 24.7764 21.4793 25.2015C22.1903 25.9823 22.9176 26.7482 23.4375 27.6843C23.6244 28.0214 23.8679 28.3343 24.1255 28.6225C24.5084 29.0501 24.9639 28.9779 25.1535 28.4417C25.3192 27.9742 25.4257 27.48 25.5037 26.9891C25.6753 25.9117 25.7613 24.8235 26.0983 23.7708C26.3588 22.9567 26.4601 22.1039 26.348 21.2419C26.2011 20.1077 25.5494 19.5071 24.4094 19.5448C23.7106 19.5675 23.0153 19.6918 22.3183 19.7707ZM32.5152 7.22376C32.4808 7.23003 32.4466 7.23623 32.4124 7.24243C32.3168 6.88567 32.2545 6.5154 32.1161 6.17604C31.977 5.83391 31.7062 5.82368 31.4926 6.13333C30.77 7.18255 29.9461 8.16404 29.3686 9.31191C29.115 9.81645 29.1677 9.97219 29.7215 10.0482C30.6312 10.1725 31.488 10.4375 32.2701 10.9282C32.4386 11.0335 32.6476 11.1959 32.8212 11.0216C32.9297 10.9132 32.9239 10.6891 32.9646 10.5161C32.973 10.4818 32.9628 10.4427 32.9578 10.406C32.8106 9.3453 32.6627 8.28444 32.5152 7.22376ZM12.8381 13.6722C12.7647 13.303 12.5649 13.1538 12.3182 13.0433C11.8292 12.8237 11.3429 12.5989 10.854 12.3794C10.146 12.0608 9.44176 11.7331 8.72556 11.4342C8.4839 11.3334 8.19106 11.1422 7.95553 11.4135C7.72118 11.6831 7.93505 11.9499 8.08205 12.1705C8.69632 13.0913 9.3189 14.0068 9.96107 14.908C10.2183 15.2692 10.4271 15.2787 10.8174 15.0323C11.3333 14.7067 11.8481 14.3786 12.358 14.0433C12.5254 13.9334 12.6759 13.7987 12.8381 13.6722Z" fill="#AFD868"/>
<path fill-rule="evenodd" clip-rule="evenodd" d="M37.4659 29.0271C38.8949 29.773 40.0745 31.6153 40.2117 33.345C39.9687 33.4204 39.7149 33.5367 39.4499 33.5753C38.2398 33.751 37.0286 33.9213 35.8137 34.0567C35.4521 34.0972 35.0745 34.0372 34.7097 33.9861C34.159 33.9085 33.9853 33.9839 33.901 34.5336C33.7322 35.6335 33.2189 36.5568 32.5527 37.4229C32.2759 37.7827 31.9824 37.9743 31.5155 37.8413C30.7142 37.6122 29.9043 37.4145 29.1044 37.1817C28.5976 37.0344 28.5937 37.0095 28.2669 37.4215C27.7136 38.1179 27.1848 38.8343 26.6198 39.5204C26.3993 39.7876 26.1125 40.0023 25.8458 40.2288C25.7636 40.2983 25.6495 40.3647 25.5469 40.369C24.7754 40.4013 24.0085 40.4356 23.3058 39.9928C22.6634 39.5879 21.9983 39.2182 21.3315 38.854C21.0491 38.6999 20.8619 38.7668 20.6515 39.0222C20.5929 39.0935 20.5339 39.1683 20.4934 39.2504C20.1744 39.8957 19.651 40.3131 19.0207 40.6309C18.7583 40.7635 18.5287 40.9595 18.2847 41.1274C17.8598 41.4208 17.6958 41.4459 17.3132 41.0533C16.81 40.538 16.3536 39.974 15.9012 39.4108C15.5306 38.9485 15.1976 38.4563 14.8433 37.9796C14.8016 37.9233 14.7336 37.8852 14.6497 37.8144C13.5661 38.1832 12.5319 38.7637 11.315 38.8344C11.0479 37.1915 11.2393 35.6897 12.1869 34.293C12.3773 34.393 12.5007 34.475 12.6352 34.5261C13.1525 34.7227 13.6599 34.9667 14.1949 35.0906C16.5697 35.6388 18.9749 35.6655 21.3834 35.3796C22.1175 35.2921 22.8386 35.0962 23.5654 34.9487C24.7275 34.7125 25.9073 34.5396 27.0484 34.2255C29.4834 33.5552 31.8422 32.6781 34.0882 31.4976C35.3361 30.8412 36.4251 30.0036 37.4659 29.0271Z" fill="#DBD867"/>
<path fill-rule="evenodd" clip-rule="evenodd" d="M42.5557 58.1891C44.165 57.9386 45.3911 57.1554 46.3946 56.0118C46.447 56.053 46.4945 56.0713 46.4969 56.0947C46.5821 56.9056 46.7078 57.7157 46.7287 58.5285C46.744 59.1149 46.6483 59.7107 46.5484 60.2932C46.429 60.9896 46.0788 61.5909 45.5532 62.0556C45.0842 62.4701 45.0182 62.9481 45.1576 63.5107C45.304 64.0984 45.4367 64.6901 45.4812 65.3453C45.3687 65.2196 45.2556 65.0943 45.1441 64.968C44.9809 64.7834 44.8075 64.6022 44.5326 64.6592C44.2601 64.7149 44.1614 64.9474 44.0847 65.1807C44.0336 65.3362 44.0045 65.5002 43.945 65.7461C43.732 65.5632 43.557 65.4189 43.3894 65.2678C43.0113 64.9263 42.6349 64.9797 42.3967 65.4313C42.2513 65.707 42.1434 66.0016 41.975 66.3865C41.7383 65.9763 41.546 65.6458 41.3573 65.3131C41.2937 65.2005 41.2461 65.0781 41.1824 64.9652C40.9013 64.4697 40.772 64.4237 40.2441 64.6326C39.0893 65.089 37.9351 65.5487 36.779 66.0022C36.607 66.0699 36.4243 66.1115 36.2458 66.1599C34.1665 66.7176 32.0878 67.2743 30.0087 67.8314C29.8474 67.8746 29.6838 67.9123 29.5263 67.9663C29.0711 68.1234 28.9371 68.3065 28.9501 68.7908C28.9616 69.2114 28.9968 69.6312 29.028 70.1657C28.7662 69.9713 28.5964 69.835 28.4175 69.7136C27.9233 69.3777 27.5977 69.4889 27.4047 70.0549C27.3572 70.1935 27.3149 70.3337 27.2532 70.5272C26.968 70.3534 26.7115 70.1912 26.4492 70.0383C25.9106 69.7242 25.6318 69.7875 25.2837 70.3058C25.1608 70.4884 25.0518 70.6805 24.8792 70.9621C24.702 70.6359 24.5315 70.3828 24.4213 70.1054C24.1824 69.5026 23.9538 68.894 23.7609 68.2748C23.6381 67.8811 23.4336 67.6048 23.0769 67.3805C22.6744 67.1273 22.2919 66.8188 21.9634 66.4735C21.223 65.696 20.5179 64.884 19.8054 64.0799C19.6497 63.904 19.5233 63.7032 19.4102 63.4601C20.6588 63.8833 21.8887 64.2775 23.2411 63.6622C23.3154 63.9122 23.384 64.1503 23.4559 64.3864C23.6082 64.8862 23.8524 65.0567 24.3673 64.9565C25.6595 64.7049 26.9596 64.4811 28.2353 64.1606C31.9964 63.2165 35.7521 62.2522 39.497 61.2463C40.4942 60.9789 41.4504 60.5501 42.4147 60.1677C42.8871 59.9804 42.9624 59.7863 42.8479 59.2917C42.7695 58.9508 42.6698 58.6148 42.5557 58.1891Z" fill="#AFD868"/>
<path fill-rule="evenodd" clip-rule="evenodd" d="M38.6914 45.8105C39.0852 46.2616 39.3991 46.6893 39.6883 47.1309C40.2761 48.0304 40.8461 48.9418 41.4177 49.8524C41.7151 50.3253 42.0318 50.7746 42.4808 51.1257C42.9202 51.4693 43.3497 51.4292 43.831 51.1985C43.3208 50.7021 42.7848 50.2738 42.3676 49.7503C41.9444 49.2175 41.6378 48.5916 41.2944 48.0297C41.4478 46.8903 41.4619 45.7655 41.4324 44.6398C41.4181 44.0841 41.3998 43.5249 41.3191 42.9762C41.2134 42.2637 41.0671 41.5547 40.8962 40.8535C40.6679 39.9167 40.3997 38.9895 40.1479 38.0578C39.9515 37.3317 40.0961 36.6568 40.4854 36.0335C40.8232 35.4929 41.8383 35.4347 42.2008 35.9494C42.6048 36.5234 42.9826 37.119 43.3293 37.7296C43.7314 38.4384 44.0822 39.1757 44.4639 39.897C45.0736 41.0512 45.4781 42.2841 45.8526 43.5266C46.3131 45.0532 46.7961 46.576 47.1781 48.1223C47.4617 49.2714 47.6801 50.4487 47.7795 51.6258C47.8672 52.6666 47.5247 53.6445 46.7806 54.4304C46.2828 54.9553 45.7927 55.4895 45.2638 55.9812C44.3842 56.7975 43.3592 57.3113 42.1222 57.3634C42.0659 57.2461 42.0112 57.1505 41.9728 57.0486C41.6149 56.0942 41.2121 55.1534 40.9141 54.18C40.2803 52.1065 39.4294 50.1015 38.9725 47.9717C38.9077 47.6685 38.7402 47.3884 38.6286 47.0948C38.4754 46.692 38.4039 46.2894 38.6914 45.8105Z" fill="#DBD867"/>
<path fill-rule="evenodd" clip-rule="evenodd" d="M11.8617 42.0699C12.8032 41.7462 13.1762 41.8169 13.656 42.558C14.046 43.1611 14.3526 43.8254 14.6388 44.4867C15.0591 45.4587 15.3271 46.4711 15.4397 47.5363C15.5151 48.2496 15.7816 48.9399 15.9197 49.6485C16.2108 51.1388 16.9798 52.4086 17.7347 53.6862C17.782 53.766 17.8261 53.861 17.8983 53.9093C18.3778 54.2282 18.371 54.706 18.338 55.1967C18.3106 55.6037 18.2786 56.0108 18.2643 56.4183C18.2547 56.6905 18.2719 56.9631 18.2779 57.2711C18.7297 56.9958 19.0569 56.4721 19.1109 55.8655C19.1583 55.3318 19.1365 54.7924 19.1431 54.2556C19.1534 53.4043 19.1514 52.5524 19.1777 51.7019C19.1845 51.4857 19.2535 51.2612 19.3406 51.0607C19.4974 50.6999 19.6321 50.6501 20.1342 50.7075C20.1569 50.8576 20.2053 51.0191 20.202 51.1799C20.1764 52.2831 20.5487 53.3003 20.9145 54.3081C21.3007 55.3699 21.8341 56.3805 22.1879 57.4512C22.6061 58.7162 22.9272 60.0162 23.2358 61.3137C23.3599 61.8362 23.1304 62.3353 22.8334 62.7789C22.6205 63.0962 22.2835 63.1377 21.9459 63.1438C21.0078 63.161 20.1567 62.8802 19.3815 62.3599C18.6124 61.8436 17.8333 61.341 17.0797 60.803C15.8186 59.9037 14.7818 58.7898 14.2016 57.3408C13.6229 55.8968 13.0934 54.4348 12.6933 52.9224C12.3019 51.4447 12.1085 49.939 11.8439 48.4424C11.6623 47.4132 11.6145 46.3805 11.6635 45.3387C11.6986 44.5982 11.7038 43.8558 11.741 43.1148C11.7589 42.767 11.8199 42.4212 11.8617 42.0699Z" fill="#DBD867"/>
<path fill-rule="evenodd" clip-rule="evenodd" d="M34.4023 61.7219C33.4787 61.9693 32.5717 62.2124 31.5988 62.4731C31.3817 61.8794 31.1361 61.3229 30.9735 60.7435C30.5067 59.0819 30.0631 57.4143 29.6329 55.7431C29.4947 55.2063 29.4271 54.6522 29.3269 54.106C29.2866 53.8873 29.2601 53.6647 29.2009 53.4505C28.7701 51.8952 28.325 50.3437 27.9003 48.7861C27.6028 47.6947 27.3245 46.5976 27.0519 45.4998C26.9812 45.2149 26.9634 44.9171 26.9171 44.5951C27.8125 44.3552 28.6825 44.1221 29.59 43.8789C29.6456 44.0169 29.7111 44.1447 29.7488 44.2805C29.8788 44.7453 29.9945 45.2135 30.1245 45.6786C30.6019 47.3937 31.0974 49.1041 31.5593 50.824C32.502 54.3363 33.4277 57.8532 34.3582 61.3693C34.3857 61.4728 34.3857 61.5845 34.4023 61.7219Z" fill="#C66767"/>
<path fill-rule="evenodd" clip-rule="evenodd" d="M41.9168 59.4506C41.7354 59.5434 41.5794 59.6367 41.4129 59.7065C39.5568 60.4883 37.5821 60.8718 35.6566 61.4225C35.3853 61.5 35.2282 61.4089 35.1587 61.1436C35.1301 61.0356 35.0988 60.9291 35.0701 60.8217C34.5751 58.9753 34.0804 57.1291 33.5856 55.2827C33.5388 55.1078 33.4917 54.9322 33.432 54.7093C35.5831 54.319 37.6241 53.7475 39.6215 52.9254C40.3911 55.1143 41.14 57.2421 41.9168 59.4506Z" fill="#E88080"/>
<path fill-rule="evenodd" clip-rule="evenodd" d="M19.4764 49.8527C18.7621 50.1387 18.4925 50.6931 18.3852 51.3404C18.3102 51.7903 18.2918 52.2499 18.2378 52.8121C17.6749 51.9765 17.2339 51.2029 16.9746 50.3359C16.7836 49.6967 16.6007 49.0554 16.4253 48.4118C16.3722 48.2168 16.3284 48.0117 16.3254 47.8103C16.3035 46.3481 15.8163 45.0147 15.2091 43.7129C15.0605 43.3946 14.9347 43.0611 14.7529 42.7619C14.5145 42.3693 14.2667 41.9711 13.9589 41.6334C13.5416 41.176 13.0053 40.9365 12.3586 41.047C12.2905 41.0587 12.2185 41.0454 12.1107 41.0427C12.1916 40.4801 12.3836 39.987 12.6081 39.5056C12.6365 39.4446 12.7007 39.3843 12.7626 39.3577C13.2713 39.1416 13.7828 38.9323 14.3198 38.7102C14.5653 39.0278 14.7964 39.3367 15.038 39.6374C15.5247 40.2434 16.012 40.8492 16.5114 41.4448C16.6408 41.5987 16.8059 41.7281 16.9708 41.8451C17.6393 42.3202 18.0019 42.3217 18.6905 41.8597C18.8752 41.7366 19.0376 41.5761 19.2309 41.4704C19.9999 41.0483 20.7553 40.6159 21.1498 39.7363C21.5632 39.9537 21.9337 40.1481 22.3709 40.3777C21.6076 40.8451 21.0394 41.4083 20.653 42.1372C20.3789 42.6561 20.2223 43.1956 20.3481 43.795C20.4317 44.1933 20.5957 44.5279 20.9316 44.7691C21.0022 44.82 21.0594 44.8886 21.1414 44.9663C20.6073 45.1095 20.1199 45.2538 19.6252 45.3691C18.9637 45.524 18.8863 45.6426 18.9319 46.3242C19.0028 47.3795 19.0928 48.4281 19.4287 49.441C19.4683 49.5598 19.4598 49.6942 19.4764 49.8527Z" fill="#AFD868"/>
<path fill-rule="evenodd" clip-rule="evenodd" d="M35.9607 41.355C35.898 40.864 35.8876 40.4178 35.7768 39.9991C35.604 39.3502 35.174 38.89 34.5162 38.7033C34.1272 38.5929 33.7206 38.5427 33.3201 38.4772C33.1644 38.4517 33.0041 38.4591 32.7845 38.4478C33.656 37.3557 34.4877 36.3072 34.6465 34.9074C35.2019 34.8929 35.7152 34.8864 36.2277 34.8648C37.4917 34.8109 38.7333 34.6041 39.9579 34.2935C40.5343 34.1469 40.6251 34.1891 40.9693 34.767C40.9265 34.7944 40.8859 34.8403 40.8397 34.8479C40.1736 34.9495 39.8239 35.4013 39.569 35.9698C39.2732 36.6299 39.1407 37.3091 39.294 38.0271C39.3329 38.2084 39.375 38.3888 39.4188 38.5691C39.746 39.9203 40.1155 41.2621 40.3895 42.6238C40.6601 43.9678 40.6583 45.3367 40.5535 46.8407C40.3599 46.5959 40.2378 46.4482 40.1232 46.2953C39.9459 46.0583 39.7761 45.815 39.5982 45.5779C39.2253 45.08 39.0534 44.9888 38.3984 44.9567C38.2307 44.3307 38.0589 43.6886 37.8866 43.0466C37.7856 42.6708 37.6911 42.2927 37.5817 41.9189C37.39 41.2616 37.2186 41.1514 36.5346 41.2433C36.3358 41.2701 36.1392 41.3195 35.9607 41.355Z" fill="#AFD868"/>
<path fill-rule="evenodd" clip-rule="evenodd" d="M21.2084 52.5837C21.1523 52.2377 21.0912 51.935 21.0567 51.6291C21.0213 51.316 21.0199 50.9998 20.9891 50.6864C20.9572 50.3613 20.8552 50.077 20.5345 49.9059C20.4355 49.8534 20.3413 49.7263 20.3141 49.6158C20.041 48.5211 19.7277 47.4312 19.8242 46.2202C21.8695 45.7682 23.9404 45.3112 26.085 44.8374C26.3847 46.9469 27.0973 48.9351 27.7142 51.0273C27.3311 51.1705 26.9992 51.3284 26.6493 51.4176C25.7692 51.6421 24.8824 51.8409 23.9956 52.0386C23.2716 52.1997 22.544 52.3461 21.8173 52.4942C21.6389 52.5298 21.4574 52.548 21.2084 52.5837Z" fill="#E88080"/>
<path fill-rule="evenodd" clip-rule="evenodd" d="M28.8223 56.1088C29.4518 58.3473 30.0514 60.4817 30.6665 62.6686C28.6232 63.3183 26.4761 63.6832 24.2734 64.1001C24.1294 63.437 23.7242 62.8547 24.0039 62.1272C24.1654 61.7075 24.1239 61.257 24.0005 60.8144C23.7516 59.9216 23.524 59.0232 23.2876 58.1268C23.2412 57.9513 23.1937 57.7763 23.1539 57.6276C25.0652 57.1155 26.9192 56.6187 28.8223 56.1088Z" fill="#E88080"/>
<path fill-rule="evenodd" clip-rule="evenodd" d="M38.1865 48.2241C37.588 48.3845 37.076 48.5419 36.5552 48.6572C35.2874 48.9376 34.0157 49.1991 32.7457 49.4679C32.6551 49.4871 32.5642 49.5092 32.4727 49.52C32.0842 49.5645 32.0299 49.53 31.9135 49.1578C31.8742 49.0343 31.8443 48.9077 31.8112 48.7821C31.4041 47.2398 30.9959 45.6972 30.5907 44.1539C30.5495 43.9969 30.5233 43.8357 30.4835 43.6441C32.5237 42.9394 34.6316 42.6286 36.7079 42.0655C36.7724 42.2432 36.8312 42.3749 36.8687 42.5129C37.0741 43.2642 37.2699 44.0183 37.4768 44.7694C37.6244 45.3058 37.7422 45.83 37.6821 46.4067C37.6436 46.7695 37.8128 47.1585 37.9124 47.5299C37.9688 47.7397 38.0713 47.9371 38.1865 48.2241Z" fill="#E88080"/>
<path fill-rule="evenodd" clip-rule="evenodd" d="M27.939 51.978C28.2652 53.0302 28.5664 54.0952 28.5853 55.2575C28.5105 55.2932 28.4197 55.3531 28.3201 55.3798C26.6721 55.8181 25.0236 56.2566 23.3732 56.6859C22.8934 56.8104 22.8483 56.7861 22.6584 56.3378C22.3182 55.5362 21.9887 54.7303 21.6621 53.9228C21.602 53.7752 21.5762 53.6133 21.5268 53.4289C23.6659 52.9447 25.7723 52.468 27.939 51.978Z" fill="#C66767"/>
<path fill-rule="evenodd" clip-rule="evenodd" d="M38.3751 49.0921C38.6841 50.1073 38.9848 51.0967 39.301 52.1381C37.3449 52.9602 35.3401 53.5332 33.2452 53.8713C32.9226 52.6674 32.627 51.5645 32.3223 50.427C34.3576 49.9782 36.3554 49.538 38.3751 49.0921Z" fill="#C66767"/>
<path fill-rule="evenodd" clip-rule="evenodd" d="M44.823 65.8702C45.0018 66.1189 45.1524 66.2482 45.2014 66.409C45.5634 67.5737 45.9039 68.745 46.2566 69.9292C45.4796 70.228 44.7456 70.5104 43.9602 70.8117C43.938 70.7845 43.8439 70.714 43.8155 70.6221C43.4781 69.5452 43.1611 68.4617 42.8152 67.3873C42.6909 67.0016 42.7325 66.666 42.957 66.32C43.2553 66.3234 43.4651 66.4926 43.6765 66.6768C44.2343 67.1632 44.5721 67.0371 44.7287 66.2924C44.7477 66.204 44.768 66.1158 44.823 65.8702Z" fill="#FFBD66"/>
<path fill-rule="evenodd" clip-rule="evenodd" d="M30.0257 42.8166C28.7269 43.1646 27.5543 43.4788 26.3366 43.8051C26.1275 43.0449 25.9089 42.3239 25.8888 41.5583C25.8825 41.3063 25.9685 41.1341 26.2253 41.054C26.8788 40.8494 27.5258 40.6241 28.1816 40.4289C28.5582 40.3169 28.8944 40.4091 29.0784 40.7848C29.3935 41.4314 29.6868 42.0885 30.0257 42.8166Z" fill="#C66767"/>
<path fill-rule="evenodd" clip-rule="evenodd" d="M29.282 74.0755C28.4935 74.3782 27.7723 74.6553 27.0057 74.9494C26.7045 74.6426 26.5981 74.1771 26.4549 73.7533C26.2062 73.0172 26.0327 72.2552 25.8331 71.5022C25.7634 71.2399 25.763 70.9868 26.0438 70.7727C26.2339 70.8954 26.4323 71.0261 26.6328 71.1525C26.7889 71.2512 26.939 71.3682 27.1088 71.4343C27.4956 71.5858 27.7393 71.4849 27.9349 71.1129C28.0113 70.9684 28.0676 70.8123 28.175 70.564C28.3146 70.7429 28.4687 70.858 28.5076 71.004C28.7783 72.0225 29.0256 73.047 29.282 74.0755Z" fill="#FFBD66"/>
<path fill-rule="evenodd" clip-rule="evenodd" d="M25.0286 41.2589C25.049 41.6208 25.0667 41.9302 25.0858 42.2702C24.4732 42.2947 23.8238 42.1818 23.4282 42.8028C23.052 43.3933 23.283 43.9373 23.5723 44.4706C22.5397 45.062 22.0227 44.6652 21.3313 43.9868C21.0958 43.7551 21.1075 43.4084 21.1739 43.0895C21.4181 41.9117 22.5028 41.0467 23.6922 41.1039C24.13 41.1246 24.5651 41.2036 25.0286 41.2589Z" fill="#C66767"/>
<path fill-rule="evenodd" clip-rule="evenodd" d="M30.3142 41.3045C30.2239 41.1154 30.1232 40.9045 30.0131 40.6738C30.6585 40.0775 31.3895 39.715 32.2002 39.4778C32.8017 39.3023 33.3887 39.2831 34.0068 39.405C35.0545 39.6126 35.2562 40.7127 34.9327 41.4659C34.8883 41.5687 34.7659 41.6805 34.6597 41.7071C34.2864 41.7993 33.9048 41.8562 33.5544 41.9215C33.3864 41.6265 33.292 41.3485 33.1066 41.1598C32.7382 40.7852 32.2704 40.5913 31.739 40.7609C31.2844 40.9059 30.8455 41.0993 30.3142 41.3045Z" fill="#C66767"/>
<path fill-rule="evenodd" clip-rule="evenodd" d="M30.9295 75.9082C30.6086 74.7657 30.5507 74.937 31.5063 74.5062C31.7915 74.378 32.098 74.2902 32.4012 74.209C32.822 74.0968 33.1494 74.1994 33.3505 74.5757C33.54 74.9299 33.672 75.3209 33.7833 75.709C33.8691 76.0069 33.7006 76.2397 33.4653 76.4241C32.9032 76.8646 32.2342 76.9058 31.5678 76.8913C31.4213 76.8882 31.2353 76.6781 31.1461 76.5192C31.0218 76.2969 30.9714 76.0334 30.9295 75.9082Z" fill="#FFBD66"/>
<path fill-rule="evenodd" clip-rule="evenodd" d="M47.6562 70.7592C48.2036 70.416 48.814 70.2023 49.4371 70.0429C49.8152 69.9456 50.1413 70.133 50.3152 70.4771C50.4815 70.8047 50.5985 71.1589 50.7148 71.5096C50.8062 71.7852 50.6989 72.0287 50.4924 72.2102C49.9066 72.7261 49.1807 72.7685 48.4536 72.76C48.3416 72.7587 48.1688 72.6087 48.1324 72.4941C47.9568 71.9345 47.8181 71.3635 47.6562 70.7592Z" fill="#FFBD66"/>
<path fill-rule="evenodd" clip-rule="evenodd" d="M44.6266 72.6949C44.5899 72.5831 44.572 72.5305 44.5551 72.4773C44.291 71.6307 44.2962 71.5918 45.111 71.2231C45.4289 71.0791 45.7767 70.9964 46.1174 70.9113C46.4509 70.8276 46.6581 70.9156 46.786 71.2367C46.9294 71.596 47.0323 71.9748 47.1162 72.3533C47.1445 72.4811 47.1072 72.6739 47.0228 72.7675C46.6078 73.2246 46.145 73.6277 45.495 73.7008C45.0147 73.7548 44.8815 73.6502 44.7541 73.1718C44.7064 72.9928 44.6585 72.8139 44.6266 72.6949Z" fill="#FFBD66"/>
<path fill-rule="evenodd" clip-rule="evenodd" d="M30.0114 75.958C30.2815 76.827 30.2665 76.8639 29.5207 77.4245C29.1702 77.6875 28.7893 77.853 28.3424 77.8365C28.0949 77.8276 27.929 77.7337 27.8651 77.4693C27.7605 77.0384 27.641 76.6107 27.509 76.1874C27.4245 75.9174 27.4619 75.7027 27.7359 75.5953C28.2494 75.3952 28.7652 75.1979 29.2908 75.0328C29.5647 74.947 29.7528 75.1288 29.8495 75.3709C29.9238 75.5586 29.9588 75.7617 30.0114 75.958Z" fill="#FFBD66"/>
<path fill-rule="evenodd" clip-rule="evenodd" d="M43.9261 73.2238C44.0539 73.8203 43.8101 74.3084 43.236 74.4876C42.9933 74.5631 42.7267 74.6028 42.4733 74.5919C41.9337 74.5704 41.6144 74.3663 41.5716 73.7727C41.5112 72.9203 41.7792 72.4392 42.5757 72.2055C43.0442 72.0679 43.3075 72.137 43.5877 72.5346C43.7333 72.7415 43.8157 72.9929 43.9261 73.2238Z" fill="#FFBD66"/>
<path fill-rule="evenodd" clip-rule="evenodd" d="M26.9538 77.3686C27.1206 78.0113 26.8568 78.4838 26.2027 78.6523C25.9746 78.7107 25.7288 78.7343 25.4936 78.7239C24.9482 78.6983 24.7633 78.5154 24.6616 77.9658C24.4903 77.0399 24.958 76.4082 25.9053 76.2865C26.2259 76.2459 26.5934 76.4734 26.7731 76.8473C26.8525 77.0115 26.8945 77.1944 26.9538 77.3686Z" fill="#FFBD66"/>
<path fill-rule="evenodd" clip-rule="evenodd" d="M29.4799 39.9043C28.964 39.4733 28.3579 39.5252 27.6459 39.6677C28.0651 39.0764 28.4287 38.5635 28.8186 38.013C29.7012 38.2495 30.6164 38.4942 31.5287 38.7387C30.8605 39.1191 30.1976 39.4963 29.4799 39.9043Z" fill="#AFD868"/>
<path fill-rule="evenodd" clip-rule="evenodd" d="M25.5115 44.0605C25.2199 44.1386 25.0114 44.1996 24.8002 44.2498C24.5734 44.3032 24.3904 44.2059 24.2748 44.0251C24.1359 43.8084 23.9773 43.5407 24.1457 43.3098C24.2396 43.18 24.4989 43.1213 24.6842 43.1205C24.9539 43.1197 25.2544 43.1492 25.3573 43.4878C25.4046 43.6442 25.4428 43.8039 25.5115 44.0605Z" fill="#AFD868"/>
<path fill-rule="evenodd" clip-rule="evenodd" d="M32.6478 42.1236C32.0188 42.2922 31.4356 42.4484 30.8152 42.6147C30.7628 42.4915 30.7165 42.382 30.6701 42.2715C30.9936 41.8817 31.4135 41.7077 31.8652 41.5983C32.3012 41.4933 32.4529 41.5934 32.6478 42.1236Z" fill="#AFD868"/>
<path fill-rule="evenodd" clip-rule="evenodd" d="M9.51055 26.9466C9.02366 25.3831 9.05244 23.9206 9.44859 22.4896C9.9056 20.8379 11.0436 19.8607 12.7408 19.5648C12.9195 19.5336 13.1117 19.5493 13.2936 19.5731C14.4651 19.7284 15.5892 20.0563 16.584 20.6982C17.0601 21.0048 17.4586 21.4376 17.8695 21.8366C18.1879 22.1455 18.5342 22.4526 18.7588 22.826C19.5706 24.175 19.8914 25.632 19.554 27.1974C19.235 28.6778 18.4084 29.8582 17.2585 30.7855C16.3429 31.5248 15.2467 31.7945 14.0662 31.5518C12.6993 31.2712 11.6051 30.5599 10.7763 29.4353C10.1905 28.6399 9.60556 27.8466 9.51055 26.9466ZM10.3162 26.6997C10.4024 27.5196 10.9239 28.2419 11.4596 28.9594C12.1544 29.8896 13.0658 30.4792 14.1991 30.7318C15.1116 30.9349 15.983 30.7341 16.6708 30.1803C18.305 28.8653 19.3596 26.9068 18.6057 24.5683C18.4543 24.0976 18.309 23.5746 17.9993 23.2148C17.1929 22.2784 16.3639 21.3423 15.1592 20.8678C14.4272 20.5793 13.6735 20.3105 12.8942 20.4031C11.5522 20.5623 10.6422 21.3549 10.2704 22.6472C9.89597 23.9499 9.87204 25.2806 10.3162 26.6997Z" fill="black"/>
<path fill-rule="evenodd" clip-rule="evenodd" d="M37.3162 19.6607C37.57 20.9401 37.7495 22.2168 37.3107 23.5026C36.7482 25.1491 35.6717 26.25 33.9382 26.5282C32.8113 26.7093 31.6836 26.4891 30.6194 26.0446C28.9651 25.3542 27.9886 24.0438 27.3674 22.4281C27.1161 21.7738 27.1943 21.0803 27.1891 20.3928C27.1763 18.6159 27.8453 17.1156 28.9315 15.757C29.4586 15.0975 30.1555 14.7517 30.9562 14.5881C32.223 14.3293 33.3494 14.6876 34.3484 15.4553C35.6719 16.4738 36.6167 17.7868 37.2282 19.3393C37.2691 19.4419 37.2874 19.5532 37.3162 19.6607ZM28.0308 21.8987C28.4946 22.8495 28.8448 23.7702 29.6218 24.4378C30.8189 25.4669 32.2343 25.829 33.7632 25.7111C34.5328 25.6515 35.2317 25.2771 35.7291 24.6647C36.9964 23.1055 36.9847 21.324 36.3942 19.5488C35.9888 18.3288 35.2109 17.2963 34.2248 16.4309C33.6212 15.9015 32.963 15.506 32.1765 15.3785C31.2472 15.2282 30.3842 15.4716 29.7095 16.1194C29.1767 16.631 28.8069 17.2794 28.4912 17.9653C28.1211 18.7697 28.0825 19.6119 28.0344 20.4599C28.0065 20.9557 28.0306 21.4541 28.0308 21.8987Z" fill="black"/>
<path fill-rule="evenodd" clip-rule="evenodd" d="M22.3183 19.771C23.0153 19.6921 23.7106 19.5678 24.4093 19.5448C25.5493 19.5071 26.2011 20.108 26.348 21.2419C26.4601 22.1042 26.3587 22.9567 26.0982 23.7708C25.7609 24.8236 25.6752 25.9117 25.5036 26.9891C25.4256 27.48 25.3191 27.9742 25.1534 28.4417C24.9641 28.9781 24.5083 29.0501 24.1254 28.6225C23.8675 28.3343 23.6243 28.0214 23.4374 27.6843C22.9175 26.7482 22.1902 25.9821 21.4792 25.2015C21.0924 24.7766 20.6887 24.3676 20.3002 23.9445C19.8874 23.4959 19.6639 22.9485 19.5095 22.3691C19.4392 22.1056 19.4778 21.8585 19.6235 21.6223C20.0773 20.8854 20.6774 20.3333 21.5286 20.0945C21.7962 20.0193 22.0659 19.9502 22.3346 19.8782C22.3294 19.8424 22.3238 19.8067 22.3183 19.771ZM24.5373 27.8067C24.5866 27.557 24.6277 27.3964 24.649 27.2334C24.821 25.9319 24.9437 24.6216 25.3703 23.3658C25.4648 23.0884 25.5131 22.7845 25.5202 22.4911C25.5309 22.032 25.5021 21.5702 25.4654 21.1114C25.4377 20.7593 25.205 20.538 24.8888 20.4305C24.6656 20.3544 24.4222 20.2983 24.188 20.2979C23.1862 20.2969 22.2535 20.6232 21.3411 20.9858C21.0655 21.0955 20.8396 21.3553 20.6203 21.5756C20.3469 21.8503 20.3137 22.1895 20.43 22.5569C20.5806 23.0326 20.893 23.3944 21.225 23.7466C22.3559 24.9442 23.5455 26.094 24.3298 27.5727C24.3626 27.6349 24.4247 27.6813 24.5373 27.8067Z" fill="black"/>
<path fill-rule="evenodd" clip-rule="evenodd" d="M32.5156 7.22404C32.6631 8.28497 32.8109 9.34558 32.9581 10.4063C32.9631 10.443 32.9736 10.482 32.965 10.5164C32.9243 10.6896 32.9301 10.9135 32.8216 11.0219C32.648 11.1962 32.4386 11.0339 32.2705 10.9285C31.4882 10.4375 30.6314 10.1725 29.7218 10.0484C29.1678 9.97253 29.115 9.81679 29.3689 9.31218C29.9464 8.16431 30.7704 7.18282 31.4929 6.1336C31.7066 5.82395 31.9773 5.83418 32.1165 6.17631C32.2549 6.51567 32.3171 6.88594 32.4127 7.2427C32.4469 7.2365 32.4811 7.2303 32.5156 7.22404ZM31.7335 6.84117C31.0072 7.7234 30.3803 8.52884 29.9894 9.44902C30.7981 9.71152 31.5623 9.95923 32.373 10.2223C32.2763 9.09565 32.1043 8.00973 31.7335 6.84117Z" fill="black"/>
<path fill-rule="evenodd" clip-rule="evenodd" d="M12.8383 13.6727C12.6762 13.7992 12.5257 13.934 12.3585 14.0437C11.8486 14.3788 11.3338 14.7069 10.8179 15.0328C10.4276 15.2792 10.2188 15.2696 9.96158 14.9085C9.3194 14.0073 8.69657 13.0918 8.08256 12.1709C7.93555 11.9504 7.72143 11.6836 7.95603 11.4139C8.19156 11.1426 8.48447 11.3341 8.72606 11.4347C9.44226 11.7335 10.1465 12.0612 10.8545 12.3798C11.3434 12.5994 11.8297 12.8242 12.3187 13.0437C12.5651 13.1543 12.765 13.3035 12.8383 13.6727ZM8.83699 12.068C8.80752 12.112 8.77807 12.1561 8.74829 12.1999C9.3164 12.9837 9.88412 13.767 10.4685 14.5733C10.9826 14.2358 11.478 13.9105 12.0434 13.5392C10.9132 13.0207 9.87524 12.5443 8.83699 12.068Z" fill="black"/>
<path fill-rule="evenodd" clip-rule="evenodd" d="M10.3161 26.699C9.87191 25.2799 9.89558 23.9492 10.2707 22.6461C10.6424 21.3535 11.5525 20.5612 12.8945 20.4019C13.6738 20.3093 14.4275 20.5782 15.1595 20.8666C16.3642 21.3412 17.1932 22.2773 17.9996 23.2137C18.3093 23.5735 18.4546 24.0965 18.606 24.5672C19.3596 26.9057 18.3053 28.8641 16.6711 30.1792C15.983 30.733 15.1119 30.9338 14.1994 30.7307C13.0661 30.4781 12.1547 29.8885 11.4599 28.9583C10.9237 28.2412 10.4023 27.5188 10.3161 26.699ZM13.6515 26.5684C13.4667 25.9883 13.4732 25.4925 13.5483 24.9918C13.5888 24.7213 13.6682 24.4789 13.9712 24.4042C14.3023 24.3225 14.5581 24.4772 14.7473 24.7194C14.8821 24.8912 14.9691 25.1033 15.0637 25.3034C15.2614 25.7223 15.4355 26.1524 15.6475 26.5632C15.7799 26.82 16.0021 26.8934 16.1994 26.7914C16.4115 26.6823 16.5001 26.4876 16.4042 26.2787C16.0811 25.5722 15.7908 24.8408 15.3788 24.1878C15.0589 23.6802 14.4915 23.4507 13.87 23.5614C13.3166 23.6598 12.9256 23.9962 12.7861 24.5543C12.5072 25.6672 12.7013 26.7237 13.2297 27.7255C13.3629 27.9781 13.5747 28.0551 13.7788 27.9672C13.9861 27.8774 14.0684 27.6715 13.994 27.4037C13.9691 27.3157 13.9208 27.2343 13.886 27.1487C13.7955 26.9265 13.7058 26.7027 13.6515 26.5684Z" fill="white"/>
<path fill-rule="evenodd" clip-rule="evenodd" d="M28.031 21.8986C28.0305 21.454 28.0067 20.9556 28.0346 20.4598C28.0826 19.6118 28.1212 18.7696 28.4914 17.9652C28.807 17.2793 29.1767 16.631 29.7096 16.1193C30.3845 15.4717 31.2473 15.2281 32.1767 15.3784C32.9631 15.5056 33.6214 15.9014 34.2249 16.4308C35.211 17.2962 35.989 18.3287 36.3943 19.5487C36.9849 21.3241 36.9965 23.1053 35.7292 24.6646C35.2318 25.2768 34.5329 25.6514 33.7634 25.711C32.2345 25.8289 30.8191 25.4668 29.6219 24.4377C28.8449 23.77 28.495 22.8494 28.031 21.8986ZM31.623 21.809C31.3622 21.1707 31.416 20.5161 31.5328 19.9747C31.5864 19.727 31.6794 19.5164 31.9523 19.44C32.2398 19.3597 32.4737 19.4766 32.6492 19.6758C32.78 19.8239 32.8692 20.017 32.946 20.203C33.1439 20.6817 33.3093 21.1743 33.5172 21.6485C33.6507 21.9525 33.8599 22.0347 34.0856 21.936C34.3064 21.8401 34.3761 21.6373 34.2697 21.3217C34.1572 20.9886 34.0309 20.6601 33.8997 20.3336C33.7762 20.0245 33.6694 19.7026 33.5013 19.4184C33.1777 18.8717 32.6823 18.5506 32.0368 18.572C31.4746 18.5902 31.0318 18.8739 30.8382 19.4152C30.4287 20.558 30.5607 21.6754 31.0818 22.7557C31.1826 22.9651 31.3713 23.0494 31.5922 22.9651C31.8126 22.8799 31.8912 22.693 31.8317 22.4668C31.7747 22.2524 31.6983 22.0425 31.623 21.809Z" fill="white"/>
<path fill-rule="evenodd" clip-rule="evenodd" d="M24.5376 27.8068C24.425 27.6814 24.3629 27.6349 24.3302 27.5731C23.5458 26.0941 22.3563 24.9446 21.2254 23.7469C20.8934 23.3947 20.581 23.033 20.4304 22.5572C20.3141 22.1896 20.3473 21.8506 20.6207 21.5759C20.8397 21.3557 21.066 21.0961 21.3415 20.9861C22.2539 20.6233 23.1866 20.297 24.1884 20.2982C24.4225 20.2986 24.6659 20.3545 24.8892 20.4308C25.2054 20.5383 25.4382 20.7599 25.4658 21.1117C25.5025 21.5705 25.5313 22.0323 25.5206 22.4914C25.5137 22.7848 25.4652 23.0887 25.3707 23.3662C24.9441 24.6222 24.8213 25.9322 24.6494 27.2338C24.628 27.3965 24.5872 27.5571 24.5376 27.8068Z" fill="#FFBD66"/>
<path fill-rule="evenodd" clip-rule="evenodd" d="M31.7333 6.84102C32.1044 8.00977 32.2762 9.0955 32.3731 10.222C31.5624 9.95901 30.7981 9.71105 29.9895 9.44881C30.3799 8.52876 31.0067 7.72332 31.7333 6.84102Z" fill="#9CBC5E"/>
<path fill-rule="evenodd" clip-rule="evenodd" d="M8.83692 12.0679C9.87517 12.5442 10.9132 13.0206 12.0436 13.5391C11.4781 13.9101 10.9828 14.2356 10.4687 14.5732C9.8843 13.7668 9.31658 12.9835 8.74847 12.1998C8.77793 12.1557 8.80746 12.112 8.83692 12.0679Z" fill="#9CBC5E"/>
<path fill-rule="evenodd" clip-rule="evenodd" d="M13.6515 26.5689C13.7058 26.7032 13.7954 26.927 13.8866 27.1495C13.9214 27.2351 13.9697 27.3166 13.9946 27.4045C14.069 27.6721 13.9864 27.8784 13.7794 27.9681C13.5753 28.0559 13.3635 27.9789 13.2303 27.7264C12.7019 26.7243 12.5078 25.6681 12.7867 24.5552C12.9262 23.9971 13.3169 23.6607 13.8706 23.5623C14.4921 23.4516 15.0592 23.6812 15.3794 24.1886C15.7915 24.8419 16.0818 25.5733 16.4048 26.2796C16.5007 26.4885 16.4121 26.6832 16.2 26.7923C16.0026 26.894 15.7805 26.8208 15.6481 26.564C15.436 26.153 15.262 25.7229 15.0643 25.3042C14.9696 25.1039 14.8827 24.892 14.7479 24.7202C14.5585 24.4781 14.3026 24.3234 13.9718 24.4051C13.6688 24.4798 13.5896 24.7218 13.549 24.9927C13.4732 25.493 13.4666 25.9887 13.6515 26.5689Z" fill="black"/>
<path fill-rule="evenodd" clip-rule="evenodd" d="M31.6229 21.8088C31.6982 22.0426 31.7747 22.2524 31.8312 22.4665C31.8908 22.6929 31.8125 22.8797 31.5918 22.9648C31.3711 23.049 31.1824 22.9647 31.0813 22.7553C30.5605 21.6749 30.4282 20.5576 30.8377 19.4148C31.0314 18.8735 31.4744 18.5898 32.0364 18.5716C32.6819 18.5504 33.1772 18.8713 33.5009 19.418C33.6692 19.7021 33.7757 20.0241 33.8993 20.3332C34.0302 20.6598 34.1568 20.9883 34.2692 21.3214C34.3756 21.6369 34.3059 21.8398 34.0851 21.9356C33.8595 22.0344 33.6503 21.9521 33.5168 21.6481C33.3088 21.1739 33.1434 20.6814 32.9456 20.2026C32.8685 20.0167 32.7795 19.8235 32.6487 19.6754C32.4732 19.4763 32.2393 19.3593 31.9518 19.4396C31.6789 19.516 31.586 19.7267 31.5323 19.9743C31.4159 20.516 31.3621 21.1705 31.6229 21.8088Z" fill="black"/>
</svg>
