<svg width="46" height="76" viewBox="0 0 46 76" fill="none" xmlns="http://www.w3.org/2000/svg">
<path fill-rule="evenodd" clip-rule="evenodd" d="M37.9693 29.8243C38.1678 30.169 38.3922 30.5623 38.6201 30.9533C38.7957 31.2552 38.972 31.5572 39.1532 31.856C39.6922 32.7434 39.6724 33.6853 39.4023 34.6393C39.2842 35.056 39.0248 35.3855 38.5987 35.5511C38.503 35.5879 38.4117 35.6369 38.2957 35.6907C38.3443 35.8177 38.3773 35.9333 38.4298 36.039C38.9148 37.0035 39.1864 38.0254 39.2944 39.0979C39.4276 40.4181 39.6009 41.735 39.7111 43.0571C39.7677 43.7335 39.7507 44.4198 39.72 45.0995C39.6737 46.1171 39.4824 47.1073 39.0852 48.0568C38.7959 48.7492 38.579 49.4722 38.28 50.16C38.0794 50.6212 37.8499 51.0927 37.5326 51.4762C36.432 52.807 35.4153 54.2171 34.0395 55.2998C33.8725 55.4318 33.7528 55.6456 33.6586 55.8435C32.8144 57.6125 31.9359 59.3588 30.5319 60.7709C29.9484 61.3584 29.2664 61.8112 28.5525 62.1739C28.6077 62.8223 28.6781 63.4427 28.7063 64.064C28.7223 64.4109 28.6957 64.7651 28.6379 65.1081C28.5877 65.4048 28.5598 65.7375 28.1951 65.8776C28.1275 65.9031 28.0819 66.0452 28.0688 66.1397C27.8878 67.4381 27.7143 68.7382 27.5416 70.0377C27.5353 70.0844 27.5585 70.1356 27.5794 70.2439C27.8422 70.2796 28.1231 70.2901 28.3864 70.362C28.6338 70.4296 28.8788 70.5379 29.0972 70.6723C30.1545 71.3224 30.0365 72.5001 29.6649 73.3687C29.6256 73.4607 29.5563 73.5587 29.474 73.6104C28.7989 74.0342 28.0752 74.2884 27.2872 74.0032C26.9696 73.8882 26.6995 73.644 26.3418 73.4171C26.3579 73.4136 26.2905 73.4195 26.2296 73.443C25.4672 73.7325 24.7404 73.6243 24.0782 73.1856C23.6837 72.924 23.3435 72.8872 22.8696 73.0151C22.0369 73.2404 21.1776 73.2283 20.375 72.7926C19.7341 72.4448 19.4291 71.9091 19.5467 71.1993C19.6096 70.8221 19.7051 70.4451 19.8342 70.0858C20.0995 69.3474 20.9163 68.9454 21.5488 69.1014C22.1733 69.2557 22.8051 69.3859 23.4914 69.5393C23.526 69.2845 23.5649 69.0115 23.5999 68.7377C23.6826 68.0965 23.7697 67.4554 23.8396 66.8125C23.8532 66.6868 23.8424 66.5001 23.764 66.4323C23.466 66.1749 23.4306 65.8323 23.3831 65.4859C23.3264 65.0741 23.2711 64.6627 23.2145 64.2418C20.1858 64.0756 17.2055 63.9013 14.3068 62.9209C14.1224 63.1922 13.9441 63.4453 13.7753 63.7056C13.6143 63.9551 13.4636 64.2114 13.3096 64.4648C13.1508 64.7252 12.9686 64.9548 12.619 64.9674C12.4543 65.8656 12.2932 66.7391 12.127 67.6467C12.2366 67.6616 12.3467 67.684 12.458 67.6905C13.1466 67.7287 13.7545 67.9415 14.2358 68.4633C14.497 68.7459 14.6559 69.0614 14.6507 69.4507C14.6491 69.5557 14.6383 69.6605 14.6395 69.7649C14.6505 70.5872 14.3338 71.1716 13.4985 71.4225C12.7504 71.6469 12.054 71.6367 11.431 71.1016C11.3385 71.0221 11.2458 70.9432 11.1542 70.8644C11.095 70.8699 11.0386 70.8623 10.9934 70.8801C10.1934 71.1948 9.43875 71.0669 8.74944 70.5986C8.38339 70.3498 8.07041 70.3406 7.63944 70.4564C6.76555 70.6902 5.87434 70.6742 5.04597 70.207C4.46171 69.8785 4.16556 69.3359 4.2759 68.6808C4.3418 68.2872 4.43428 67.8892 4.58063 67.5194C4.87183 66.7835 5.51938 66.4206 6.29812 66.548C6.77937 66.6271 7.25096 66.7662 7.7258 66.8815C7.87445 66.9173 8.02049 66.9632 8.21868 67.0188C8.44422 65.6567 8.66258 64.3364 8.88009 63.0225C8.23849 62.7642 8.17179 62.5627 8.39434 61.9329C8.673 61.1435 8.90888 60.3391 9.17053 59.5437C9.2306 59.3605 9.22163 59.2043 9.09124 59.0578C9.05691 59.019 9.03713 58.9677 9.00369 58.9278C8.23937 58.004 7.7748 56.9061 7.20778 55.8661C6.77464 55.0726 6.46747 54.2449 6.32246 53.3591C6.25998 52.9772 6.10576 52.6781 5.81873 52.4163C5.47147 52.0984 5.15288 51.7481 4.8377 51.3982C4.21379 50.7075 3.85017 49.9071 3.67598 48.9791C3.41166 47.5739 3.33247 46.1766 3.52097 44.7609C3.75353 43.0119 3.90949 41.2491 4.22433 39.5161C4.63173 37.2752 5.36757 35.1227 6.35524 33.0666C6.59567 32.5657 6.93417 32.1121 7.23152 31.6387C7.37907 31.404 7.53553 31.1747 7.66659 30.9756C7.65979 30.9091 7.66402 30.8871 7.65467 30.8757C7.0838 30.1518 7.15429 29.3819 7.39693 28.5461C7.79181 27.1859 8.67709 26.2472 9.80445 25.4841C10.1938 25.2211 10.5989 24.982 10.9925 24.7352C10.6921 24.051 10.4257 23.3928 10.1187 22.7539C9.45781 21.3787 9.1122 19.9377 9.0645 18.4089C9.00444 16.4647 9.18962 14.5744 9.99936 12.7744C10.3496 11.9958 10.8873 11.3575 11.3976 10.6942C11.6107 10.4181 11.8089 10.1299 12.0319 9.8623C12.1876 9.67499 12.2372 9.47076 12.2467 9.23534C12.3054 7.78714 12.3357 6.33632 12.4472 4.89183C12.5387 3.70882 12.7292 2.53333 12.8778 1.35486C12.8861 1.28593 12.9101 1.21862 12.9284 1.15153C13.1002 0.523918 13.6065 0.363958 14.1146 0.780435C14.2087 0.857349 14.2904 0.94993 14.375 1.03818C15.1466 1.84653 15.9216 2.65163 16.6875 3.46564C17.4177 4.24113 18.1275 5.03612 18.8652 5.8042C19.7128 6.68678 19.5425 6.55368 20.5644 6.27094C22.0057 5.87286 23.4686 5.65353 24.9693 5.92564C26.1376 6.1377 27.3461 6.20939 28.4723 6.55315C29.9874 7.01565 31.4456 7.6675 32.9164 8.26635C33.2667 8.40905 33.5789 8.65378 33.8939 8.87167C34.1087 9.01997 34.2938 9.04141 34.5149 8.88627C34.8722 8.63523 35.2544 8.41928 35.6057 8.16051C36.3285 7.6286 37.1093 7.21057 37.9319 6.85565C38.5568 6.58628 39.1546 6.25454 39.77 5.96185C40.0689 5.8195 40.3751 5.68755 40.6882 5.58105C40.8473 5.52692 41.0322 5.5112 41.2008 5.52619C41.6421 5.56515 41.7908 5.74284 41.7197 6.1843C41.6216 6.78727 41.4907 7.38553 41.3704 7.98496C41.1639 9.01195 40.9761 10.0437 40.7394 11.0638C40.5097 12.0505 40.2425 13.0321 39.6831 13.8977C39.5508 14.1023 39.5956 14.2897 39.6477 14.4966C39.8356 15.2417 39.9971 15.9941 40.1992 16.7349C40.484 17.7782 40.5293 18.8414 40.4693 19.9076C40.3945 21.2323 40.2748 22.555 40.1673 23.878C40.0566 25.2384 39.5805 26.4982 39.0431 27.7322C38.7455 28.4167 38.3632 29.065 37.9693 29.8243ZM13.7434 1.59337C13.6842 1.69947 13.6174 1.76789 13.6087 1.84322C13.4721 2.98767 13.3096 4.13032 13.2216 5.27864C13.1125 6.70612 13.0727 8.13857 12.9869 9.56773C12.975 9.76642 12.9175 9.98913 12.807 10.1494C12.5302 10.5503 12.191 10.9085 11.9139 11.3094C11.5378 11.854 11.1659 12.4059 10.8464 12.9842C9.99974 14.5147 9.85775 16.1875 9.82485 17.9029C9.78401 20.0065 10.4744 21.9 11.4011 23.7092C12.0857 25.0465 12.9455 26.2989 14.3658 27.0112C14.4587 27.0578 14.5374 27.1308 14.6258 27.1874C15.6117 27.8216 16.627 28.3949 17.7255 28.8181C19.2806 29.4166 20.901 29.7802 22.5083 30.1914C24.4112 30.6774 26.3604 30.8886 28.3051 31.1C29.0271 31.1786 29.7685 31.1249 30.4978 31.0767C31.6127 31.0032 32.7248 30.8875 33.8368 30.7784C34.2351 30.7392 34.6547 30.7343 35.0215 30.5985C36.3207 30.1177 37.3803 29.3394 38.0161 28.0541C38.6384 26.795 39.1753 25.5029 39.3503 24.1047C39.5128 22.8055 39.6044 21.4958 39.6767 20.1881C39.7289 19.2307 39.7581 18.2656 39.5258 17.3188C39.3016 16.4032 39.0945 15.4826 38.8501 14.5721C38.7467 14.1871 38.8029 13.8647 38.9888 13.5223C39.2211 13.0943 39.4396 12.6526 39.6023 12.1953C39.79 11.6704 39.9341 11.1265 40.0539 10.5817C40.2762 9.57516 40.4713 8.56272 40.6673 7.55089C40.7133 7.31203 40.732 7.06547 40.7364 6.82193C40.7409 6.55958 40.6123 6.46905 40.3709 6.54519C40.2721 6.57656 40.1816 6.63384 40.087 6.67893C39.2832 7.06263 38.4716 7.43118 37.6783 7.83563C37.1819 8.08854 36.7064 8.38567 36.2338 8.68218C35.7309 8.9976 35.2388 9.33133 34.7464 9.66427C34.3523 9.93159 34.0012 9.92769 33.5981 9.63073C33.1512 9.30107 32.6701 8.99846 32.1643 8.77198C29.8916 7.75486 27.5637 6.91073 25.0498 6.72298C24.8934 6.71138 24.7383 6.68137 24.5823 6.66116C23.7796 6.5555 22.9777 6.54504 22.1851 6.7255C21.4536 6.89198 20.722 7.06266 20.0001 7.26412C19.6004 7.37544 19.2693 7.2918 18.9885 7.02285C18.5971 6.6485 18.2234 6.25575 17.8521 5.86159C17.3497 5.32804 16.8604 4.78141 16.3581 4.24713C15.5932 3.4335 14.8235 2.62417 14.0517 1.81703C13.9735 1.7346 13.8664 1.68092 13.7434 1.59337ZM11.4517 25.3899C10.62 25.8995 9.79057 26.3748 9.10856 27.075C8.44065 27.7607 8.14836 28.6066 7.98681 29.509C7.90295 29.9764 8.2253 30.463 8.6555 30.566C9.14777 30.6842 9.64855 30.7672 10.1595 30.639C10.4296 30.5713 10.7051 30.5173 10.9812 30.4774C11.8926 30.3445 12.0268 30.4816 11.9245 31.418C11.7837 32.7013 12.8723 33.6783 14.1416 33.3937C14.6691 33.275 15.1892 33.1229 15.7096 32.9758C16.1908 32.8399 16.4254 32.9668 16.5613 33.4585C16.6168 33.6604 16.6739 33.8621 16.7244 34.0655C17.0993 35.5647 19.0957 36.554 20.5849 35.3589C21.2119 34.8556 21.4384 34.9508 21.6759 35.7241C21.869 36.3511 22.1669 36.9175 22.6176 37.4C22.8869 37.6881 23.1818 37.8047 23.5973 37.7206C24.019 37.635 24.4636 37.616 24.895 37.639C25.1804 37.6543 25.3525 37.5813 25.5057 37.3538C25.7686 36.9629 26.0434 36.5786 26.3295 36.2048C26.6594 35.7744 26.9787 35.7822 27.2914 36.2219C27.5142 36.5354 27.7271 36.856 27.9288 37.1831C28.1688 37.5718 28.5122 37.8398 28.9224 38.0045C29.3605 38.1805 29.8421 38.3445 30.298 38.169C30.8911 37.9409 31.4259 37.5968 31.6178 36.918C31.6414 36.835 31.6782 36.7541 31.7197 36.678C31.8908 36.3683 32.1083 36.2909 32.4114 36.4712C32.588 36.5762 32.7411 36.729 32.8819 36.8809C33.1193 37.1377 33.3299 37.4189 33.5662 37.6754C34.0318 38.1809 34.6369 38.1923 35.1257 37.7277C35.6121 37.2644 35.9202 36.7177 35.9885 36.0401C36.0201 35.7275 36.0604 35.4133 36.1314 35.1075C36.2329 34.6665 36.3598 34.6223 36.801 34.7229C37.1734 34.8082 37.5561 34.8639 37.9371 34.893C38.2349 34.9156 38.5186 34.7962 38.6054 34.4911C38.7675 33.9211 38.9632 33.3252 38.6785 32.7512C38.2694 31.926 37.8088 31.1267 37.3656 30.3073C36.7648 30.6141 36.2215 30.8909 35.6793 31.1695C35.2854 31.371 34.8754 31.4861 34.4273 31.5109C33.7302 31.5493 33.0343 31.6196 32.3403 31.6981C30.602 31.8951 28.8737 32.0338 27.1188 31.7813C24.9886 31.4754 22.8724 31.1305 20.7902 30.5733C19.0321 30.1028 17.2723 29.6383 15.6813 28.7235C14.1402 27.8377 12.5332 27.0225 11.5411 25.4394C11.5323 25.4271 11.5118 25.4231 11.4517 25.3899ZM32.627 56.1987C32.5994 56.1761 32.5714 56.1542 32.5438 56.1317C32.3349 56.2164 32.1254 56.2986 31.9177 56.3858C31.0967 56.7313 30.2811 57.0896 29.454 57.4199C28.7199 57.7128 27.9531 57.9094 27.1605 57.9076C25.9726 57.9053 24.785 57.8674 23.5983 57.8302C22.5626 57.7973 22.5076 57.7408 22.3474 56.7048C22.1799 56.682 21.9938 56.6516 21.8063 56.6323C20.4346 56.4899 19.0626 56.3464 17.6901 56.2136C17.5395 56.1993 17.3754 56.2297 17.2304 56.2778C16.3555 56.5665 15.5017 56.3756 14.6493 56.1778C14.1239 56.0558 13.6092 55.8804 13.0793 55.7893C11.969 55.5985 10.9766 55.0518 9.89718 54.7723C9.83194 54.755 9.77542 54.7045 9.71203 54.6753C9.47495 54.5651 9.24451 54.4315 8.9972 54.3528C8.39489 54.1608 7.81578 53.9273 7.29924 53.556C7.28484 53.5454 7.24156 53.5741 7.15076 53.6064C7.28732 54.0134 7.36302 54.4583 7.57443 54.8247C8.21038 55.9242 8.57628 57.1741 9.43926 58.1498C9.70196 58.4468 10.0217 58.7997 10.0619 59.1556C10.1053 59.5344 9.84096 59.9451 9.7235 60.3446C9.56342 60.8901 9.41478 61.4389 9.24647 62.0395C9.55639 61.9727 9.79187 61.9072 10.0322 61.873C10.4417 61.815 10.6142 61.9506 10.6757 62.3631C10.7215 62.6679 10.755 62.9748 10.7991 63.3225C10.9302 63.267 11.0148 63.2444 11.084 63.1993C11.333 63.0383 11.5691 62.8552 11.825 62.7063C12.2556 62.4553 12.5582 62.5804 12.7055 63.0456C12.7564 63.2065 12.8212 63.3634 12.8833 63.5335C12.9453 63.4885 12.9818 63.4736 13 63.4469C13.233 63.099 13.4704 62.7532 13.693 62.3986C13.9654 61.9645 14.024 61.9452 14.4817 62.1226C14.8071 62.2483 15.1372 62.3682 15.4732 62.4592C18.0044 63.1427 20.591 63.381 23.2027 63.4032C23.7418 63.408 23.8796 63.5089 23.968 64.0354C24.0421 64.4758 24.1096 64.9176 24.1927 65.4387C24.4309 65.2765 24.6208 65.1624 24.7928 65.0263C25.2734 64.6457 25.4215 64.6433 25.8764 65.0327C25.938 65.0862 26.0075 65.1303 26.0989 65.1972C26.2377 64.8744 26.3462 64.5841 26.4841 64.3077C26.6862 63.9031 26.9578 63.8432 27.3308 64.1081C27.496 64.2259 27.651 64.3571 27.8896 64.5438C27.9064 64.1814 27.9526 63.9202 27.923 63.6681C27.8698 63.2196 27.7821 62.7737 27.6878 62.331C27.5805 61.8269 27.6498 61.6835 28.1087 61.4899C28.8771 61.1662 29.5344 60.6829 30.1044 60.0765C30.8757 59.2565 31.5173 58.3476 32.0148 57.3359C32.206 56.9497 32.4225 56.5775 32.627 56.1987ZM23.2824 56.8701C23.2925 56.9163 23.303 56.9625 23.3136 57.0083C23.5885 57.0266 23.8626 57.0537 24.1376 57.0614C24.8882 57.0809 25.6405 57.0656 26.3888 57.1146C27.4406 57.1826 28.4414 57.0022 29.4066 56.5993C30.2926 56.2295 31.1637 55.8212 32.0611 55.4839C33.2286 55.0464 34.1354 54.2753 34.9413 53.3638C35.4966 52.7358 36.024 52.0835 36.5696 51.4473C37.111 50.8164 37.5096 50.1063 37.7863 49.3241C38.013 48.6821 38.2282 48.0349 38.4861 47.4056C38.8111 46.6144 38.9076 45.7824 38.9533 44.9468C39.0586 43.0176 38.7313 41.1178 38.5036 39.2122C38.4999 39.181 38.4706 39.1523 38.4526 39.1228C37.6629 38.7424 37.1485 39.1674 36.948 39.8812C36.9247 39.9655 36.8984 40.0493 36.8833 40.1351C36.8049 40.5751 36.5926 40.9474 36.3512 41.3187C36.0767 41.7407 35.812 42.1798 35.6185 42.6431C34.7589 44.6972 34.2107 46.8408 33.8306 49.0317C33.763 49.4216 33.6492 49.8182 33.4782 50.1745C33.0193 51.133 32.3856 51.9625 31.4806 52.5501C31.1555 52.7617 30.9333 53.0123 30.8911 53.419C30.8675 53.6402 30.7626 53.8525 30.6984 54.0698C30.5772 54.4765 30.3085 54.721 29.8945 54.8063C29.2793 54.9334 28.6672 55.0716 28.0496 55.1817C27.2084 55.3316 26.3568 55.429 25.5209 55.6051C24.6466 55.789 23.961 56.3336 23.2824 56.8701ZM9.40375 49.7888C9.39702 49.0259 9.3699 48.3985 9.39033 47.7729C9.42009 46.8655 9.46696 45.9579 9.53726 45.0528C9.60564 44.1655 9.71079 43.281 9.8044 42.3957C9.81736 42.2749 9.84627 42.1533 9.88728 42.0392C10.0283 41.6447 10.1665 41.5627 10.5969 41.588C10.8157 41.6012 11.0351 41.603 11.3277 41.6121C11.2088 41.3654 11.1383 41.1882 11.043 41.0259C10.8272 40.6584 10.7566 40.2637 10.8892 39.8658C11.0316 39.4392 11.1979 39.0136 11.4097 38.6178C11.9606 37.5869 12.8235 37.1282 13.9728 37.3308C15.2992 37.5643 16.5081 38.1174 17.5567 38.9684C17.9541 39.2906 18.3203 39.5493 18.8568 39.3623C18.9667 39.324 19.1 39.3473 19.2221 39.3505C19.4446 39.3568 19.6032 39.2558 19.7803 39.1206C20.1797 38.8147 20.6017 38.5335 21.0396 38.2848C21.3219 38.1246 21.6476 38.0399 21.9727 37.9142C21.7614 37.605 21.5468 37.3282 21.3737 37.0273C21.2048 36.733 21.0785 36.4145 20.9158 36.07C19.8828 36.8184 18.8322 36.8566 17.7471 36.3622C16.6604 35.8663 16.0944 34.9592 15.8347 33.8094C15.2798 33.9385 14.7747 34.0622 14.2672 34.1732C12.6687 34.5224 11.1806 33.3656 11.1188 31.7307C11.1127 31.581 11.0991 31.4313 11.0846 31.2125C10.2216 31.5044 9.39477 31.5503 8.55663 31.3771C8.47761 31.3609 8.34227 31.4257 8.29112 31.496C8.03707 31.8421 7.80336 32.2025 7.55525 32.5687C8.22134 33.0056 8.40449 33.6364 8.51221 34.3047C8.52866 34.4078 8.53038 34.5135 8.53325 34.6181C8.55575 35.3833 8.56904 36.1415 8.70837 36.907C8.89457 37.9361 8.82085 38.9884 8.78349 40.0391C8.73201 41.4942 8.59759 42.9328 8.35576 44.3638C8.13499 45.6726 8.17185 46.9696 8.43809 48.2696C8.56068 48.8687 8.91097 49.2936 9.40375 49.7888ZM7.14764 33.2902C7.04968 33.4735 6.98579 33.5738 6.94086 33.6821C6.71951 34.2138 6.52016 34.755 6.28325 35.2791C5.64511 36.6911 5.30431 38.1926 4.99401 39.6938C4.733 40.958 4.57562 42.2449 4.42023 43.5282C4.20392 45.3143 4.05221 47.1004 4.45659 48.8924C4.61061 49.5771 4.86392 50.1781 5.29062 50.7276C6.09844 51.7667 7.14618 52.5163 8.23744 53.2153C8.38206 53.308 8.55167 53.3682 8.71728 53.4194C9.71558 53.7295 10.6109 54.3199 11.657 54.5C11.7076 54.5086 11.7531 54.542 11.8029 54.5585C12.2302 54.703 12.6569 54.8481 13.0856 54.9889C13.3509 55.076 13.6151 55.1688 13.8862 55.2361C14.5449 55.3997 15.2046 55.5629 15.87 55.6972C16.0669 55.7373 16.2882 55.7068 16.4898 55.6661C16.7393 55.6161 16.7279 55.3939 16.7169 55.2015C16.7061 55.0148 16.5843 54.9292 16.4014 54.9209C16.1928 54.9111 15.9834 54.9104 15.7759 54.8866C14.4499 54.7324 13.2562 54.2007 12.1095 53.558C11.3578 53.1366 10.6848 52.6158 10.2179 51.8635C10.0817 51.6444 9.87559 51.4688 9.70043 51.2746C9.20951 50.7312 8.71131 50.194 8.22853 49.6436C7.92262 49.2947 7.76422 48.8753 7.66942 48.4197C7.35974 46.9293 7.3464 45.4429 7.62592 43.9459C7.89548 42.5004 8.02765 41.0419 7.96196 39.5671C7.93469 38.959 7.98187 38.3479 7.98596 37.7386C7.98792 37.4947 8.01649 37.2354 7.94563 37.0098C7.71619 36.2752 7.78358 35.5244 7.74653 34.7771C7.72774 34.4016 7.61922 34.0251 7.50732 33.6625C7.4658 33.5308 7.29709 33.4386 7.14764 33.2902ZM26.2012 37.7638C26.4708 38.0045 26.7547 38.162 26.8975 38.4032C27.4107 39.2693 27.7961 40.19 27.6352 41.2326C27.5278 41.9279 27.3771 42.6159 27.2393 43.3434C27.8707 43.4292 28.5296 43.5037 29.1826 43.6125C29.699 43.6988 30.2086 43.8228 30.7204 43.936C30.9968 43.9973 31.2068 44.1447 31.2507 44.4446C31.3241 44.9444 31.4462 45.447 31.4398 45.9473C31.4295 46.819 31.3208 47.6899 31.2837 48.5621C31.2392 49.6034 31.2272 50.6457 31.1992 51.7485C31.3205 51.6684 31.4076 51.6213 31.4831 51.5598C32.0072 51.1321 32.382 50.5846 32.6901 49.9936C32.8337 49.7184 32.9771 49.4195 33.0149 49.1184C33.2112 47.567 33.6619 46.0783 34.0844 44.584C34.3503 43.6448 34.6791 42.7308 35.1616 41.8641C35.5973 41.0798 36.1107 40.3248 36.2951 39.4055C36.4021 38.8713 36.8065 38.4799 37.3326 38.3035C37.633 38.2027 37.9713 38.2136 38.3155 38.1712C38.3163 38.1307 38.3318 38.0603 38.318 37.9965C38.1384 37.2045 37.7926 36.4808 37.4031 35.7741C37.2852 35.561 37.1043 35.5208 36.855 35.5256C36.8186 35.7937 36.7866 36.034 36.7532 36.2746C36.6176 37.2503 36.0967 37.9961 35.3313 38.5742C35.1342 38.7237 34.8587 38.8398 34.6161 38.8466C33.9683 38.8648 33.369 38.7031 32.9373 38.1561C32.7481 37.916 32.5401 37.6916 32.322 37.4384C32.1952 37.6209 32.1169 37.7579 32.0149 37.8743C31.4968 38.4689 30.8875 38.9949 30.0818 39.0132C28.9254 39.0392 27.9275 38.615 27.2626 37.5956C27.121 37.3786 26.9709 37.1677 26.7993 36.9161C26.5757 37.2331 26.3874 37.4999 26.2012 37.7638ZM19.2269 43.1005C19.1928 43.3511 19.157 43.5394 19.1431 43.7291C19.0552 44.9112 19.0042 46.0972 18.8814 47.2754C18.619 49.7924 18.3208 52.3046 18.0362 54.8188C18.0148 55.0065 17.9857 55.1937 17.9618 55.369C18.5323 55.5936 20.2543 55.7777 20.7541 55.6681C20.7801 55.4768 20.8135 55.2729 20.8342 55.0677C20.9007 54.4258 20.9557 53.7825 21.0278 53.1411C21.0956 52.5346 21.1862 51.9301 21.2558 51.3235C21.54 48.8454 21.5602 46.3414 21.9856 43.8771C22.0082 43.7475 21.9981 43.6121 22.0035 43.4779C21.0702 43.351 20.1767 43.2296 19.2269 43.1005ZM30.3576 51.3822C27.6038 51.1735 24.8662 50.966 22.1055 50.7563C21.919 52.4412 21.6074 54.0846 21.5879 55.7983C21.9195 55.8434 22.2345 55.8612 22.5362 55.933C22.9238 56.0255 23.2318 55.9403 23.5516 55.7003C24.1711 55.2363 24.8589 54.8958 25.6334 54.7646C26.1324 54.6807 26.6324 54.6038 27.1309 54.519C27.904 54.3879 28.6754 54.2427 29.4504 54.1247C29.8218 54.0682 30.0094 53.8447 30.0624 53.5114C30.1771 52.7914 30.2644 52.0671 30.3576 51.3822ZM10.6062 42.45C10.4288 43.5525 10.2517 44.6463 10.3227 45.7776C10.4594 45.8027 10.5605 45.8241 10.662 45.8404C11.6456 45.9984 12.6281 46.1643 13.613 46.3106C14.9267 46.5061 16.2425 46.6936 17.5589 46.8693C18.0577 46.9359 18.1027 46.8725 18.1359 46.3919C18.1808 45.7297 18.2442 45.069 18.2965 44.4074C18.333 43.9441 18.3647 43.4809 18.4021 42.973C15.7823 42.8407 13.267 42.1711 10.6062 42.45ZM22.3627 47.3979C22.7283 47.4077 23.0373 47.4188 23.3466 47.4219C24.8989 47.4401 26.4531 47.4186 27.992 47.6771C28.1983 47.7113 28.4085 47.7295 28.6177 47.7319C29.2563 47.7385 29.9006 47.8147 30.5766 47.6291C30.6075 47.012 30.7045 46.399 30.6558 45.7991C30.5463 44.4533 30.6207 44.6455 29.4598 44.4644C27.3737 44.1379 25.2769 43.8801 23.1845 43.5971C23.0867 43.5838 22.9845 43.6034 22.8318 43.6101C22.6559 44.8643 22.4362 46.0921 22.3627 47.3979ZM10.2004 49.307C10.247 50.0044 10.0264 50.6855 10.6768 51.1741C10.7711 51.2451 10.8432 51.3564 10.9013 51.4621C11.1903 51.9865 11.6493 52.3458 12.1329 52.6537C13.6882 53.6436 15.4158 54.1478 17.2329 54.3761C17.4593 53.6999 17.7716 50.802 17.6648 50.2797C15.1594 50.3335 12.7364 49.657 10.2004 49.307ZM22.3379 48.194C22.3029 48.81 22.1673 49.3504 22.2086 49.9228C22.4296 49.9529 22.6008 49.9816 22.7731 49.9983C23.3809 50.0569 23.9885 50.117 24.5968 50.1665C26.1266 50.2915 27.6559 50.413 29.1869 50.5315C29.3949 50.5479 29.6058 50.5518 29.8142 50.5418C30.0162 50.5328 30.2164 50.4987 30.4496 50.4719C30.455 49.7786 30.4599 49.1451 30.4648 48.5243C29.8488 48.522 29.3066 48.5469 28.7693 48.5125C27.5338 48.4339 26.302 48.3058 25.0665 48.2379C24.1825 48.1895 23.2946 48.2074 22.3379 48.194ZM21.814 40.754C22.5663 40.4326 23.317 40.3475 24.0958 40.4905C24.383 40.5434 24.6246 40.659 24.8144 40.8816C25.1712 41.2993 25.1522 42.0727 24.7685 42.5289C24.6618 42.6565 24.5437 42.7744 24.3797 42.9519C24.8535 43.0163 25.2475 43.0895 25.6446 43.1187C26.2082 43.1604 26.5306 42.9091 26.6546 42.3535C26.7273 42.0298 26.7603 41.6981 26.8306 41.3741C27.0176 40.5156 26.729 39.7501 26.3497 39.0141C26.2571 38.8337 26.0461 38.6411 25.8562 38.5974C25.212 38.4487 24.5599 38.3132 23.8882 38.446C23.3918 38.5439 22.8912 38.6239 22.3895 38.6877C21.8035 38.7618 21.2832 38.9959 20.7896 39.3009C20.6971 39.3579 20.6262 39.45 20.5365 39.5339C21.3925 40.0368 21.3925 40.0368 21.814 40.754ZM18.0606 47.7435C17.6201 47.6836 17.2417 47.6366 16.8646 47.5802C14.8281 47.2749 12.7927 46.9659 10.7563 46.6621C10.5773 46.6353 10.394 46.6351 10.1574 46.6183C10.1732 47.296 10.1876 47.8969 10.2032 48.5529C10.9062 48.6485 11.5458 48.727 12.1831 48.8236C13.5456 49.0301 14.9032 49.2672 16.2695 49.4455C16.7775 49.5118 17.3049 49.5555 17.8304 49.4385C17.908 48.8657 17.9825 48.3177 18.0606 47.7435ZM17.5269 40.9722C17.5747 40.8321 17.6037 40.7368 17.6399 40.6436C17.7828 40.2864 17.6973 40.0161 17.3638 39.8061C16.8056 39.4534 16.2855 39.0283 15.6979 38.737C15.0795 38.4303 14.4356 38.1343 13.7233 38.0917C13.2174 38.061 12.7041 38.1302 12.3968 38.5549C12.0955 38.9715 11.8546 39.4506 11.6807 39.9355C11.4894 40.4723 11.814 40.9057 12.1422 41.3034C12.4509 41.6774 12.8495 41.6818 13.2771 41.5926C13.2799 41.519 13.2837 41.4672 13.2831 41.4156C13.2747 40.4721 13.9311 39.8723 14.8663 40.0241C15.3428 40.1016 15.8115 40.2544 16.2683 40.417C16.6885 40.5665 17.0879 40.7753 17.5269 40.9722ZM26.5948 69.937C26.641 69.783 26.7112 69.622 26.7352 69.4544C26.9093 68.2264 27.0788 66.9978 27.2394 65.7677C27.2727 65.5118 27.2759 65.2475 27.0645 64.9689C26.9943 65.1535 26.938 65.2942 26.8874 65.4371C26.8292 65.6013 26.7894 65.7737 26.7179 65.9318C26.5148 66.3799 26.2289 66.44 25.864 66.1183C25.6848 65.9597 25.5149 65.7906 25.3498 65.6352C24.7063 66.0592 24.7159 66.06 24.6427 66.7352C24.5617 67.4821 24.4597 68.2267 24.3714 68.9726C24.3543 69.1206 24.3566 69.2714 24.3507 69.3949C25.1064 69.5771 25.8143 69.7484 26.5948 69.937ZM11.3374 67.3861C11.6827 66.172 11.8007 64.9198 12.0247 63.578C11.6237 63.803 11.3291 63.9789 11.0246 64.1354C10.5311 64.3887 10.2228 64.2504 10.0882 63.7213C10.0246 63.4735 9.97986 63.2218 9.90496 62.8711C9.78177 63.0688 9.67144 63.1737 9.64853 63.2948C9.43149 64.4724 9.22928 65.652 9.02362 66.8242C9.8108 67.0152 10.5313 67.1904 11.3374 67.3861ZM23.0386 71.1541C23.054 71.0408 23.074 70.9026 23.0911 70.7641C23.1437 70.3394 23.1232 70.2876 22.7114 70.1662C22.3273 70.0533 21.936 69.9573 21.5428 69.8828C21.0516 69.7898 20.7133 69.9689 20.5428 70.4198C20.4447 70.6786 20.3894 70.9561 20.3405 71.23C20.258 71.6892 20.3846 71.8986 20.7907 72.119C21.2965 72.3942 21.8352 72.3365 22.3756 72.325C22.6764 72.3181 22.8206 72.1515 22.8887 71.8966C22.9509 71.6611 22.9861 71.4186 23.0386 71.1541ZM7.71309 68.667C7.72938 68.6692 7.74567 68.6714 7.76147 68.6736C7.78731 68.4835 7.80705 68.2928 7.84047 68.1034C7.88528 67.8503 7.78281 67.7007 7.53758 67.6431C7.08026 67.5356 6.62562 67.4101 6.16282 67.3301C5.7513 67.2591 5.44174 67.4416 5.29406 67.8303C5.18957 68.1053 5.11962 68.3976 5.06853 68.6878C4.98876 69.138 5.12906 69.3591 5.52802 69.5736C6.06931 69.8648 6.64404 69.7954 7.21573 69.7592C7.4625 69.7435 7.57187 69.5528 7.61821 69.3395C7.66581 69.1187 7.68262 68.8912 7.71309 68.667ZM18.23 42.1245C19.1876 42.2547 20.0934 42.3779 21.0097 42.5025C21.1753 41.9059 21.126 41.3723 20.9352 40.8633C20.8696 40.69 20.6821 40.4976 20.5096 40.4422C20.065 40.2993 19.602 40.1918 19.1385 40.1389C18.7101 40.0901 18.5248 40.2382 18.4362 40.6657C18.3377 41.1391 18.2978 41.6252 18.23 42.1245ZM10.8797 69.2305C10.8855 69.231 10.8914 69.2318 10.8969 69.2326C10.9251 69.0252 10.9391 68.8151 10.9849 68.6114C11.0506 68.317 10.9395 68.1271 10.6614 68.0566C10.1741 67.9327 9.68211 67.8252 9.1888 67.7274C9.09839 67.7094 8.97693 67.7469 8.8965 67.7993C8.58223 68.0074 8.36613 69.3038 8.63573 69.5536C9.08952 69.9731 9.61001 70.2971 10.2715 70.2467C10.6663 70.2171 10.7516 70.1307 10.8088 69.7482C10.8347 69.576 10.8562 69.4031 10.8797 69.2305ZM26.138 71.7782C26.1426 71.7789 26.1465 71.7794 26.1511 71.78C26.1816 71.5559 26.2009 71.3287 26.2456 71.1072C26.296 70.8563 26.2018 70.6863 25.97 70.6228C25.5026 70.4944 25.0321 70.369 24.5555 70.2834C24.2055 70.2203 24.0273 70.3513 23.9488 70.6957C23.8717 71.0346 23.8194 71.3815 23.7886 71.7277C23.7778 71.8528 23.8201 72.0319 23.9069 72.1073C24.3726 72.5136 24.8795 72.8538 25.5406 72.8033C25.9274 72.7737 26.0091 72.683 26.0676 72.2961C26.0929 72.1242 26.1145 71.9511 26.138 71.7782ZM11.6361 69.5747C11.5382 70.2277 11.8414 70.6493 12.4798 70.747C13.2049 70.8572 13.7978 70.5958 13.8482 70.1357C13.9641 69.0862 13.6565 68.6973 12.6964 68.5234C12.0944 68.4143 11.7576 68.7645 11.6361 69.5747ZM26.9179 72.1212C26.8178 72.7955 27.1006 73.1979 27.7436 73.2979C28.4728 73.4114 29.0322 73.1542 29.1061 72.6854C29.2774 71.5996 28.8251 71.2276 27.9676 71.0662C27.3651 70.9534 27.0385 71.2999 26.9179 72.1212ZM21.8678 42.6216C22.1083 42.6543 22.3135 42.6762 22.5161 42.711C23.1912 42.8263 23.8634 42.5336 24.1999 41.9722C24.3978 41.6421 24.2774 41.3499 23.9101 41.2722C23.1999 41.1209 22.5388 41.2519 21.9073 41.5934C21.8945 41.9267 21.8825 42.2353 21.8678 42.6216ZM17.364 42.0999C17.4723 41.8148 17.322 41.7656 17.1981 41.7079C16.6927 41.4718 16.1935 41.2183 15.675 41.0146C15.3702 40.8947 15.0368 40.8315 14.7103 40.7886C14.3561 40.7422 14.0689 40.9899 14.0505 41.3038C14.0345 41.5782 14.1664 41.6989 14.5665 41.7573C14.9987 41.8202 15.4311 41.8797 15.8647 41.932C16.3635 41.9934 16.8639 42.0448 17.364 42.0999Z" fill="black"/>
<path fill-rule="evenodd" clip-rule="evenodd" d="M13.7435 1.59326C13.8665 1.6808 13.9739 1.73452 14.0524 1.8165C14.8243 2.62367 15.5938 3.43296 16.3588 4.24659C16.8611 4.78088 17.3503 5.3275 17.8527 5.86106C18.224 6.25522 18.5975 6.64794 18.9891 7.02232C19.2699 7.29151 19.601 7.37515 20.0007 7.26359C20.7229 7.06216 21.4542 6.89145 22.1858 6.72497C22.9787 6.5443 23.7805 6.55475 24.5829 6.66063C24.7389 6.68084 24.894 6.71084 25.0504 6.72245C27.5646 6.91023 29.8923 7.75432 32.1649 8.77144C32.6707 8.99793 33.1515 9.3005 33.5987 9.63019C34.0018 9.92715 34.3529 9.93106 34.747 9.66374C35.2395 9.3308 35.7313 8.99703 36.2344 8.68164C36.707 8.38538 37.1825 8.08825 37.6789 7.83509C38.472 7.43061 39.2837 7.06234 40.0877 6.6784C40.1824 6.63334 40.2727 6.57579 40.3715 6.54465C40.6129 6.46852 40.7415 6.55904 40.737 6.8214C40.7327 7.0647 40.714 7.3115 40.6679 7.55036C40.4721 8.56222 40.2768 9.57462 40.0545 10.5811C39.9346 11.1262 39.7904 11.6699 39.6029 12.1948C39.4402 12.6521 39.2217 13.0938 38.9895 13.5218C38.8035 13.8644 38.7473 14.1869 38.8507 14.5716C39.0951 15.4821 39.3023 16.4026 39.5264 17.3183C39.7587 18.2653 39.7293 19.2302 39.6774 20.1875C39.6051 21.4952 39.5134 22.805 39.3509 24.1041C39.1762 25.5024 38.6393 26.7945 38.0167 28.0536C37.3809 29.3389 36.3211 30.1172 35.0222 30.598C34.6553 30.7338 34.2354 30.7386 33.8374 30.7779C32.7252 30.8869 31.6133 31.0027 30.4985 31.0762C29.7692 31.1244 29.0277 31.1781 28.3057 31.0995C26.361 30.8881 24.4119 30.6768 22.509 30.1908C20.9014 29.7797 19.2812 29.416 17.7262 28.8176C16.6276 28.3944 15.6124 27.8211 14.6264 27.1869C14.5379 27.13 14.4594 27.057 14.3664 27.0107C12.9461 26.2983 12.0864 25.0459 11.4018 23.7086C10.4753 21.8995 9.78488 20.006 9.82548 17.9024C9.85837 16.187 10.0004 14.5141 10.847 12.9836C11.1666 12.4053 11.5385 11.8535 11.9146 11.3088C12.1914 10.908 12.5305 10.55 12.8077 10.1489C12.9181 9.9886 12.9756 9.76589 12.9875 9.5672C13.0734 8.13804 13.1131 6.70558 13.2222 5.27811C13.3102 4.12978 13.4728 2.98714 13.6093 1.84268C13.6175 1.76778 13.6842 1.69935 13.7435 1.59326ZM20.7874 17.7998C20.8145 17.3491 20.9212 16.8862 20.853 16.4503C20.6318 15.0376 19.7847 14.0469 18.546 13.4016C18.186 13.214 17.7436 13.1677 17.3319 13.0964C15.2776 12.7401 13.6737 13.4444 12.4851 15.1535C12.1686 15.6094 11.9467 16.0814 11.8635 16.6312C11.7692 17.2522 11.6365 17.8678 11.5333 18.4881C11.437 19.0641 11.4723 19.6344 11.6404 20.1976C12.0541 21.5805 12.9951 22.5198 14.2552 23.1079C15.2166 23.5565 16.2563 23.7476 17.3042 23.3156C18.2551 22.9234 18.9996 22.2736 19.5286 21.4019C20.2005 20.2953 20.4811 19.0472 20.7874 17.7998ZM38.2802 20.6332C38.3107 20.0461 38.3783 19.2448 38.3812 18.4437C38.3821 18.1056 38.3134 17.7338 38.1629 17.4345C37.4431 16.0028 36.3638 15.0516 34.6706 14.9992C34.531 14.9953 34.3917 14.9823 34.2522 14.9792C31.8593 14.928 30.3234 16.2672 29.5243 18.4059C29.4649 18.5655 29.4507 18.747 29.4415 18.9198C29.4065 19.6002 29.3774 20.2806 29.3549 20.9612C29.3353 21.5793 29.4278 22.177 29.677 22.7501C30.247 24.0577 31.2909 24.8612 32.587 25.2922C33.8633 25.7168 35.156 25.6863 36.2575 24.7674C37.0764 24.0841 37.6879 23.2377 37.9461 22.1784C38.055 21.7379 38.1392 21.2913 38.2802 20.6332ZM25.3487 17.5072C24.4566 17.2282 23.7018 17.5552 22.981 18.0363C22.9661 18.0459 22.9525 18.0567 22.937 18.0648C22.5283 18.2808 22.3635 18.6368 22.2972 19.0809C22.1673 19.9546 22.3769 20.7826 22.6072 21.6055C22.9286 22.7565 23.4881 23.8044 24.0758 24.8364C24.3243 25.272 24.6665 25.3198 24.9973 24.9391C25.2815 24.6116 25.5491 24.2582 25.7611 23.8812C26.4037 22.7372 26.8549 21.509 27.2436 20.2597C27.3255 19.9962 27.3596 19.7124 27.378 19.4351C27.4434 18.455 27.0167 17.88 26.0675 17.6495C25.8302 17.5917 25.5885 17.5539 25.3487 17.5072ZM14.2321 4.43239C14.2278 4.78391 14.2257 5.04559 14.2216 5.307C14.2009 6.51028 14.1732 7.71361 14.1609 8.91704C14.1566 9.38592 14.3839 9.50249 14.795 9.29443C15.1195 9.13105 15.4529 8.97754 15.7961 8.85905C16.3383 8.67178 16.8986 8.53526 17.4403 8.3447C17.9313 8.17152 17.9617 7.93745 17.6037 7.54511C17.369 7.28837 17.1562 7.01208 16.9364 6.74227C16.266 5.91796 15.6532 5.04355 14.8574 4.32773C14.754 4.23395 14.5767 4.13359 14.465 4.16172C14.3519 4.19018 14.2774 4.37417 14.2321 4.43239ZM39.2354 9.78911C39.2813 9.45167 39.3165 9.19275 39.3515 8.9338C39.3562 8.89928 39.3618 8.86465 39.364 8.83028C39.3824 8.45146 39.2203 8.31032 38.8549 8.42828C38.5911 8.51299 38.334 8.63007 38.092 8.7653C37.2897 9.21409 36.4957 9.67763 35.6988 10.1356C35.4139 10.2991 35.3862 10.4803 35.6315 10.709C35.7835 10.8513 35.9514 10.9801 36.1253 11.0944C36.7824 11.5246 37.29 12.0819 37.6235 12.7965C37.6739 12.9042 37.751 13.008 37.8391 13.0878C38.0361 13.2671 38.2388 13.2259 38.3252 12.9677C38.6816 11.896 39.1528 10.8562 39.2354 9.78911Z" fill="#E8AB49"/>
<path fill-rule="evenodd" clip-rule="evenodd" d="M11.4518 25.3896C11.512 25.4228 11.5325 25.4266 11.5409 25.4396C12.5329 27.023 14.1401 27.8379 15.6811 28.7236C17.2724 29.6385 19.0318 30.1032 20.7901 30.5735C22.8722 31.1307 24.9884 31.4756 27.1186 31.7815C28.8735 32.0339 30.6018 31.8953 32.3401 31.6983C33.0341 31.6198 33.7301 31.5495 34.4271 31.511C34.8752 31.486 35.2852 31.3712 35.6791 31.1697C36.2214 30.8911 36.7646 30.6143 37.3654 30.3075C37.8084 31.1269 38.269 31.9261 38.6783 32.7513C38.963 33.3254 38.7673 33.9215 38.6052 34.4912C38.5184 34.7964 38.2347 34.9158 37.937 34.8931C37.5559 34.8641 37.1733 34.8081 36.8008 34.7231C36.3596 34.6225 36.2328 34.6666 36.1312 35.1077C36.0604 35.4133 36.0202 35.7275 35.9883 36.0403C35.9199 36.7181 35.6117 37.2645 35.1255 37.7278C34.6367 38.1925 34.0316 38.1811 33.566 37.6755C33.3295 37.419 33.1189 37.1379 32.8817 36.881C32.7409 36.7294 32.5878 36.5766 32.4112 36.4714C32.1082 36.2908 31.8906 36.3684 31.7195 36.6782C31.678 36.7543 31.6412 36.8354 31.6176 36.9182C31.4257 37.5973 30.8907 37.941 30.2979 38.1692C29.8422 38.3447 29.3606 38.1807 28.9222 38.0047C28.512 37.84 28.1687 37.5717 27.9286 37.1832C27.7271 36.8563 27.5143 36.5354 27.2912 36.222C26.9785 35.7826 26.6592 35.7746 26.3293 36.2049C26.0433 36.5788 25.7682 36.9631 25.5055 37.354C25.3523 37.5815 25.1804 37.6547 24.8948 37.6392C24.4634 37.6162 24.0188 37.6352 23.5971 37.7208C23.1816 37.8049 22.8867 37.6883 22.6174 37.4001C22.1667 36.9177 21.8688 36.3513 21.6757 35.7243C21.4382 34.9509 21.2117 34.8558 20.5847 35.3591C19.0958 36.5539 17.0991 35.5647 16.7243 34.0657C16.6737 33.8622 16.6167 33.6606 16.5612 33.4587C16.4252 32.967 16.1906 32.8401 15.7094 32.9759C15.189 33.1231 14.6689 33.2752 14.1414 33.3939C12.8721 33.6787 11.7835 32.7015 11.9243 31.4182C12.0263 30.4817 11.8924 30.3447 10.981 30.4775C10.7047 30.5175 10.4292 30.5714 10.1593 30.6392C9.64836 30.7673 9.14735 30.6844 8.65532 30.5662C8.22515 30.4629 7.9028 29.9764 7.98662 29.5091C8.14817 28.6068 8.44049 27.7606 9.10838 27.0751C9.79069 26.3746 10.6202 25.8993 11.4518 25.3896Z" fill="#BF9767"/>
<path fill-rule="evenodd" clip-rule="evenodd" d="M32.627 56.199C32.4225 56.5777 32.2059 56.9502 32.0157 57.3366C31.5182 58.3482 30.8766 59.2572 30.1053 60.0771C29.5353 60.6835 28.8781 61.1666 28.1096 61.4905C27.6507 61.6842 27.5814 61.8275 27.6887 62.3316C27.783 62.774 27.8707 63.22 27.9239 63.6687C27.9535 63.9209 27.9073 64.182 27.8905 64.5444C27.6519 64.3577 27.4967 64.2265 27.3317 64.1087C26.9586 63.844 26.6868 63.9037 26.485 64.3083C26.3472 64.5845 26.2383 64.875 26.0999 65.1978C26.0084 65.1309 25.9389 65.0868 25.8773 65.0334C25.4224 64.6442 25.2743 64.6464 24.7937 65.027C24.6216 65.1633 24.4319 65.2771 24.1936 65.4394C24.1105 64.9182 24.043 64.4765 23.9689 64.0361C23.8805 63.5095 23.7425 63.4086 23.2036 63.4039C20.5916 63.3816 18.0051 63.1433 15.4741 62.4598C15.1381 62.3686 14.8078 62.2489 14.4826 62.1232C14.0249 61.9458 13.9663 61.9651 13.6939 62.3993C13.4713 62.7541 13.2339 63.0996 13.0009 63.4475C12.9827 63.4743 12.9463 63.4891 12.8842 63.5342C12.8219 63.364 12.7573 63.2072 12.7064 63.0462C12.5589 62.581 12.2562 62.4559 11.826 62.7069C11.57 62.8558 11.3339 63.0389 11.0849 63.1999C11.0156 63.2452 10.9311 63.2677 10.8 63.3231C10.7559 62.9754 10.7221 62.6685 10.6767 62.3637C10.6149 61.9512 10.4427 61.8156 10.0332 61.8736C9.79278 61.9078 9.55735 61.9731 9.24739 62.0402C9.41594 61.4396 9.56434 60.8908 9.72442 60.3453C9.84191 59.9455 10.1062 59.535 10.0629 59.1562C10.0226 58.8004 9.70264 58.4474 9.44018 58.1505C8.57724 57.1744 8.21129 55.9248 7.57535 54.8254C7.36391 54.4591 7.28845 54.0143 7.15168 53.607C7.24272 53.5748 7.286 53.546 7.30016 53.5566C7.8167 53.9279 8.3958 54.1614 8.99812 54.3535C9.2454 54.4324 9.47563 54.5657 9.71295 54.676C9.77609 54.7051 9.83261 54.7556 9.8981 54.773C10.9776 55.0524 11.9699 55.5991 13.0803 55.7899C13.6099 55.881 14.1248 56.0565 14.6503 56.1784C15.5029 56.3763 16.3564 56.5671 17.2313 56.2785C17.3765 56.2306 17.5404 56.2001 17.691 56.2142C19.0635 56.3468 20.4356 56.4902 21.8072 56.6329C21.9947 56.6524 22.1805 56.6826 22.3483 56.7055C22.5085 57.7414 22.5635 57.7979 23.5992 57.8308C24.7859 57.8681 25.9734 57.9062 27.1614 57.9082C27.9541 57.9098 28.7209 57.7132 29.455 57.4205C30.2821 57.0902 31.0977 56.7316 31.9186 56.3864C32.1263 56.2993 32.3358 56.2171 32.5447 56.1323C32.5714 56.1543 32.5994 56.1764 32.627 56.199Z" fill="#E8AB49"/>
<path fill-rule="evenodd" clip-rule="evenodd" d="M23.2822 56.8699C23.9608 56.3335 24.6464 55.7891 25.521 55.6052C26.3568 55.4291 27.2084 55.3319 28.0496 55.1818C28.6675 55.0717 29.2794 54.9333 29.8946 54.8065C30.3085 54.7211 30.5772 54.4766 30.6984 54.0699C30.7626 53.8526 30.8675 53.6403 30.8911 53.4192C30.9333 53.0124 31.1555 52.7618 31.4807 52.5502C32.3856 51.9626 33.0193 51.1331 33.4782 50.1746C33.6492 49.8185 33.763 49.422 33.8307 49.0318C34.2108 46.8406 34.7589 44.6971 35.6185 42.6432C35.812 42.18 36.0767 41.7408 36.3513 41.3188C36.5926 40.9475 36.8049 40.5752 36.8833 40.1353C36.8984 40.0497 36.9247 39.9656 36.948 39.8813C37.1486 39.1678 37.6629 38.7427 38.4528 39.123C38.4706 39.1524 38.4999 39.1811 38.5036 39.2123C38.7313 41.1179 39.0586 43.0177 38.9534 44.9469C38.9076 45.7825 38.8111 46.6145 38.4861 47.4058C38.2285 48.0351 38.013 48.6822 37.7863 49.3242C37.5096 50.1064 37.111 50.8165 36.5696 51.4474C36.0241 52.0836 35.4966 52.7359 34.9413 53.3639C34.1355 54.2755 33.2287 55.0463 32.0611 55.484C31.1635 55.8211 30.2927 56.2294 29.4067 56.5994C28.4412 57.0023 27.4406 57.1829 26.3889 57.1147C25.6406 57.0657 24.8882 57.0811 24.1377 57.0615C23.8626 57.0538 23.5885 57.0267 23.3137 57.0084C23.3026 56.9623 23.2923 56.9159 23.2822 56.8699Z" fill="#BF9767"/>
<path fill-rule="evenodd" clip-rule="evenodd" d="M9.40351 49.7891C8.91073 49.294 8.56045 48.869 8.43807 48.2703C8.17183 46.9703 8.13518 45.6735 8.35573 44.3644C8.59732 42.9334 8.73174 41.4948 8.78346 40.0397C8.82061 38.9887 8.89457 37.9365 8.70834 36.9077C8.56929 36.142 8.55572 35.3839 8.53322 34.6187C8.53036 34.5141 8.52863 34.4084 8.51218 34.3054C8.40424 33.6368 8.22107 33.0062 7.55522 32.5693C7.80333 32.2031 8.03705 31.8427 8.29109 31.4967C8.34224 31.4264 8.47759 31.3616 8.5566 31.3778C9.39474 31.5509 10.2215 31.5053 11.0845 31.2131C11.0991 31.432 11.1124 31.5818 11.1188 31.7313C11.1803 33.3659 12.6686 34.523 14.2671 34.1738C14.7747 34.0628 15.2798 33.9391 15.8347 33.81C16.0943 34.9598 16.6604 35.8667 17.747 36.3628C18.8319 36.8572 19.8828 36.8191 20.9158 36.0706C21.0784 36.4153 21.2047 36.7338 21.3737 37.0279C21.5467 37.3288 21.7617 37.6056 21.9727 37.9148C21.6476 38.0405 21.3216 38.1252 21.0396 38.2854C20.6017 38.5339 20.1797 38.815 19.7803 39.1213C19.6032 39.2564 19.4446 39.3576 19.2221 39.3512C19.1 39.3479 18.9667 39.3246 18.8568 39.3629C18.3205 39.55 17.9541 39.2912 17.5567 38.969C16.5081 38.1183 15.2992 37.565 13.9728 37.3314C12.8234 37.1291 11.9608 37.5878 11.4097 38.6184C11.1979 39.0143 11.0316 39.4398 10.8892 39.8664C10.7566 40.2644 10.827 40.6587 11.0429 41.0265C11.1382 41.1888 11.2085 41.366 11.3277 41.6127C11.035 41.6036 10.8157 41.6015 10.5968 41.5886C10.1665 41.5633 10.0281 41.6453 9.88725 42.0399C9.84625 42.1539 9.81758 42.2755 9.80438 42.3963C9.71076 43.2817 9.60561 44.1662 9.53724 45.0535C9.46717 45.9586 9.42003 46.8664 9.3903 47.7735C9.36962 48.3991 9.39678 49.0263 9.40351 49.7891Z" fill="#E8AB49"/>
<path fill-rule="evenodd" clip-rule="evenodd" d="M7.14757 33.2905C7.29698 33.4391 7.46572 33.5311 7.507 33.6627C7.6189 34.0253 7.72742 34.4018 7.74621 34.7773C7.78351 35.5247 7.71587 36.2754 7.94531 37.01C8.01592 37.2356 7.98735 37.4949 7.98564 37.7388C7.98155 38.3481 7.93437 38.9592 7.96164 39.5673C8.02733 41.0421 7.89516 42.5006 7.6256 43.9461C7.34584 45.443 7.35941 46.9295 7.6691 48.4199C7.7639 48.8755 7.9223 49.2949 8.22821 49.6438C8.71099 50.1942 9.20919 50.7314 9.70011 51.2748C9.87527 51.469 10.0815 51.6443 10.2175 51.8636C10.6845 52.616 11.3578 53.1368 12.1092 53.5582C13.2558 54.2011 14.4498 54.7328 15.7756 54.8868C15.9831 54.9103 16.1925 54.9113 16.4011 54.9211C16.5837 54.9294 16.7055 55.015 16.7166 55.2017C16.7276 55.3939 16.7387 55.6162 16.4895 55.6663C16.2879 55.7067 16.0665 55.7375 15.8697 55.6974C15.2043 55.5629 14.5446 55.3997 13.8859 55.2363C13.6148 55.169 13.3506 55.0761 13.0853 54.9891C12.6565 54.8483 12.2298 54.7032 11.8026 54.5587C11.7528 54.5422 11.7073 54.5088 11.6567 54.5002C10.6106 54.3201 9.71526 53.7297 8.71696 53.4196C8.55135 53.3684 8.38178 53.308 8.23711 53.2155C7.14586 52.5165 6.09812 51.7669 5.2903 50.7278C4.8636 50.1783 4.61033 49.5771 4.45628 48.8926C4.0519 47.1006 4.20384 45.3145 4.41991 43.5284C4.57527 42.2454 4.73268 40.9582 4.99369 39.694C5.30423 38.1928 5.64503 36.6914 6.28293 35.2793C6.51981 34.7554 6.71944 34.214 6.94054 33.6823C6.98571 33.574 7.04964 33.4735 7.14757 33.2905Z" fill="#BF9767"/>
<path fill-rule="evenodd" clip-rule="evenodd" d="M26.201 37.7638C26.3869 37.4999 26.5754 37.2331 26.7988 36.916C26.9704 37.1677 27.1205 37.3785 27.262 37.5956C27.9269 38.615 28.9248 39.0391 30.0812 39.0131C30.887 38.9948 31.4963 38.4688 32.0144 37.8742C32.1163 37.758 32.1947 37.6209 32.3215 37.4383C32.5397 37.6913 32.7476 37.9157 32.9368 38.1561C33.3685 38.7033 33.9678 38.8647 34.6155 38.8466C34.8584 38.8397 35.1336 38.7236 35.3308 38.5741C36.0962 37.996 36.6173 37.25 36.7527 36.2745C36.7861 36.0339 36.8181 35.7934 36.8545 35.5255C37.1037 35.5207 37.2847 35.5609 37.4026 35.7741C37.7921 36.4807 38.1379 37.2044 38.3174 37.9964C38.3313 38.0602 38.3158 38.1306 38.315 38.1711C37.9708 38.2135 37.6325 38.2026 37.3321 38.3034C36.806 38.4798 36.4016 38.8712 36.2946 39.4054C36.1102 40.3244 35.5968 41.0797 35.1611 41.864C34.6785 42.7307 34.3497 43.6447 34.0839 44.5839C33.6613 46.0785 33.2106 47.567 33.0144 49.1183C32.9766 49.4194 32.8332 49.7184 32.6896 49.9935C32.3814 50.5847 32.0066 51.1322 31.4825 51.5597C31.4071 51.6212 31.32 51.6683 31.1986 51.7484C31.2267 50.6456 31.2384 49.6036 31.2832 48.562C31.3203 47.6898 31.429 46.8191 31.4393 45.9472C31.4457 45.4472 31.3236 44.9445 31.2502 44.4445C31.2062 44.1449 30.9963 43.9973 30.7199 43.9359C30.2081 43.8228 29.6985 43.6988 29.1821 43.6125C28.5291 43.5039 27.8702 43.4292 27.2388 43.3433C27.3766 42.6158 27.5276 41.9279 27.6347 41.2326C27.7956 40.1897 27.4102 39.269 26.897 38.4031C26.7547 38.1619 26.4706 38.0045 26.201 37.7638Z" fill="#E8AB49"/>
<path fill-rule="evenodd" clip-rule="evenodd" d="M19.2266 43.1004C20.1765 43.2295 21.0699 43.351 22.0032 43.4779C21.9979 43.6121 22.0077 43.7474 21.9854 43.8771C21.56 46.3411 21.5397 48.8451 21.2556 51.3234C21.186 51.93 21.0956 52.5345 21.0275 53.1411C20.9557 53.7825 20.9004 54.4257 20.834 55.0676C20.8132 55.2728 20.7798 55.4767 20.7538 55.6681C20.2543 55.7777 18.532 55.5936 17.9616 55.3689C17.9854 55.1937 18.0146 55.0065 18.0359 54.8187C18.3203 52.3045 18.6187 49.7923 18.8812 47.2754C19.0042 46.0972 19.055 44.9111 19.1429 43.7291C19.1568 43.5393 19.1925 43.351 19.2266 43.1004Z" fill="#CD9EDD"/>
<path fill-rule="evenodd" clip-rule="evenodd" d="M30.3575 51.3826C30.2644 52.0674 30.1771 52.7917 30.0626 53.512C30.0099 53.8451 29.822 54.0689 29.4506 54.1253C28.6756 54.2433 27.9039 54.3885 27.1311 54.5197C26.6325 54.6044 26.1326 54.6813 25.6336 54.7652C24.8589 54.8964 24.1713 55.237 23.5518 55.701C23.232 55.941 22.924 56.0261 22.5364 55.9336C22.2347 55.8619 21.9197 55.844 21.5881 55.799C21.6079 54.085 21.9192 52.4419 22.1056 50.757C24.8662 50.9664 27.6038 51.1739 30.3575 51.3826Z" fill="#59A4AA"/>
<path fill-rule="evenodd" clip-rule="evenodd" d="M10.6061 42.4504C13.2669 42.1716 15.782 42.8408 18.4017 42.9736C18.3643 43.4814 18.3325 43.9448 18.296 44.408C18.2438 45.0695 18.1807 45.7302 18.1355 46.3926C18.1023 46.8731 18.057 46.9366 17.5585 46.87C16.2421 46.6943 14.9263 46.5067 13.6126 46.3113C12.6277 46.1648 11.6452 45.9988 10.6616 45.841C10.5601 45.8245 10.459 45.8033 10.3223 45.7783C10.2518 44.6468 10.4287 43.5529 10.6061 42.4504Z" fill="#59A4AA"/>
<path fill-rule="evenodd" clip-rule="evenodd" d="M22.363 47.3976C22.4365 46.0918 22.6562 44.8641 22.8321 43.6099C22.9848 43.6031 23.087 43.5836 23.1847 43.5969C25.2775 43.8797 27.3743 44.1377 29.4601 44.4641C30.621 44.6455 30.5466 44.4531 30.6561 45.7989C30.7047 46.3988 30.608 47.0118 30.5769 47.6288C29.9007 47.8145 29.2566 47.7383 28.6179 47.7317C28.4088 47.7293 28.1986 47.7111 27.9923 47.6769C26.4534 47.4184 24.8992 47.4396 23.3469 47.4217C23.0376 47.4185 22.7286 47.4075 22.363 47.3976Z" fill="#59A4AA"/>
<path fill-rule="evenodd" clip-rule="evenodd" d="M10.2004 49.3074C12.7364 49.6574 15.1594 50.3339 17.665 50.2801C17.7718 50.8025 17.4596 53.7004 17.2332 54.3765C15.4161 54.1481 13.6885 53.6438 12.1331 52.6541C11.6495 52.3465 11.1906 51.987 10.9016 51.4626C10.8434 51.3569 10.7711 51.2456 10.677 51.1746C10.0264 50.686 10.2473 50.0049 10.2004 49.3074Z" fill="#59A4AA"/>
<path fill-rule="evenodd" clip-rule="evenodd" d="M22.3375 48.1941C23.294 48.2072 24.1818 48.1895 25.0664 48.2379C26.3016 48.3058 27.5334 48.4339 28.7692 48.5125C29.3065 48.547 29.8487 48.5221 30.4647 48.5244C30.4597 49.1452 30.4546 49.7787 30.4495 50.472C30.2161 50.4985 30.0161 50.5327 29.814 50.5418C29.6057 50.5517 29.3947 50.548 29.1868 50.5316C27.6558 50.4131 26.1265 50.2916 24.5967 50.1666C23.9884 50.1171 23.3807 50.057 22.7729 49.9984C22.6006 49.9816 22.4295 49.9529 22.2085 49.9229C22.1672 49.3505 22.3028 48.8101 22.3375 48.1941Z" fill="#CD9EDD"/>
<path fill-rule="evenodd" clip-rule="evenodd" d="M21.8135 40.7541C21.3918 40.0369 21.3918 40.0369 20.5364 39.5339C20.6258 39.45 20.697 39.3579 20.7894 39.3009C21.283 38.9956 21.8034 38.7618 22.3894 38.6877C22.891 38.6239 23.3917 38.5439 23.8881 38.4459C24.56 38.3135 25.2121 38.4487 25.856 38.5974C26.0459 38.641 26.257 38.8336 26.3495 39.0141C26.7289 39.75 27.0175 40.5153 26.8305 41.374C26.7604 41.698 26.7272 42.0298 26.6545 42.3534C26.5304 42.9093 26.208 43.1606 25.6445 43.1186C25.2473 43.0894 24.8534 43.0163 24.3796 42.9519C24.5434 42.7743 24.6617 42.6564 24.7684 42.5288C25.152 42.0727 25.171 41.2995 24.8143 40.8816C24.6245 40.6589 24.3829 40.5434 24.0957 40.4904C23.3165 40.3479 22.5661 40.4328 21.8135 40.7541Z" fill="#CD9EDD"/>
<path fill-rule="evenodd" clip-rule="evenodd" d="M18.0605 47.7439C17.9825 48.3181 17.908 48.8661 17.8301 49.4391C17.3046 49.5561 16.7772 49.5124 16.2692 49.4461C14.9032 49.2675 13.5453 49.0304 12.1828 48.8242C11.5455 48.7276 10.9059 48.6491 10.2028 48.5535C10.1873 47.8975 10.1729 47.2965 10.1571 46.6189C10.3937 46.6355 10.5769 46.6359 10.756 46.6627C12.7924 46.9665 14.8278 47.2754 16.8642 47.5807C17.2416 47.637 17.6202 47.684 18.0605 47.7439Z" fill="#CD9EDD"/>
<path fill-rule="evenodd" clip-rule="evenodd" d="M17.5269 40.9725C17.0879 40.7756 16.6885 40.5668 16.2681 40.4168C15.8113 40.2542 15.3426 40.1011 14.8661 40.0239C13.931 39.872 13.2744 40.4721 13.2829 41.4154C13.2835 41.467 13.2797 41.5187 13.2769 41.5924C12.849 41.6815 12.4507 41.6772 12.1421 41.3032C11.8138 40.9055 11.4889 40.4723 11.6805 39.9353C11.8544 39.4503 12.0953 38.9713 12.3966 38.5547C12.7042 38.13 13.2172 38.0611 13.7231 38.0915C14.4354 38.1341 15.0793 38.4301 15.6977 38.7368C16.2853 39.0281 16.8054 39.4531 17.3636 39.8059C17.6971 40.0158 17.7826 40.2865 17.6398 40.6434C17.6037 40.7371 17.5747 40.8324 17.5269 40.9725Z" fill="#CD9EDD"/>
<path fill-rule="evenodd" clip-rule="evenodd" d="M26.5949 69.9375C25.8143 69.7489 25.1064 69.5776 24.351 69.3952C24.3567 69.2717 24.3544 69.1211 24.3718 68.9729C24.4601 68.227 24.562 67.4827 24.643 66.7355C24.7162 66.0603 24.7067 66.0595 25.3502 65.6354C25.5152 65.7909 25.6849 65.96 25.8644 66.1186C26.2292 66.4406 26.5152 66.3802 26.7182 65.9321C26.7897 65.774 26.8295 65.6016 26.8877 65.4374C26.9384 65.2945 26.9946 65.1538 27.0648 64.9692C27.2763 65.2478 27.273 65.5121 27.2397 65.768C27.0792 66.9981 26.9099 68.2268 26.7355 69.4547C26.7113 69.6225 26.6413 69.7833 26.5949 69.9375Z" fill="#FFE56E"/>
<path fill-rule="evenodd" clip-rule="evenodd" d="M11.3375 67.3863C10.5314 67.1906 9.81088 67.0154 9.02373 66.8242C9.22915 65.652 9.43136 64.4724 9.64864 63.2948C9.67131 63.1736 9.78184 63.069 9.90507 62.8711C9.97997 63.2217 10.025 63.4735 10.0884 63.7213C10.2229 64.2506 10.5312 64.3886 11.0247 64.1353C11.3295 63.9789 11.6238 63.803 12.0248 63.578C11.8005 64.92 11.6828 66.1722 11.3375 67.3863Z" fill="#FFE56E"/>
<path fill-rule="evenodd" clip-rule="evenodd" d="M23.0381 71.1545C22.9856 71.4189 22.9504 71.6615 22.8879 71.8969C22.8199 72.1516 22.6756 72.3182 22.3748 72.3254C21.8345 72.3368 21.296 72.3946 20.7899 72.1193C20.3838 71.8989 20.2573 71.6898 20.3398 71.2304C20.3887 70.9565 20.444 70.679 20.542 70.4202C20.7125 69.9692 21.0509 69.7901 21.5421 69.8832C21.9353 69.9577 22.3266 70.0537 22.7107 70.1666C23.1228 70.288 23.143 70.3397 23.0904 70.7644C23.0736 70.903 23.0535 71.0412 23.0381 71.1545Z" fill="#FFE56E"/>
<path fill-rule="evenodd" clip-rule="evenodd" d="M7.71305 68.667C7.68258 68.8911 7.66577 69.1186 7.61789 69.3397C7.5718 69.553 7.46243 69.7437 7.21541 69.7594C6.64372 69.7955 6.06899 69.865 5.5277 69.5738C5.12902 69.3591 4.98845 69.1382 5.06822 68.688C5.11956 68.3979 5.18926 68.1055 5.29375 67.8305C5.44167 67.4418 5.75098 67.2593 6.1625 67.3303C6.62509 67.41 7.07969 67.5357 7.53727 67.6432C7.78246 67.7011 7.88493 67.8507 7.84015 68.1036C7.80677 68.2927 7.78703 68.4834 7.76115 68.6738C7.74563 68.6714 7.72958 68.6692 7.71305 68.667Z" fill="#FFE56E"/>
<path fill-rule="evenodd" clip-rule="evenodd" d="M18.2296 42.125C18.2976 41.6254 18.3376 41.1396 18.4356 40.6662C18.5242 40.2389 18.7095 40.0906 19.1379 40.1394C19.6014 40.1923 20.0644 40.2998 20.509 40.4427C20.6818 40.4981 20.869 40.6904 20.9346 40.8638C21.1254 41.3728 21.1747 41.9064 21.0092 42.5029C20.0931 42.3784 19.187 42.2552 18.2296 42.125Z" fill="#CD9EDD"/>
<path fill-rule="evenodd" clip-rule="evenodd" d="M10.8795 69.231C10.8561 69.4036 10.8346 69.5765 10.8086 69.749C10.7515 70.1312 10.6664 70.218 10.2714 70.2475C9.60965 70.2976 9.08913 69.9738 8.63559 69.5544C8.36571 69.3047 8.58208 68.0082 8.89636 67.8001C8.97678 67.7477 9.09828 67.7099 9.18866 67.7282C9.682 67.8257 10.174 67.9334 10.6612 68.0574C10.9393 68.1281 11.0505 68.3178 10.9847 68.6122C10.9392 68.8159 10.925 69.026 10.8968 69.2333C10.8912 69.2323 10.8854 69.2316 10.8795 69.231Z" fill="#FFE56E"/>
<path fill-rule="evenodd" clip-rule="evenodd" d="M26.1379 71.7782C26.1144 71.9511 26.0929 72.1242 26.0673 72.2963C26.009 72.6833 25.9271 72.7739 25.5402 72.8035C24.8792 72.8541 24.3723 72.5138 23.9066 72.1075C23.8198 72.0321 23.7775 71.853 23.7883 71.728C23.8193 71.3818 23.8714 71.0348 23.9484 70.6959C24.0269 70.3515 24.2049 70.2207 24.5551 70.2837C25.032 70.3693 25.5023 70.4946 25.9696 70.6231C26.2014 70.6865 26.2957 70.8566 26.2452 71.1075C26.2005 71.3289 26.1813 71.5561 26.1508 71.7802C26.1467 71.7794 26.1426 71.7789 26.1379 71.7782Z" fill="#FFE56E"/>
<path fill-rule="evenodd" clip-rule="evenodd" d="M11.6358 69.575C11.7574 68.7647 12.0942 68.4146 12.6961 68.5237C13.6562 68.6975 13.9639 69.0865 13.848 70.1359C13.7975 70.5961 13.2046 70.8574 12.4795 70.7472C11.8411 70.6493 11.5379 70.228 11.6358 69.575Z" fill="#FFE56E"/>
<path fill-rule="evenodd" clip-rule="evenodd" d="M26.9177 72.1217C27.0383 71.3005 27.3649 70.9539 27.9671 71.0667C28.8249 71.2281 29.277 71.6003 29.1056 72.6858C29.0318 73.1544 28.4724 73.4117 27.7432 73.2984C27.1004 73.1984 26.8176 72.7962 26.9177 72.1217Z" fill="#FFE56E"/>
<path fill-rule="evenodd" clip-rule="evenodd" d="M21.8675 42.6217C21.8821 42.2354 21.8941 41.9268 21.907 41.5935C22.5385 41.2517 23.1996 41.121 23.9097 41.2723C24.2768 41.3499 24.3975 41.6421 24.1996 41.9723C23.863 42.5337 23.1909 42.8263 22.5157 42.711C22.3134 42.6763 22.1082 42.6544 21.8675 42.6217Z" fill="#E8AB49"/>
<path fill-rule="evenodd" clip-rule="evenodd" d="M17.364 42.1003C16.8639 42.0452 16.3635 41.9937 15.865 41.9326C15.4314 41.8801 14.999 41.8206 14.5667 41.7579C14.1666 41.6995 14.0347 41.5788 14.0507 41.3044C14.0689 40.9905 14.3564 40.7428 14.7106 40.7892C15.037 40.8321 15.3704 40.895 15.6752 41.0152C16.1938 41.2189 16.6929 41.4725 17.1983 41.7086C17.322 41.766 17.4723 41.8152 17.364 42.1003Z" fill="#E8AB49"/>
<path fill-rule="evenodd" clip-rule="evenodd" d="M20.7875 17.8002C20.481 19.0476 20.2007 20.2955 19.5286 21.4021C18.9998 22.2738 18.255 22.9236 17.3041 23.3157C16.2562 23.7477 15.2165 23.5566 14.2551 23.108C12.995 22.5197 12.054 21.5806 11.6403 20.1977C11.4723 19.6346 11.4369 19.0645 11.5333 18.4883C11.6364 17.8682 11.7691 17.2523 11.8635 16.6313C11.9466 16.0815 12.1685 15.6093 12.485 15.1536C13.6736 13.4446 15.2776 12.7403 17.3318 13.0965C17.7435 13.1679 18.1862 13.2142 18.5459 13.4017C19.7846 14.047 20.6317 15.0377 20.8529 16.4504C20.9214 16.8866 20.8149 17.3498 20.7875 17.8002ZM12.4685 17.6723C12.4541 17.6703 12.4398 17.6684 12.4255 17.6662C12.3808 17.9949 12.2995 18.3235 12.3001 18.6522C12.3012 19.101 12.2882 19.5722 12.4158 19.9939C12.8147 21.3126 13.7582 22.1354 15.0346 22.5652C15.8728 22.8473 16.7283 22.8636 17.5046 22.3508C18.342 21.7976 18.9684 21.0657 19.3012 20.1002C19.6091 19.2066 19.8354 18.296 20.0243 17.3691C20.1598 16.7043 20.0579 16.1185 19.7293 15.5598C19.295 14.8218 18.7657 14.1801 17.8641 13.9964C17.5391 13.9302 17.209 13.8885 16.8829 13.8266C14.8397 13.4387 12.7593 15.2419 12.6051 16.9517C12.584 17.194 12.5157 17.4323 12.4685 17.6723Z" fill="black"/>
<path fill-rule="evenodd" clip-rule="evenodd" d="M38.2802 20.6335C38.1392 21.2918 38.0548 21.7382 37.9464 22.1785C37.6882 23.2379 37.0765 24.0842 36.2578 24.7675C35.1564 25.6862 33.8637 25.7167 32.5873 25.2923C31.2909 24.8613 30.2471 24.0578 29.6773 22.7502C29.4281 22.1771 29.3356 21.5794 29.3552 20.9613C29.3779 20.2808 29.407 19.6003 29.4418 18.9199C29.4507 18.7471 29.465 18.5655 29.5246 18.406C30.3236 16.2676 31.8596 14.9281 34.2525 14.9793C34.392 14.9824 34.5314 14.9952 34.6709 14.9993C36.3639 15.0517 37.4431 16.0031 38.1632 17.4346C38.3137 17.7339 38.3827 18.1058 38.3815 18.4439C38.3783 19.2452 38.3108 20.0464 38.2802 20.6335ZM37.4235 20.6226C37.4017 20.6206 37.4455 20.6248 37.4235 20.6226C37.4647 19.8734 37.584 19.1303 37.605 18.3806C37.6107 18.1799 37.5572 17.9559 37.465 17.7767C36.8334 16.5447 35.9349 15.7008 34.4352 15.7737C34.3133 15.7794 34.1906 15.7712 34.0688 15.766C31.9307 15.6729 30.2289 17.6148 30.1973 19.395C30.1872 19.9889 30.1518 20.5821 30.1414 21.1757C30.1312 21.8032 30.3029 22.3812 30.6471 22.9096C31.2075 23.7684 32.0122 24.3262 32.9731 24.5941C34.0004 24.8801 35.0327 24.8458 35.8818 24.0674C36.6205 23.3896 37.1213 22.5596 37.2948 21.5566C37.348 21.2472 37.3812 20.934 37.4235 20.6226Z" fill="black"/>
<path fill-rule="evenodd" clip-rule="evenodd" d="M25.3481 17.5076C25.5879 17.5543 25.8296 17.5924 26.0667 17.6498C27.0161 17.8804 27.4425 18.4557 27.3772 19.4355C27.3588 19.7128 27.3249 19.9966 27.2428 20.26C26.854 21.5096 26.4028 22.7378 25.7603 23.8816C25.5485 24.2589 25.2806 24.6122 24.9964 24.9395C24.6656 25.3202 24.3235 25.2724 24.0749 24.8368C23.4872 23.8048 22.9278 22.7566 22.6063 21.6059C22.376 20.783 22.1664 19.955 22.2964 19.0812C22.3627 18.6371 22.5275 18.2812 22.9362 18.0651C22.9516 18.0571 22.9652 18.0463 22.9801 18.0367C23.7012 17.5556 24.456 17.2286 25.3481 17.5076ZM24.6127 24.1391C24.6809 24.0733 24.7253 24.0417 24.7548 23.9997C24.854 23.8564 24.9567 23.7144 25.0436 23.5638C25.6551 22.5007 26.0459 21.3435 26.4531 20.195C26.5503 19.9205 26.5688 19.6135 26.5925 19.3189C26.6314 18.8413 26.4759 18.5904 26.0183 18.4522C25.6865 18.3519 25.3285 18.3423 24.9947 18.2479C24.2927 18.0492 23.7911 18.4659 23.2573 18.7825C23.1833 18.8264 23.1275 18.9541 23.119 19.0482C23.0895 19.3758 23.0436 19.71 23.0768 20.0342C23.2074 21.3043 23.7066 22.4569 24.2718 23.5834C24.364 23.767 24.4869 23.9355 24.6127 24.1391Z" fill="black"/>
<path fill-rule="evenodd" clip-rule="evenodd" d="M14.2319 4.43273C14.2772 4.37475 14.352 4.19055 14.4648 4.1623C14.5766 4.13417 14.7538 4.23453 14.8572 4.32831C15.653 5.04413 16.2659 5.9183 16.9362 6.74285C17.156 7.01267 17.3688 7.28895 17.6036 7.54569C17.9615 7.93803 17.9312 8.17211 17.4401 8.34528C16.8987 8.53588 16.3381 8.67236 15.7959 8.85963C15.453 8.97816 15.1194 9.13139 14.7948 9.29501C14.3835 9.5028 14.1565 9.3865 14.1608 8.91763C14.1731 7.71419 14.2007 6.51087 14.2214 5.30759C14.2256 5.04569 14.2277 4.78425 14.2319 4.43273ZM17.1166 7.90018C16.3958 6.87466 15.6493 5.95309 14.7949 4.98714C14.6692 6.2757 14.66 7.44365 14.7327 8.62249C15.5393 8.37805 16.3021 8.14675 17.1166 7.90018Z" fill="black"/>
<path fill-rule="evenodd" clip-rule="evenodd" d="M39.2348 9.7896C39.1521 10.8567 38.681 11.8965 38.3249 12.9677C38.2385 13.2259 38.0356 13.2671 37.8388 13.0879C37.7506 13.008 37.6736 12.9045 37.6232 12.7966C37.2897 12.082 36.7819 11.5246 36.125 11.0944C35.9511 10.9801 35.7832 10.8513 35.6312 10.7091C35.3859 10.4804 35.4135 10.2992 35.6985 10.1356C36.4954 9.67767 37.2894 9.21412 38.0917 8.76534C38.3334 8.63008 38.5908 8.51303 38.8546 8.42831C39.22 8.31036 39.3821 8.45149 39.3637 8.83032C39.3615 8.86493 39.3558 8.89931 39.3512 8.93384C39.3159 9.19324 39.2807 9.45216 39.2348 9.7896ZM37.9637 12.2058C38.4089 11.2026 38.7396 10.1955 38.7535 9.01131C37.8767 9.52573 37.0754 9.99595 36.2235 10.4957C36.9053 11.0229 37.5538 11.4746 37.9637 12.2058Z" fill="black"/>
<path fill-rule="evenodd" clip-rule="evenodd" d="M12.4683 17.6723C12.5155 17.4324 12.5838 17.1943 12.6053 16.9521C12.7595 15.2423 14.84 13.439 16.8832 13.827C17.2093 13.8889 17.5394 13.9305 17.8644 13.9967C18.7657 14.1804 19.295 14.8221 19.7296 15.5601C20.0582 16.1191 20.1598 16.7046 20.0246 17.3694C19.8357 18.2965 19.6094 19.2069 19.3015 20.1005C18.9687 21.066 18.3425 21.7977 17.5049 22.3512C16.7285 22.8639 15.8731 22.8474 15.0348 22.5656C13.7582 22.1357 12.815 21.313 12.4161 19.9942C12.2885 19.5725 12.3015 19.1014 12.3004 18.6525C12.2995 18.3238 12.3811 17.9952 12.4258 17.6665C12.4396 17.6684 12.4542 17.6704 12.4683 17.6723ZM16.1644 17.2913C15.448 17.0931 14.851 17.4594 14.3107 17.9715C14.1248 18.1478 14.1133 18.3632 14.2508 18.5339C14.3904 18.7076 14.5928 18.7339 14.8107 18.5862C14.94 18.4988 15.0545 18.3886 15.1697 18.2825C15.3759 18.0933 15.612 18.0484 15.8906 18.0521C16.4428 18.0591 16.7452 18.3575 16.9541 18.8261C17.0766 19.1015 17.2861 19.1927 17.4867 19.1043C17.6819 19.0184 17.7923 18.7653 17.6738 18.5186C17.3792 17.9069 17.0146 17.3556 16.1644 17.2913Z" fill="white"/>
<path fill-rule="evenodd" clip-rule="evenodd" d="M37.4234 20.6225C37.3811 20.9339 37.3479 21.2471 37.295 21.5563C37.1215 22.5593 36.6207 23.3893 35.882 24.0671C35.0329 24.8453 34.0007 24.8795 32.9733 24.5938C32.0124 24.3257 31.2077 23.7682 30.6473 22.9093C30.3029 22.3809 30.1314 21.8029 30.1416 21.1754C30.152 20.5818 30.1873 19.9886 30.1975 19.3948C30.2288 17.6148 31.9306 15.6729 34.069 15.7657C34.1908 15.7709 34.3135 15.7792 34.4354 15.7734C35.9351 15.7005 36.8336 16.5444 37.4652 17.7765C37.5574 17.9559 37.6109 18.1796 37.6052 18.3803C37.5842 19.13 37.4696 19.8896 37.4284 20.6388C37.4061 20.6372 37.4454 20.6247 37.4234 20.6225ZM34.1108 19.2956C33.9919 19.2995 33.8005 19.3163 33.6087 19.31C32.8693 19.2868 32.4272 19.7571 32.0205 20.272C31.8658 20.4684 31.9125 20.6929 32.088 20.8296C32.2749 20.9744 32.4516 20.9236 32.6088 20.7853C32.7127 20.6934 32.7939 20.5767 32.889 20.4748C33.4109 19.9158 34.1756 19.9375 34.6506 20.5268C34.7161 20.6075 34.7581 20.7071 34.8227 20.7887C34.9567 20.9579 35.1281 21.0287 35.3278 20.9113C35.5213 20.7972 35.5533 20.6166 35.4948 20.4098C35.3805 20.0023 34.6227 19.3625 34.1108 19.2956Z" fill="white"/>
<path fill-rule="evenodd" clip-rule="evenodd" d="M24.6131 24.1392C24.4872 23.9356 24.3643 23.7671 24.2721 23.5835C23.707 22.4571 23.2075 21.3044 23.0771 20.0343C23.0437 19.7098 23.0896 19.3758 23.1193 19.0483C23.1279 18.9542 23.1836 18.8265 23.2577 18.7826C23.7915 18.466 24.2928 18.0493 24.995 18.248C25.3288 18.3424 25.6871 18.352 26.0186 18.4523C26.4762 18.5905 26.6315 18.8414 26.5928 19.319C26.5691 19.6136 26.5506 19.9206 26.4534 20.1951C26.0462 21.3437 25.6554 22.5006 25.0439 23.5639C24.957 23.7145 24.8545 23.8565 24.7551 23.9998C24.7256 24.0418 24.6812 24.0734 24.6131 24.1392Z" fill="#FFE56E"/>
<path fill-rule="evenodd" clip-rule="evenodd" d="M17.1169 7.90031C16.3026 8.14715 15.5398 8.37821 14.7333 8.62265C14.6605 7.4438 14.6698 6.27586 14.7954 4.9873C15.6493 5.95318 16.3961 6.87478 17.1169 7.90031Z" fill="#BF9767"/>
<path fill-rule="evenodd" clip-rule="evenodd" d="M37.9644 12.2054C37.5545 11.4742 36.906 11.0226 36.2242 10.4954C37.0761 9.99561 37.8776 9.52542 38.7543 9.01097C38.7404 10.1951 38.4096 11.2022 37.9644 12.2054Z" fill="#BF9767"/>
<path fill-rule="evenodd" clip-rule="evenodd" d="M16.1641 17.291C17.0143 17.3553 17.3789 17.9066 17.6736 18.5181C17.7921 18.765 17.6819 19.0179 17.4865 19.1038C17.2859 19.1921 17.0763 19.1012 16.9539 18.8256C16.745 18.3569 16.4428 18.0586 15.8904 18.0516C15.6118 18.0481 15.3754 18.093 15.1695 18.2819C15.0543 18.3881 14.9395 18.498 14.8105 18.5857C14.5926 18.7334 14.3902 18.7071 14.2506 18.5334C14.1131 18.3629 14.1243 18.1473 14.3105 17.971C14.8508 17.4591 15.4478 17.0929 16.1641 17.291Z" fill="black"/>
<path fill-rule="evenodd" clip-rule="evenodd" d="M34.1107 19.2958C34.6224 19.3626 35.3805 20.0025 35.4952 20.41C35.5537 20.6168 35.5215 20.7971 35.3282 20.9115C35.1285 21.0292 34.9569 20.9581 34.8232 20.7889C34.7585 20.7073 34.7166 20.6077 34.651 20.527C34.176 19.9378 33.4111 19.916 32.8894 20.475C32.7944 20.5767 32.7131 20.6937 32.6093 20.7855C32.452 20.9239 32.2753 20.9746 32.0885 20.8299C31.9129 20.6931 31.8662 20.4686 32.0209 20.2722C32.4274 19.7572 32.8697 19.287 33.6091 19.3103C33.8004 19.3165 33.9921 19.2997 34.1107 19.2958Z" fill="black"/>
</svg>
