<svg width="24" height="24" viewBox="0 0 24 24" fill="none" xmlns="http://www.w3.org/2000/svg">
<path d="M20.25 19.5C20.6642 19.5 21 19.8358 21 20.25C21 20.6642 20.6642 21 20.25 21H11.5C11.0858 21 10.75 20.6642 10.75 20.25C10.75 19.8358 11.0858 19.5 11.5 19.5H20.25ZM12.8555 6.24023C13.3239 7.12205 14.0131 8.2358 14.8887 9.11133C15.7642 9.98685 16.878 10.6761 17.7598 11.1445L12.0596 16.8438C11.7059 17.1973 11.247 17.4273 10.752 17.498L7.31934 17.9883C6.55675 18.097 5.90298 17.4432 6.01172 16.6807L6.50195 13.248C6.57268 12.753 6.80267 12.2941 7.15625 11.9404L12.8555 6.24023ZM15.4189 3.67676C16.3217 2.77412 17.7857 2.77409 18.6885 3.67676L20.3232 5.31152C21.2259 6.21427 21.2259 7.67829 20.3232 8.58105L18.874 10.0303C18.7603 9.97393 18.6397 9.913 18.5156 9.84766C17.6803 9.40785 16.689 8.79056 15.9492 8.05078C15.2094 7.31099 14.5921 6.31973 14.1523 5.48438C14.087 5.36024 14.0261 5.23976 13.9697 5.12598L15.4189 3.67676Z" fill="white"/>
</svg>
