<svg width="137" height="151" viewBox="0 0 137 151" fill="none" xmlns="http://www.w3.org/2000/svg">
<rect x="51.791" y="116.318" width="62.1422" height="14.9141" rx="7.45706" transform="rotate(-21.3049 51.791 116.318)" fill="url(#paint0_linear_1999_4094)"/>
<path d="M74.3223 126.207L99.7962 116.272C102.29 122.667 99.1277 129.873 92.7328 132.367L90.417 133.27C84.022 135.764 76.8162 132.602 74.3223 126.207Z" fill="url(#paint1_linear_1999_4094)"/>
<path d="M45.6959 17.8206C70.9331 7.97854 99.3704 20.4588 109.212 45.6959C115.526 61.8844 112.654 79.3894 103.123 92.4588L53.9621 111.631C38.0988 108.465 24.1338 97.5256 17.8206 81.3371C7.97865 56.1001 20.459 27.6628 45.6959 17.8206ZM61.8328 50.7594C60.3167 48.589 56.9074 49.9186 57.2609 52.5423L58.2344 59.7611C58.3606 60.6977 57.952 61.6267 57.1773 62.168L51.2058 66.3395C49.0354 67.8556 50.365 71.265 52.9887 70.9114L60.2078 69.9388C61.1444 69.8128 62.0741 70.2199 62.6153 70.9947L66.7859 76.9666C68.3021 79.1367 71.7113 77.8073 71.3578 75.1836L70.3852 67.9645C70.259 67.0279 70.6667 66.0992 71.4414 65.5579L77.4139 61.386C79.5832 59.8699 78.2539 56.4614 75.6309 56.8142L68.4109 57.7871C67.4744 57.9132 66.5456 57.5056 66.0043 56.7309L61.8328 50.7594Z" fill="url(#paint2_linear_1999_4094)"/>
<defs>
<linearGradient id="paint0_linear_1999_4094" x1="82.8621" y1="116.318" x2="82.8621" y2="131.232" gradientUnits="userSpaceOnUse">
<stop stop-color="#22C2B0"/>
<stop offset="1" stop-color="#11AFDB"/>
</linearGradient>
<linearGradient id="paint1_linear_1999_4094" x1="87.0593" y1="121.24" x2="91.5749" y2="132.819" gradientUnits="userSpaceOnUse">
<stop stop-color="#22C2B0"/>
<stop offset="1" stop-color="#11AFDB"/>
</linearGradient>
<linearGradient id="paint2_linear_1999_4094" x1="45.6959" y1="17.8206" x2="78.5419" y2="102.045" gradientUnits="userSpaceOnUse">
<stop stop-color="#22C2B0"/>
<stop offset="1" stop-color="#11AFDB"/>
</linearGradient>
</defs>
</svg>
